%TF.GenerationSoftware,KiCad,Pcbnew,(6.0.0-0)*%
%TF.CreationDate,2022-01-12T16:50:31+09:00*%
%TF.ProjectId,ADAU1701-RPPico-module,41444155-3137-4303-912d-52505069636f,B*%
%TF.SameCoordinates,Original*%
%TF.FileFunction,Copper,L4,Bot*%
%TF.FilePolarity,Positive*%
%FSLAX46Y46*%
G04 Gerber Fmt 4.6, Leading zero omitted, Abs format (unit mm)*
G04 Created by KiCad (PCBNEW (6.0.0-0)) date 2022-01-12 16:50:31*
%MOMM*%
%LPD*%
G01*
G04 APERTURE LIST*
G04 Aperture macros list*
%AMRoundRect*
0 Rectangle with rounded corners*
0 $1 Rounding radius*
0 $2 $3 $4 $5 $6 $7 $8 $9 X,Y pos of 4 corners*
0 Add a 4 corners polygon primitive as box body*
4,1,4,$2,$3,$4,$5,$6,$7,$8,$9,$2,$3,0*
0 Add four circle primitives for the rounded corners*
1,1,$1+$1,$2,$3*
1,1,$1+$1,$4,$5*
1,1,$1+$1,$6,$7*
1,1,$1+$1,$8,$9*
0 Add four rect primitives between the rounded corners*
20,1,$1+$1,$2,$3,$4,$5,0*
20,1,$1+$1,$4,$5,$6,$7,0*
20,1,$1+$1,$6,$7,$8,$9,0*
20,1,$1+$1,$8,$9,$2,$3,0*%
G04 Aperture macros list end*
%TA.AperFunction,SMDPad,CuDef*%
%ADD10RoundRect,0.237500X0.300000X0.237500X-0.300000X0.237500X-0.300000X-0.237500X0.300000X-0.237500X0*%
%TD*%
%TA.AperFunction,ComponentPad*%
%ADD11R,1.700000X1.700000*%
%TD*%
%TA.AperFunction,ComponentPad*%
%ADD12O,1.700000X1.700000*%
%TD*%
%TA.AperFunction,SMDPad,CuDef*%
%ADD13RoundRect,0.155000X0.212500X0.155000X-0.212500X0.155000X-0.212500X-0.155000X0.212500X-0.155000X0*%
%TD*%
%TA.AperFunction,SMDPad,CuDef*%
%ADD14RoundRect,0.250000X0.337500X0.475000X-0.337500X0.475000X-0.337500X-0.475000X0.337500X-0.475000X0*%
%TD*%
%TA.AperFunction,ViaPad*%
%ADD15C,0.700000*%
%TD*%
%TA.AperFunction,ViaPad*%
%ADD16C,1.000000*%
%TD*%
%TA.AperFunction,Conductor*%
%ADD17C,0.200000*%
%TD*%
G04 APERTURE END LIST*
D10*
%TO.P,C15,1*%
%TO.N,GND*%
X142915000Y-69250000D03*
%TO.P,C15,2*%
%TO.N,Net-(C14-Pad2)*%
X141190000Y-69250000D03*
%TD*%
D11*
%TO.P,J2,1,Pin_1*%
%TO.N,+3V3*%
X149860000Y-58420000D03*
D12*
%TO.P,J2,2,Pin_2*%
%TO.N,GND*%
X149860000Y-60960000D03*
%TO.P,J2,3,Pin_3*%
%TO.N,/1701_VOUT0*%
X149860000Y-63500000D03*
%TO.P,J2,4,Pin_4*%
%TO.N,/1701_VOUT1*%
X149860000Y-66040000D03*
%TO.P,J2,5,Pin_5*%
%TO.N,/1701_VOUT2*%
X149860000Y-68580000D03*
%TO.P,J2,6,Pin_6*%
%TO.N,/1701_VOUT3*%
X149860000Y-71120000D03*
%TO.P,J2,7,Pin_7*%
%TO.N,GND*%
X149860000Y-73660000D03*
%TO.P,J2,8,Pin_8*%
%TO.N,MCLK_In*%
X149860000Y-76200000D03*
%TO.P,J2,9,Pin_9*%
%TO.N,1701_AuxADC1*%
X149860000Y-78740000D03*
%TO.P,J2,10,Pin_10*%
%TO.N,1701_AuxADC2*%
X149860000Y-81280000D03*
%TO.P,J2,11,Pin_11*%
%TO.N,1701_AuxADC3*%
X149860000Y-83820000D03*
%TO.P,J2,12,Pin_12*%
%TO.N,1701_AuxADC0*%
X149860000Y-86360000D03*
%TO.P,J2,13,Pin_13*%
%TO.N,/SCL*%
X149860000Y-88900000D03*
%TO.P,J2,14,Pin_14*%
%TO.N,/SDA*%
X149860000Y-91440000D03*
%TD*%
D13*
%TO.P,C13,1*%
%TO.N,GND*%
X138567500Y-75000000D03*
%TO.P,C13,2*%
%TO.N,+1V8*%
X137432500Y-75000000D03*
%TD*%
D14*
%TO.P,C17,1*%
%TO.N,GND*%
X143945000Y-70990000D03*
%TO.P,C17,2*%
%TO.N,Net-(C16-Pad2)*%
X141870000Y-70990000D03*
%TD*%
D13*
%TO.P,C10,1*%
%TO.N,+3V3*%
X141797500Y-74710000D03*
%TO.P,C10,2*%
%TO.N,GND*%
X140662500Y-74710000D03*
%TD*%
D11*
%TO.P,J1,1,Pin_1*%
%TO.N,/1701_ADC0*%
X124460000Y-58420000D03*
D12*
%TO.P,J1,2,Pin_2*%
%TO.N,/1701_ADC_RES*%
X124460000Y-60960000D03*
%TO.P,J1,3,Pin_3*%
%TO.N,/1701_ADC1*%
X124460000Y-63500000D03*
%TO.P,J1,4,Pin_4*%
%TO.N,/~{RESET}*%
X124460000Y-66040000D03*
%TO.P,J1,5,Pin_5*%
%TO.N,GND*%
X124460000Y-68580000D03*
%TO.P,J1,6,Pin_6*%
%TO.N,1701_In_LRCLK*%
X124460000Y-71120000D03*
%TO.P,J1,7,Pin_7*%
%TO.N,1701_In_BCLK*%
X124460000Y-73660000D03*
%TO.P,J1,8,Pin_8*%
%TO.N,1701_MP1*%
X124460000Y-76200000D03*
%TO.P,J1,9,Pin_9*%
%TO.N,1701_In_SDIN0*%
X124460000Y-78740000D03*
%TO.P,J1,10,Pin_10*%
%TO.N,GND*%
X124460000Y-81280000D03*
%TO.P,J1,11,Pin_11*%
%TO.N,1701_MP7*%
X124460000Y-83820000D03*
%TO.P,J1,12,Pin_12*%
%TO.N,1701_Out_SDOUT0*%
X124460000Y-86360000D03*
%TO.P,J1,13,Pin_13*%
%TO.N,1701_Out_LRCLK*%
X124460000Y-88900000D03*
%TO.P,J1,14,Pin_14*%
%TO.N,1701_Out_BCLK*%
X124460000Y-91440000D03*
%TD*%
D15*
%TO.N,GND*%
X144269400Y-69229800D03*
%TO.N,+3V3*%
X142680000Y-74770000D03*
X133200000Y-76850000D03*
D16*
X141150000Y-58650000D03*
D15*
X144090000Y-72440000D03*
X139923500Y-65060000D03*
%TO.N,GND*%
X125575000Y-92420000D03*
X145768000Y-75148000D03*
X143990000Y-62575000D03*
X133830000Y-92420000D03*
X133750000Y-71750000D03*
X138910000Y-62575000D03*
X148500000Y-62470000D03*
X142540000Y-76620000D03*
X140200000Y-72800000D03*
X147800000Y-57495000D03*
X135850000Y-69800000D03*
X126600000Y-87900000D03*
X141500000Y-81770000D03*
X148700000Y-77500000D03*
X137400000Y-68200000D03*
X147570000Y-69950000D03*
X134465000Y-64480000D03*
X140300000Y-85970000D03*
X134400000Y-79470000D03*
X148400000Y-92500000D03*
X131700000Y-78400000D03*
X127200000Y-77470000D03*
X135050000Y-73050000D03*
X130800000Y-82570000D03*
X128600000Y-67470000D03*
X141200000Y-60070000D03*
X129200000Y-75170000D03*
X137400000Y-71800000D03*
X131900000Y-85370000D03*
X137640000Y-77434000D03*
X139150000Y-77900000D03*
X126210000Y-57495000D03*
X141450000Y-92420000D03*
X138900000Y-69670000D03*
X136200000Y-74100000D03*
X131900000Y-59670000D03*
X132950000Y-67750000D03*
X134465000Y-57495000D03*
X144900000Y-66600000D03*
X145690000Y-77360000D03*
%TO.N,+1V8*%
X137400000Y-75850000D03*
D16*
X136510000Y-65480000D03*
D15*
X130650000Y-73250000D03*
%TO.N,Net-(C14-Pad2)*%
X139450000Y-70600000D03*
%TO.N,Net-(C16-Pad2)*%
X139555522Y-71419739D03*
%TD*%
D17*
%TO.N,Net-(C16-Pad2)*%
X139555522Y-71419739D02*
X139985261Y-70990000D01*
X139985261Y-70990000D02*
X141870000Y-70990000D01*
%TO.N,+3V3*%
X142620000Y-74710000D02*
X141797500Y-74710000D01*
X142680000Y-74770000D02*
X142620000Y-74710000D01*
%TO.N,+1V8*%
X137432500Y-75817500D02*
X137400000Y-75850000D01*
X137432500Y-75000000D02*
X137432500Y-75817500D01*
%TO.N,Net-(C14-Pad2)*%
X139450000Y-70320000D02*
X140520000Y-69250000D01*
X140520000Y-69250000D02*
X141190000Y-69250000D01*
X139450000Y-70600000D02*
X139450000Y-70320000D01*
%TD*%
%TA.AperFunction,Conductor*%
%TO.N,Net-(C16-Pad2)*%
G36*
X140073521Y-70893701D02*
G01*
X140077518Y-70902508D01*
X140077518Y-71079564D01*
X140074091Y-71087837D01*
X140067151Y-71091188D01*
X140015192Y-71097140D01*
X139971235Y-71117363D01*
X139942358Y-71148874D01*
X139925270Y-71189875D01*
X139925158Y-71190509D01*
X139925157Y-71190513D01*
X139916742Y-71238242D01*
X139916684Y-71238571D01*
X139913309Y-71293165D01*
X139913306Y-71293296D01*
X139911860Y-71351695D01*
X139911852Y-71351946D01*
X139909055Y-71412426D01*
X139908982Y-71413297D01*
X139901650Y-71473628D01*
X139901369Y-71475118D01*
X139888345Y-71525978D01*
X139882973Y-71533143D01*
X139877240Y-71534774D01*
X139447235Y-71543180D01*
X139438896Y-71539915D01*
X139435308Y-71531711D01*
X139435686Y-71528525D01*
X139553416Y-71077803D01*
X139558822Y-71070665D01*
X139563830Y-71069095D01*
X139620370Y-71064707D01*
X139645724Y-71058305D01*
X139674002Y-71051165D01*
X139674006Y-71051164D01*
X139674468Y-71051047D01*
X139674902Y-71050858D01*
X139674906Y-71050857D01*
X139720469Y-71031056D01*
X139720470Y-71031056D01*
X139720791Y-71030916D01*
X139762318Y-71006471D01*
X139801982Y-70979900D01*
X139802049Y-70979856D01*
X139842515Y-70953516D01*
X139843314Y-70953041D01*
X139848848Y-70950035D01*
X139887238Y-70929183D01*
X139888603Y-70928552D01*
X139939187Y-70909015D01*
X139940893Y-70908501D01*
X140001380Y-70895220D01*
X140003109Y-70894974D01*
X140049245Y-70891890D01*
X140065038Y-70890834D01*
X140073521Y-70893701D01*
G37*
%TD.AperFunction*%
%TD*%
%TA.AperFunction,Conductor*%
%TO.N,Net-(C16-Pad2)*%
G36*
X141620078Y-70467177D02*
G01*
X141675478Y-70520452D01*
X142071342Y-70901135D01*
X142154981Y-70981567D01*
X142158569Y-70989771D01*
X142154981Y-70998433D01*
X142052638Y-71096851D01*
X141620078Y-71512823D01*
X141611739Y-71516088D01*
X141606397Y-71514678D01*
X141505564Y-71460067D01*
X141504697Y-71459547D01*
X141414724Y-71400236D01*
X141414101Y-71399796D01*
X141336558Y-71341091D01*
X141336340Y-71340921D01*
X141265929Y-71284426D01*
X141197576Y-71231975D01*
X141197385Y-71231850D01*
X141197376Y-71231844D01*
X141166193Y-71211497D01*
X141126073Y-71185317D01*
X141046118Y-71146120D01*
X141045719Y-71145992D01*
X141045714Y-71145990D01*
X140952805Y-71116183D01*
X140952406Y-71116055D01*
X140951996Y-71115985D01*
X140951992Y-71115984D01*
X140839979Y-71096851D01*
X140839980Y-71096851D01*
X140839634Y-71096792D01*
X140713621Y-71090551D01*
X140705528Y-71086719D01*
X140702500Y-71078865D01*
X140702500Y-70901135D01*
X140705927Y-70892862D01*
X140713621Y-70889449D01*
X140839634Y-70883207D01*
X140861999Y-70879387D01*
X140951992Y-70864015D01*
X140951996Y-70864014D01*
X140952406Y-70863944D01*
X140952805Y-70863816D01*
X141045714Y-70834009D01*
X141045719Y-70834007D01*
X141046118Y-70833879D01*
X141126073Y-70794682D01*
X141166193Y-70768502D01*
X141197376Y-70748155D01*
X141197385Y-70748149D01*
X141197576Y-70748024D01*
X141265929Y-70695573D01*
X141336340Y-70639078D01*
X141336558Y-70638908D01*
X141414103Y-70580201D01*
X141414724Y-70579763D01*
X141504697Y-70520452D01*
X141505564Y-70519932D01*
X141606396Y-70465322D01*
X141615303Y-70464395D01*
X141620078Y-70467177D01*
G37*
%TD.AperFunction*%
%TD*%
%TA.AperFunction,Conductor*%
%TO.N,+3V3*%
G36*
X142583760Y-74437061D02*
G01*
X142587858Y-74440539D01*
X142668479Y-74549921D01*
X142845265Y-74789775D01*
X142847415Y-74798467D01*
X142842415Y-74806398D01*
X142483352Y-75049983D01*
X142474582Y-75051792D01*
X142469721Y-75049628D01*
X142423155Y-75014364D01*
X142422746Y-75014040D01*
X142377088Y-74976148D01*
X142376916Y-74976002D01*
X142362811Y-74963829D01*
X142336118Y-74940791D01*
X142297744Y-74908759D01*
X142287543Y-74901227D01*
X142259619Y-74880608D01*
X142259612Y-74880604D01*
X142259384Y-74880435D01*
X142218529Y-74856264D01*
X142218186Y-74856118D01*
X142218179Y-74856114D01*
X142192846Y-74845301D01*
X142190836Y-74844443D01*
X142172672Y-74836690D01*
X142119303Y-74822158D01*
X142055915Y-74813113D01*
X141980000Y-74810000D01*
X141980000Y-74610000D01*
X142066187Y-74607089D01*
X142138381Y-74598866D01*
X142199671Y-74586098D01*
X142211003Y-74582591D01*
X142212793Y-74582037D01*
X142212794Y-74582037D01*
X142252923Y-74569618D01*
X142253146Y-74569549D01*
X142301894Y-74549986D01*
X142349005Y-74528174D01*
X142369653Y-74518269D01*
X142397425Y-74504948D01*
X142397664Y-74504836D01*
X142421492Y-74494061D01*
X142450436Y-74480973D01*
X142450947Y-74480758D01*
X142511068Y-74457035D01*
X142511756Y-74456788D01*
X142574834Y-74436351D01*
X142583760Y-74437061D01*
G37*
%TD.AperFunction*%
%TD*%
%TA.AperFunction,Conductor*%
%TO.N,+3V3*%
G36*
X141940076Y-74434871D02*
G01*
X141943830Y-74436821D01*
X141986136Y-74458799D01*
X141986610Y-74459060D01*
X142032280Y-74485747D01*
X142032541Y-74485906D01*
X142073084Y-74511240D01*
X142110795Y-74534735D01*
X142147905Y-74555853D01*
X142148108Y-74555949D01*
X142148109Y-74555949D01*
X142186508Y-74574012D01*
X142186512Y-74574014D01*
X142186787Y-74574143D01*
X142187073Y-74574243D01*
X142187076Y-74574244D01*
X142195423Y-74577156D01*
X142229815Y-74589154D01*
X142279361Y-74600434D01*
X142337799Y-74607533D01*
X142407500Y-74610000D01*
X142407500Y-74810000D01*
X142337799Y-74812466D01*
X142279361Y-74819565D01*
X142229815Y-74830845D01*
X142190837Y-74844443D01*
X142190836Y-74844443D01*
X142186787Y-74845856D01*
X142186509Y-74845987D01*
X142186506Y-74845988D01*
X142161221Y-74857882D01*
X142147905Y-74864146D01*
X142110795Y-74885264D01*
X142073084Y-74908759D01*
X142032541Y-74934093D01*
X142032280Y-74934252D01*
X141986610Y-74960939D01*
X141986136Y-74961200D01*
X141949507Y-74980230D01*
X141940076Y-74985129D01*
X141931154Y-74985902D01*
X141926572Y-74983179D01*
X141802905Y-74864254D01*
X141651269Y-74718433D01*
X141647681Y-74710229D01*
X141651269Y-74701567D01*
X141748628Y-74607942D01*
X141926572Y-74436821D01*
X141934911Y-74433556D01*
X141940076Y-74434871D01*
G37*
%TD.AperFunction*%
%TD*%
%TA.AperFunction,Conductor*%
%TO.N,+1V8*%
G36*
X137535470Y-75231375D02*
G01*
X137543927Y-75301541D01*
X137557193Y-75360979D01*
X137568279Y-75393917D01*
X137574590Y-75412669D01*
X137595437Y-75459592D01*
X137595529Y-75459767D01*
X137595531Y-75459772D01*
X137619026Y-75504670D01*
X137619056Y-75504727D01*
X137619079Y-75504769D01*
X137619082Y-75504774D01*
X137644745Y-75551014D01*
X137644805Y-75551123D01*
X137671790Y-75601362D01*
X137671998Y-75601771D01*
X137699605Y-75658898D01*
X137699889Y-75659534D01*
X137724466Y-75719211D01*
X137724448Y-75728165D01*
X137721301Y-75732516D01*
X137393136Y-76016302D01*
X137384637Y-76019121D01*
X137376341Y-76014753D01*
X137105582Y-75675730D01*
X137103097Y-75667128D01*
X137104886Y-75662097D01*
X137137501Y-75611435D01*
X137137828Y-75610953D01*
X137173122Y-75561697D01*
X137173308Y-75561446D01*
X137206428Y-75517737D01*
X137206474Y-75517676D01*
X137236789Y-75477044D01*
X137236795Y-75477035D01*
X137236861Y-75476947D01*
X137263990Y-75436561D01*
X137277057Y-75412669D01*
X137287140Y-75394234D01*
X137287142Y-75394229D01*
X137287313Y-75393917D01*
X137289053Y-75389564D01*
X137291697Y-75382951D01*
X137306328Y-75346352D01*
X137320533Y-75291202D01*
X137329424Y-75225806D01*
X137332500Y-75147500D01*
X137532500Y-75147500D01*
X137535470Y-75231375D01*
G37*
%TD.AperFunction*%
%TD*%
%TA.AperFunction,Conductor*%
%TO.N,+1V8*%
G36*
X137440933Y-74853769D02*
G01*
X137705679Y-75129072D01*
X137708944Y-75137411D01*
X137707629Y-75142576D01*
X137683700Y-75188636D01*
X137683439Y-75189110D01*
X137656762Y-75234763D01*
X137656593Y-75235041D01*
X137631259Y-75275584D01*
X137607764Y-75313295D01*
X137586646Y-75350405D01*
X137586550Y-75350608D01*
X137586550Y-75350609D01*
X137568482Y-75389018D01*
X137568479Y-75389026D01*
X137568356Y-75389287D01*
X137568208Y-75389712D01*
X137568165Y-75389833D01*
X137568165Y-75389835D01*
X137553345Y-75432315D01*
X137542065Y-75481861D01*
X137534966Y-75540299D01*
X137532500Y-75610000D01*
X137332500Y-75610000D01*
X137330033Y-75540299D01*
X137322934Y-75481861D01*
X137311654Y-75432315D01*
X137296643Y-75389287D01*
X137278353Y-75350405D01*
X137257235Y-75313295D01*
X137233740Y-75275584D01*
X137208406Y-75235041D01*
X137208237Y-75234763D01*
X137181560Y-75189110D01*
X137181299Y-75188636D01*
X137157371Y-75142576D01*
X137156599Y-75133654D01*
X137159321Y-75129072D01*
X137424067Y-74853769D01*
X137432271Y-74850181D01*
X137440933Y-74853769D01*
G37*
%TD.AperFunction*%
%TD*%
%TA.AperFunction,Conductor*%
%TO.N,Net-(C14-Pad2)*%
G36*
X139705626Y-69939232D02*
G01*
X139831070Y-70064676D01*
X139834497Y-70072949D01*
X139831505Y-70080763D01*
X139798421Y-70117632D01*
X139798417Y-70117637D01*
X139798164Y-70117919D01*
X139769003Y-70160730D01*
X139750060Y-70201803D01*
X139749928Y-70202331D01*
X139749926Y-70202335D01*
X139746055Y-70217757D01*
X139739970Y-70241996D01*
X139737369Y-70282167D01*
X139740892Y-70323173D01*
X139749175Y-70365873D01*
X139749217Y-70366035D01*
X139760848Y-70411104D01*
X139760853Y-70411123D01*
X139774562Y-70459781D01*
X139774591Y-70459887D01*
X139786771Y-70504730D01*
X139785632Y-70513612D01*
X139782144Y-70517414D01*
X139432664Y-70759593D01*
X139426434Y-70763910D01*
X139417682Y-70765805D01*
X139410153Y-70760957D01*
X139409339Y-70759593D01*
X139286295Y-70517414D01*
X139206435Y-70360232D01*
X139205743Y-70351305D01*
X139208748Y-70346509D01*
X139258031Y-70299046D01*
X139258370Y-70298734D01*
X139307654Y-70255001D01*
X139308011Y-70254697D01*
X139353011Y-70217875D01*
X139353304Y-70217643D01*
X139395884Y-70185019D01*
X139396036Y-70184905D01*
X139437933Y-70153868D01*
X139480892Y-70121795D01*
X139526507Y-70086168D01*
X139526508Y-70086168D01*
X139526571Y-70086118D01*
X139542329Y-70072949D01*
X139576649Y-70044266D01*
X139576727Y-70044201D01*
X139633113Y-69993404D01*
X139656696Y-69970576D01*
X139689216Y-69939098D01*
X139697543Y-69935807D01*
X139705626Y-69939232D01*
G37*
%TD.AperFunction*%
%TD*%
%TA.AperFunction,Conductor*%
%TO.N,Net-(C14-Pad2)*%
G36*
X140861683Y-68918553D02*
G01*
X141414162Y-69242187D01*
X141419568Y-69249325D01*
X141418343Y-69258196D01*
X141416359Y-69260714D01*
X141198327Y-69470385D01*
X140989190Y-69671502D01*
X140980851Y-69674767D01*
X140975392Y-69673294D01*
X140970427Y-69670532D01*
X140913998Y-69639142D01*
X140913160Y-69638627D01*
X140849616Y-69595802D01*
X140849223Y-69595525D01*
X140789342Y-69551436D01*
X140732373Y-69509985D01*
X140732366Y-69509980D01*
X140732242Y-69509890D01*
X140732101Y-69509800D01*
X140677317Y-69474899D01*
X140677314Y-69474897D01*
X140676990Y-69474691D01*
X140622465Y-69449507D01*
X140567544Y-69438003D01*
X140566645Y-69438096D01*
X140566643Y-69438096D01*
X140512049Y-69443748D01*
X140512047Y-69443748D01*
X140511105Y-69443846D01*
X140452026Y-69470701D01*
X140451435Y-69471185D01*
X140451436Y-69471185D01*
X140397382Y-69515514D01*
X140388812Y-69518110D01*
X140381690Y-69514740D01*
X140256258Y-69389308D01*
X140252831Y-69381035D01*
X140256478Y-69372547D01*
X140294246Y-69336713D01*
X140323869Y-69308606D01*
X140324355Y-69308172D01*
X140391757Y-69251304D01*
X140392312Y-69250864D01*
X140453133Y-69205549D01*
X140453647Y-69205187D01*
X140509846Y-69167834D01*
X140510189Y-69167614D01*
X140563740Y-69134652D01*
X140563794Y-69134619D01*
X140616496Y-69102574D01*
X140616569Y-69102528D01*
X140669948Y-69068082D01*
X140669957Y-69068076D01*
X140670090Y-69067990D01*
X140726310Y-69027413D01*
X140726464Y-69027286D01*
X140786887Y-68977425D01*
X140786900Y-68977413D01*
X140787040Y-68977298D01*
X140787174Y-68977172D01*
X140787184Y-68977163D01*
X140847748Y-68920130D01*
X140856120Y-68916953D01*
X140861683Y-68918553D01*
G37*
%TD.AperFunction*%
%TD*%
%TA.AperFunction,Conductor*%
%TO.N,GND*%
G36*
X148600674Y-57043002D02*
G01*
X148647167Y-57096658D01*
X148657271Y-57166932D01*
X148633379Y-57224565D01*
X148559385Y-57323295D01*
X148508255Y-57459684D01*
X148501500Y-57521866D01*
X148501500Y-59318134D01*
X148508255Y-59380316D01*
X148559385Y-59516705D01*
X148646739Y-59633261D01*
X148763295Y-59720615D01*
X148771704Y-59723767D01*
X148771705Y-59723768D01*
X148880960Y-59764726D01*
X148937725Y-59807367D01*
X148962425Y-59873929D01*
X148947218Y-59943278D01*
X148927825Y-59969759D01*
X148804590Y-60098717D01*
X148798104Y-60106727D01*
X148678098Y-60282649D01*
X148673000Y-60291623D01*
X148583338Y-60484783D01*
X148579775Y-60494470D01*
X148524389Y-60694183D01*
X148525912Y-60702607D01*
X148538292Y-60706000D01*
X149988000Y-60706000D01*
X150056121Y-60726002D01*
X150102614Y-60779658D01*
X150114000Y-60832000D01*
X150114000Y-61088000D01*
X150093998Y-61156121D01*
X150040342Y-61202614D01*
X149988000Y-61214000D01*
X148543225Y-61214000D01*
X148529694Y-61217973D01*
X148528257Y-61227966D01*
X148558565Y-61362446D01*
X148561645Y-61372275D01*
X148641770Y-61569603D01*
X148646413Y-61578794D01*
X148757694Y-61760388D01*
X148763777Y-61768699D01*
X148903213Y-61929667D01*
X148910580Y-61936883D01*
X149074434Y-62072916D01*
X149082881Y-62078831D01*
X149151969Y-62119203D01*
X149200693Y-62170842D01*
X149213764Y-62240625D01*
X149187033Y-62306396D01*
X149146584Y-62339752D01*
X149133607Y-62346507D01*
X149129474Y-62349610D01*
X149129471Y-62349612D01*
X149105247Y-62367800D01*
X148954965Y-62480635D01*
X148800629Y-62642138D01*
X148674743Y-62826680D01*
X148580688Y-63029305D01*
X148520989Y-63244570D01*
X148497251Y-63466695D01*
X148497548Y-63471848D01*
X148497548Y-63471851D01*
X148503011Y-63566590D01*
X148510110Y-63689715D01*
X148511247Y-63694761D01*
X148511248Y-63694767D01*
X148531119Y-63782939D01*
X148559222Y-63907639D01*
X148643266Y-64114616D01*
X148681828Y-64177543D01*
X148757291Y-64300688D01*
X148759987Y-64305088D01*
X148906250Y-64473938D01*
X149078126Y-64616632D01*
X149117893Y-64639870D01*
X149151445Y-64659476D01*
X149200169Y-64711114D01*
X149213240Y-64780897D01*
X149186509Y-64846669D01*
X149146055Y-64880027D01*
X149133607Y-64886507D01*
X149129474Y-64889610D01*
X149129471Y-64889612D01*
X148959100Y-65017530D01*
X148954965Y-65020635D01*
X148800629Y-65182138D01*
X148674743Y-65366680D01*
X148659003Y-65400590D01*
X148584230Y-65561675D01*
X148580688Y-65569305D01*
X148520989Y-65784570D01*
X148497251Y-66006695D01*
X148497548Y-66011848D01*
X148497548Y-66011851D01*
X148503011Y-66106590D01*
X148510110Y-66229715D01*
X148511247Y-66234761D01*
X148511248Y-66234767D01*
X148529362Y-66315141D01*
X148559222Y-66447639D01*
X148643266Y-66654616D01*
X148681828Y-66717543D01*
X148757291Y-66840688D01*
X148759987Y-66845088D01*
X148906250Y-67013938D01*
X149078126Y-67156632D01*
X149148595Y-67197811D01*
X149151445Y-67199476D01*
X149200169Y-67251114D01*
X149213240Y-67320897D01*
X149186509Y-67386669D01*
X149146055Y-67420027D01*
X149133607Y-67426507D01*
X149129474Y-67429610D01*
X149129471Y-67429612D01*
X149105247Y-67447800D01*
X148954965Y-67560635D01*
X148800629Y-67722138D01*
X148674743Y-67906680D01*
X148580688Y-68109305D01*
X148520989Y-68324570D01*
X148497251Y-68546695D01*
X148497548Y-68551848D01*
X148497548Y-68551851D01*
X148499171Y-68580000D01*
X148510110Y-68769715D01*
X148511247Y-68774761D01*
X148511248Y-68774767D01*
X148531096Y-68862837D01*
X148559222Y-68987639D01*
X148643266Y-69194616D01*
X148759987Y-69385088D01*
X148906250Y-69553938D01*
X149053610Y-69676279D01*
X149062121Y-69683344D01*
X149078126Y-69696632D01*
X149113345Y-69717212D01*
X149151445Y-69739476D01*
X149200169Y-69791114D01*
X149213240Y-69860897D01*
X149186509Y-69926669D01*
X149146055Y-69960027D01*
X149133607Y-69966507D01*
X149129474Y-69969610D01*
X149129471Y-69969612D01*
X149026143Y-70047193D01*
X148954965Y-70100635D01*
X148951393Y-70104373D01*
X148868559Y-70191054D01*
X148800629Y-70262138D01*
X148674743Y-70446680D01*
X148659003Y-70480590D01*
X148603575Y-70600000D01*
X148580688Y-70649305D01*
X148520989Y-70864570D01*
X148497251Y-71086695D01*
X148497548Y-71091848D01*
X148497548Y-71091851D01*
X148506321Y-71244000D01*
X148510110Y-71309715D01*
X148511247Y-71314761D01*
X148511248Y-71314767D01*
X148531119Y-71402939D01*
X148559222Y-71527639D01*
X148643266Y-71734616D01*
X148679508Y-71793757D01*
X148757291Y-71920688D01*
X148759987Y-71925088D01*
X148906250Y-72093938D01*
X149078126Y-72236632D01*
X149119014Y-72260525D01*
X149151955Y-72279774D01*
X149200679Y-72331412D01*
X149213750Y-72401195D01*
X149187019Y-72466967D01*
X149146562Y-72500327D01*
X149138457Y-72504546D01*
X149129738Y-72510036D01*
X148959433Y-72637905D01*
X148951726Y-72644748D01*
X148804590Y-72798717D01*
X148798104Y-72806727D01*
X148678098Y-72982649D01*
X148673000Y-72991623D01*
X148583338Y-73184783D01*
X148579775Y-73194470D01*
X148524389Y-73394183D01*
X148525912Y-73402607D01*
X148538292Y-73406000D01*
X149988000Y-73406000D01*
X150056121Y-73426002D01*
X150102614Y-73479658D01*
X150114000Y-73532000D01*
X150114000Y-73788000D01*
X150093998Y-73856121D01*
X150040342Y-73902614D01*
X149988000Y-73914000D01*
X148543225Y-73914000D01*
X148529694Y-73917973D01*
X148528257Y-73927966D01*
X148558565Y-74062446D01*
X148561645Y-74072275D01*
X148641770Y-74269603D01*
X148646413Y-74278794D01*
X148757694Y-74460388D01*
X148763777Y-74468699D01*
X148903213Y-74629667D01*
X148910580Y-74636883D01*
X149074434Y-74772916D01*
X149082881Y-74778831D01*
X149151969Y-74819203D01*
X149200693Y-74870842D01*
X149213764Y-74940625D01*
X149187033Y-75006396D01*
X149146584Y-75039752D01*
X149133607Y-75046507D01*
X149129474Y-75049610D01*
X149129471Y-75049612D01*
X148959100Y-75177530D01*
X148954965Y-75180635D01*
X148951393Y-75184373D01*
X148857059Y-75283088D01*
X148800629Y-75342138D01*
X148674743Y-75526680D01*
X148580688Y-75729305D01*
X148520989Y-75944570D01*
X148497251Y-76166695D01*
X148497548Y-76171848D01*
X148497548Y-76171851D01*
X148507917Y-76351675D01*
X148510110Y-76389715D01*
X148511247Y-76394761D01*
X148511248Y-76394767D01*
X148531119Y-76482939D01*
X148559222Y-76607639D01*
X148643266Y-76814616D01*
X148681828Y-76877543D01*
X148757291Y-77000688D01*
X148759987Y-77005088D01*
X148906250Y-77173938D01*
X149078126Y-77316632D01*
X149138095Y-77351675D01*
X149151445Y-77359476D01*
X149200169Y-77411114D01*
X149213240Y-77480897D01*
X149186509Y-77546669D01*
X149146055Y-77580027D01*
X149133607Y-77586507D01*
X149129474Y-77589610D01*
X149129471Y-77589612D01*
X148971127Y-77708500D01*
X148954965Y-77720635D01*
X148800629Y-77882138D01*
X148674743Y-78066680D01*
X148580688Y-78269305D01*
X148520989Y-78484570D01*
X148497251Y-78706695D01*
X148497548Y-78711848D01*
X148497548Y-78711851D01*
X148503011Y-78806590D01*
X148510110Y-78929715D01*
X148511247Y-78934761D01*
X148511248Y-78934767D01*
X148531119Y-79022939D01*
X148559222Y-79147639D01*
X148643266Y-79354616D01*
X148681828Y-79417543D01*
X148757291Y-79540688D01*
X148759987Y-79545088D01*
X148906250Y-79713938D01*
X149078126Y-79856632D01*
X149148595Y-79897811D01*
X149151445Y-79899476D01*
X149200169Y-79951114D01*
X149213240Y-80020897D01*
X149186509Y-80086669D01*
X149146055Y-80120027D01*
X149133607Y-80126507D01*
X149129474Y-80129610D01*
X149129471Y-80129612D01*
X149105247Y-80147800D01*
X148954965Y-80260635D01*
X148800629Y-80422138D01*
X148674743Y-80606680D01*
X148580688Y-80809305D01*
X148520989Y-81024570D01*
X148497251Y-81246695D01*
X148510110Y-81469715D01*
X148511247Y-81474761D01*
X148511248Y-81474767D01*
X148524597Y-81534000D01*
X148559222Y-81687639D01*
X148643266Y-81894616D01*
X148759987Y-82085088D01*
X148906250Y-82253938D01*
X149078126Y-82396632D01*
X149148595Y-82437811D01*
X149151445Y-82439476D01*
X149200169Y-82491114D01*
X149213240Y-82560897D01*
X149186509Y-82626669D01*
X149146055Y-82660027D01*
X149133607Y-82666507D01*
X149129474Y-82669610D01*
X149129471Y-82669612D01*
X149105247Y-82687800D01*
X148954965Y-82800635D01*
X148800629Y-82962138D01*
X148674743Y-83146680D01*
X148580688Y-83349305D01*
X148520989Y-83564570D01*
X148497251Y-83786695D01*
X148497548Y-83791848D01*
X148497548Y-83791851D01*
X148503011Y-83886590D01*
X148510110Y-84009715D01*
X148511247Y-84014761D01*
X148511248Y-84014767D01*
X148531119Y-84102939D01*
X148559222Y-84227639D01*
X148643266Y-84434616D01*
X148681828Y-84497543D01*
X148757291Y-84620688D01*
X148759987Y-84625088D01*
X148906250Y-84793938D01*
X149078126Y-84936632D01*
X149148595Y-84977811D01*
X149151445Y-84979476D01*
X149200169Y-85031114D01*
X149213240Y-85100897D01*
X149186509Y-85166669D01*
X149146055Y-85200027D01*
X149133607Y-85206507D01*
X149129474Y-85209610D01*
X149129471Y-85209612D01*
X149105247Y-85227800D01*
X148954965Y-85340635D01*
X148800629Y-85502138D01*
X148674743Y-85686680D01*
X148580688Y-85889305D01*
X148520989Y-86104570D01*
X148497251Y-86326695D01*
X148497548Y-86331848D01*
X148497548Y-86331851D01*
X148503011Y-86426590D01*
X148510110Y-86549715D01*
X148511247Y-86554761D01*
X148511248Y-86554767D01*
X148531119Y-86642939D01*
X148559222Y-86767639D01*
X148643266Y-86974616D01*
X148681828Y-87037543D01*
X148757291Y-87160688D01*
X148759987Y-87165088D01*
X148906250Y-87333938D01*
X149078126Y-87476632D01*
X149148595Y-87517811D01*
X149151445Y-87519476D01*
X149200169Y-87571114D01*
X149213240Y-87640897D01*
X149186509Y-87706669D01*
X149146055Y-87740027D01*
X149133607Y-87746507D01*
X149129474Y-87749610D01*
X149129471Y-87749612D01*
X149105247Y-87767800D01*
X148954965Y-87880635D01*
X148800629Y-88042138D01*
X148674743Y-88226680D01*
X148580688Y-88429305D01*
X148520989Y-88644570D01*
X148497251Y-88866695D01*
X148497548Y-88871848D01*
X148497548Y-88871851D01*
X148503011Y-88966590D01*
X148510110Y-89089715D01*
X148511247Y-89094761D01*
X148511248Y-89094767D01*
X148531119Y-89182939D01*
X148559222Y-89307639D01*
X148643266Y-89514616D01*
X148681828Y-89577543D01*
X148757291Y-89700688D01*
X148759987Y-89705088D01*
X148906250Y-89873938D01*
X149078126Y-90016632D01*
X149148595Y-90057811D01*
X149151445Y-90059476D01*
X149200169Y-90111114D01*
X149213240Y-90180897D01*
X149186509Y-90246669D01*
X149146055Y-90280027D01*
X149133607Y-90286507D01*
X149129474Y-90289610D01*
X149129471Y-90289612D01*
X149105247Y-90307800D01*
X148954965Y-90420635D01*
X148800629Y-90582138D01*
X148674743Y-90766680D01*
X148580688Y-90969305D01*
X148520989Y-91184570D01*
X148497251Y-91406695D01*
X148497548Y-91411848D01*
X148497548Y-91411851D01*
X148503011Y-91506590D01*
X148510110Y-91629715D01*
X148511247Y-91634761D01*
X148511248Y-91634767D01*
X148531119Y-91722939D01*
X148559222Y-91847639D01*
X148643266Y-92054616D01*
X148681828Y-92117543D01*
X148757291Y-92240688D01*
X148759987Y-92245088D01*
X148906250Y-92413938D01*
X149078126Y-92556632D01*
X149139744Y-92592639D01*
X149156127Y-92602212D01*
X149204851Y-92653851D01*
X149217922Y-92723634D01*
X149191191Y-92789405D01*
X149133144Y-92830284D01*
X149092557Y-92837000D01*
X125234632Y-92837000D01*
X125166511Y-92816998D01*
X125120018Y-92763342D01*
X125109914Y-92693068D01*
X125139408Y-92628488D01*
X125161464Y-92608421D01*
X125186618Y-92590479D01*
X125339860Y-92481173D01*
X125498096Y-92323489D01*
X125557594Y-92240689D01*
X125625435Y-92146277D01*
X125628453Y-92142077D01*
X125640579Y-92117543D01*
X125725136Y-91946453D01*
X125725137Y-91946451D01*
X125727430Y-91941811D01*
X125792370Y-91728069D01*
X125821529Y-91506590D01*
X125823156Y-91440000D01*
X125804852Y-91217361D01*
X125750431Y-91000702D01*
X125661354Y-90795840D01*
X125540014Y-90608277D01*
X125389670Y-90443051D01*
X125385619Y-90439852D01*
X125385615Y-90439848D01*
X125218414Y-90307800D01*
X125218410Y-90307798D01*
X125214359Y-90304598D01*
X125173053Y-90281796D01*
X125123084Y-90231364D01*
X125108312Y-90161921D01*
X125133428Y-90095516D01*
X125160780Y-90068909D01*
X125204603Y-90037650D01*
X125339860Y-89941173D01*
X125498096Y-89783489D01*
X125557594Y-89700689D01*
X125625435Y-89606277D01*
X125628453Y-89602077D01*
X125640579Y-89577543D01*
X125725136Y-89406453D01*
X125725137Y-89406451D01*
X125727430Y-89401811D01*
X125792370Y-89188069D01*
X125821529Y-88966590D01*
X125823156Y-88900000D01*
X125804852Y-88677361D01*
X125750431Y-88460702D01*
X125661354Y-88255840D01*
X125540014Y-88068277D01*
X125389670Y-87903051D01*
X125385619Y-87899852D01*
X125385615Y-87899848D01*
X125218414Y-87767800D01*
X125218410Y-87767798D01*
X125214359Y-87764598D01*
X125173053Y-87741796D01*
X125123084Y-87691364D01*
X125108312Y-87621921D01*
X125133428Y-87555516D01*
X125160780Y-87528909D01*
X125204603Y-87497650D01*
X125339860Y-87401173D01*
X125498096Y-87243489D01*
X125557594Y-87160689D01*
X125625435Y-87066277D01*
X125628453Y-87062077D01*
X125640579Y-87037543D01*
X125725136Y-86866453D01*
X125725137Y-86866451D01*
X125727430Y-86861811D01*
X125792370Y-86648069D01*
X125821529Y-86426590D01*
X125823156Y-86360000D01*
X125804852Y-86137361D01*
X125750431Y-85920702D01*
X125661354Y-85715840D01*
X125540014Y-85528277D01*
X125389670Y-85363051D01*
X125385619Y-85359852D01*
X125385615Y-85359848D01*
X125218414Y-85227800D01*
X125218410Y-85227798D01*
X125214359Y-85224598D01*
X125173053Y-85201796D01*
X125123084Y-85151364D01*
X125108312Y-85081921D01*
X125133428Y-85015516D01*
X125160780Y-84988909D01*
X125204603Y-84957650D01*
X125339860Y-84861173D01*
X125498096Y-84703489D01*
X125557594Y-84620689D01*
X125625435Y-84526277D01*
X125628453Y-84522077D01*
X125640579Y-84497543D01*
X125725136Y-84326453D01*
X125725137Y-84326451D01*
X125727430Y-84321811D01*
X125792370Y-84108069D01*
X125821529Y-83886590D01*
X125823156Y-83820000D01*
X125804852Y-83597361D01*
X125750431Y-83380702D01*
X125661354Y-83175840D01*
X125540014Y-82988277D01*
X125389670Y-82823051D01*
X125385619Y-82819852D01*
X125385615Y-82819848D01*
X125218414Y-82687800D01*
X125218410Y-82687798D01*
X125214359Y-82684598D01*
X125172569Y-82661529D01*
X125122598Y-82611097D01*
X125107826Y-82541654D01*
X125132942Y-82475248D01*
X125160294Y-82448641D01*
X125335328Y-82323792D01*
X125343200Y-82317139D01*
X125494052Y-82166812D01*
X125500730Y-82158965D01*
X125625003Y-81986020D01*
X125630313Y-81977183D01*
X125724670Y-81786267D01*
X125728469Y-81776672D01*
X125790377Y-81572910D01*
X125792555Y-81562837D01*
X125793986Y-81551962D01*
X125791775Y-81537778D01*
X125778617Y-81534000D01*
X124332000Y-81534000D01*
X124263879Y-81513998D01*
X124217386Y-81460342D01*
X124206000Y-81408000D01*
X124206000Y-81152000D01*
X124226002Y-81083879D01*
X124279658Y-81037386D01*
X124332000Y-81026000D01*
X125778344Y-81026000D01*
X125791875Y-81022027D01*
X125793180Y-81012947D01*
X125751214Y-80845875D01*
X125747894Y-80836124D01*
X125662972Y-80640814D01*
X125658105Y-80631739D01*
X125542426Y-80452926D01*
X125536136Y-80444757D01*
X125392806Y-80287240D01*
X125385273Y-80280215D01*
X125218139Y-80148222D01*
X125209556Y-80142520D01*
X125172602Y-80122120D01*
X125122631Y-80071687D01*
X125107859Y-80002245D01*
X125132975Y-79935839D01*
X125160327Y-79909232D01*
X125183797Y-79892491D01*
X125339860Y-79781173D01*
X125498096Y-79623489D01*
X125557594Y-79540689D01*
X125625435Y-79446277D01*
X125628453Y-79442077D01*
X125640579Y-79417543D01*
X125725136Y-79246453D01*
X125725137Y-79246451D01*
X125727430Y-79241811D01*
X125792370Y-79028069D01*
X125821529Y-78806590D01*
X125823156Y-78740000D01*
X125804852Y-78517361D01*
X125750431Y-78300702D01*
X125661354Y-78095840D01*
X125540014Y-77908277D01*
X125389670Y-77743051D01*
X125385619Y-77739852D01*
X125385615Y-77739848D01*
X125218414Y-77607800D01*
X125218410Y-77607798D01*
X125214359Y-77604598D01*
X125173053Y-77581796D01*
X125123084Y-77531364D01*
X125108312Y-77461921D01*
X125133428Y-77395516D01*
X125160780Y-77368909D01*
X125204603Y-77337650D01*
X125339860Y-77241173D01*
X125498096Y-77083489D01*
X125541626Y-77022911D01*
X125625435Y-76906277D01*
X125628453Y-76902077D01*
X125640579Y-76877543D01*
X125654191Y-76850000D01*
X132336771Y-76850000D01*
X132337461Y-76856565D01*
X132338060Y-76862259D01*
X132355635Y-77029475D01*
X132411401Y-77201107D01*
X132501633Y-77357393D01*
X132506051Y-77362300D01*
X132506052Y-77362301D01*
X132595750Y-77461921D01*
X132622387Y-77491504D01*
X132627729Y-77495385D01*
X132627731Y-77495387D01*
X132763043Y-77593697D01*
X132768385Y-77597578D01*
X132774413Y-77600262D01*
X132774415Y-77600263D01*
X132927217Y-77668295D01*
X132933248Y-77670980D01*
X133021508Y-77689740D01*
X133103311Y-77707128D01*
X133103315Y-77707128D01*
X133109768Y-77708500D01*
X133290232Y-77708500D01*
X133296685Y-77707128D01*
X133296689Y-77707128D01*
X133378492Y-77689740D01*
X133466752Y-77670980D01*
X133472783Y-77668295D01*
X133625585Y-77600263D01*
X133625587Y-77600262D01*
X133631615Y-77597578D01*
X133636957Y-77593697D01*
X133772269Y-77495387D01*
X133772271Y-77495385D01*
X133777613Y-77491504D01*
X133804250Y-77461921D01*
X133893948Y-77362301D01*
X133893949Y-77362300D01*
X133898367Y-77357393D01*
X133988599Y-77201107D01*
X134044365Y-77029475D01*
X134061941Y-76862259D01*
X134062539Y-76856565D01*
X134063229Y-76850000D01*
X134044365Y-76670525D01*
X133988599Y-76498893D01*
X133898367Y-76342607D01*
X133777613Y-76208496D01*
X133765920Y-76200000D01*
X133636957Y-76106303D01*
X133636956Y-76106302D01*
X133631615Y-76102422D01*
X133625587Y-76099738D01*
X133625585Y-76099737D01*
X133472783Y-76031705D01*
X133472781Y-76031705D01*
X133466752Y-76029020D01*
X133378492Y-76010260D01*
X133296689Y-75992872D01*
X133296685Y-75992872D01*
X133290232Y-75991500D01*
X133109768Y-75991500D01*
X133103315Y-75992872D01*
X133103311Y-75992872D01*
X133021508Y-76010260D01*
X132933248Y-76029020D01*
X132927219Y-76031704D01*
X132927217Y-76031705D01*
X132774416Y-76099737D01*
X132774414Y-76099738D01*
X132768386Y-76102422D01*
X132763045Y-76106302D01*
X132763044Y-76106303D01*
X132627731Y-76204613D01*
X132627729Y-76204615D01*
X132622387Y-76208496D01*
X132501633Y-76342607D01*
X132411401Y-76498893D01*
X132355635Y-76670525D01*
X132336771Y-76850000D01*
X125654191Y-76850000D01*
X125725136Y-76706453D01*
X125725137Y-76706451D01*
X125727430Y-76701811D01*
X125787172Y-76505178D01*
X125790865Y-76493023D01*
X125790865Y-76493021D01*
X125792370Y-76488069D01*
X125821529Y-76266590D01*
X125821611Y-76263240D01*
X125823074Y-76203365D01*
X125823074Y-76203361D01*
X125823156Y-76200000D01*
X125804852Y-75977361D01*
X125772861Y-75850000D01*
X136536771Y-75850000D01*
X136555635Y-76029475D01*
X136611401Y-76201107D01*
X136701633Y-76357393D01*
X136706051Y-76362300D01*
X136706052Y-76362301D01*
X136730736Y-76389715D01*
X136822387Y-76491504D01*
X136827729Y-76495385D01*
X136827731Y-76495387D01*
X136963043Y-76593697D01*
X136968385Y-76597578D01*
X136974413Y-76600262D01*
X136974415Y-76600263D01*
X137118123Y-76664246D01*
X137133248Y-76670980D01*
X137221508Y-76689740D01*
X137303311Y-76707128D01*
X137303315Y-76707128D01*
X137309768Y-76708500D01*
X137490232Y-76708500D01*
X137496685Y-76707128D01*
X137496689Y-76707128D01*
X137578492Y-76689740D01*
X137666752Y-76670980D01*
X137681877Y-76664246D01*
X137825585Y-76600263D01*
X137825587Y-76600262D01*
X137831615Y-76597578D01*
X137836957Y-76593697D01*
X137972269Y-76495387D01*
X137972271Y-76495385D01*
X137977613Y-76491504D01*
X138069264Y-76389715D01*
X138093948Y-76362301D01*
X138093949Y-76362300D01*
X138098367Y-76357393D01*
X138188599Y-76201107D01*
X138244365Y-76029475D01*
X138256908Y-75910138D01*
X138286993Y-75840797D01*
X138311829Y-75812135D01*
X138313500Y-75804452D01*
X138313500Y-75799885D01*
X138821500Y-75799885D01*
X138825975Y-75815124D01*
X138827365Y-75816329D01*
X138834186Y-75817813D01*
X138835888Y-75817734D01*
X138895046Y-75812298D01*
X138908096Y-75809685D01*
X139047589Y-75765971D01*
X139061334Y-75759765D01*
X139185604Y-75684504D01*
X139197473Y-75675197D01*
X139300197Y-75572473D01*
X139309504Y-75560604D01*
X139384765Y-75436334D01*
X139390971Y-75422589D01*
X139434687Y-75283088D01*
X139437009Y-75271497D01*
X139434194Y-75257165D01*
X139422298Y-75254000D01*
X138839615Y-75254000D01*
X138824376Y-75258475D01*
X138823171Y-75259865D01*
X138821500Y-75267548D01*
X138821500Y-75799885D01*
X138313500Y-75799885D01*
X138313500Y-74980302D01*
X139792752Y-74980302D01*
X139795313Y-74993088D01*
X139839029Y-75132589D01*
X139845235Y-75146334D01*
X139920496Y-75270604D01*
X139929803Y-75282473D01*
X140032527Y-75385197D01*
X140044396Y-75394504D01*
X140168666Y-75469765D01*
X140182411Y-75475971D01*
X140321904Y-75519685D01*
X140334954Y-75522298D01*
X140391962Y-75527537D01*
X140405624Y-75523525D01*
X140406829Y-75522135D01*
X140408500Y-75514452D01*
X140408500Y-75509885D01*
X140916500Y-75509885D01*
X140920975Y-75525124D01*
X140922365Y-75526329D01*
X140929186Y-75527813D01*
X140930888Y-75527734D01*
X140990046Y-75522298D01*
X141003096Y-75519685D01*
X141142589Y-75475971D01*
X141156331Y-75469766D01*
X141164243Y-75464974D01*
X141232872Y-75446793D01*
X141294791Y-75464973D01*
X141309955Y-75474157D01*
X141317202Y-75476428D01*
X141317204Y-75476429D01*
X141377320Y-75495268D01*
X141463199Y-75522181D01*
X141531968Y-75528500D01*
X142063032Y-75528500D01*
X142131801Y-75522181D01*
X142146489Y-75517578D01*
X142160859Y-75513075D01*
X142231844Y-75511791D01*
X142249785Y-75518201D01*
X142413248Y-75590980D01*
X142501508Y-75609740D01*
X142583311Y-75627128D01*
X142583315Y-75627128D01*
X142589768Y-75628500D01*
X142770232Y-75628500D01*
X142776685Y-75627128D01*
X142776689Y-75627128D01*
X142858492Y-75609740D01*
X142946752Y-75590980D01*
X142952783Y-75588295D01*
X143105585Y-75520263D01*
X143105587Y-75520262D01*
X143111615Y-75517578D01*
X143119580Y-75511791D01*
X143252269Y-75415387D01*
X143252271Y-75415385D01*
X143257613Y-75411504D01*
X143272920Y-75394504D01*
X143373948Y-75282301D01*
X143373949Y-75282300D01*
X143378367Y-75277393D01*
X143468599Y-75121107D01*
X143505782Y-75006669D01*
X143522325Y-74955754D01*
X143522325Y-74955753D01*
X143524365Y-74949475D01*
X143543229Y-74770000D01*
X143524365Y-74590525D01*
X143517682Y-74569955D01*
X143471302Y-74427212D01*
X143468599Y-74418893D01*
X143378367Y-74262607D01*
X143309818Y-74186475D01*
X143262035Y-74133407D01*
X143262034Y-74133406D01*
X143257613Y-74128496D01*
X143178450Y-74070980D01*
X143116957Y-74026303D01*
X143116956Y-74026302D01*
X143111615Y-74022422D01*
X143105587Y-74019738D01*
X143105585Y-74019737D01*
X142952783Y-73951705D01*
X142952781Y-73951705D01*
X142946752Y-73949020D01*
X142858492Y-73930260D01*
X142776689Y-73912872D01*
X142776685Y-73912872D01*
X142770232Y-73911500D01*
X142589768Y-73911500D01*
X142583315Y-73912872D01*
X142583311Y-73912872D01*
X142501508Y-73930260D01*
X142413248Y-73949020D01*
X142402568Y-73953775D01*
X142332203Y-73963213D01*
X142299224Y-73951232D01*
X142298469Y-73952905D01*
X142291540Y-73949776D01*
X142285045Y-73945843D01*
X142277798Y-73943572D01*
X142277796Y-73943571D01*
X142183434Y-73914000D01*
X142131801Y-73897819D01*
X142063032Y-73891500D01*
X141531968Y-73891500D01*
X141463199Y-73897819D01*
X141411566Y-73914000D01*
X141317204Y-73943571D01*
X141317202Y-73943572D01*
X141309955Y-73945843D01*
X141303456Y-73949779D01*
X141294790Y-73955027D01*
X141226161Y-73973207D01*
X141164243Y-73955026D01*
X141156331Y-73950234D01*
X141142589Y-73944029D01*
X141003096Y-73900315D01*
X140990046Y-73897702D01*
X140933038Y-73892463D01*
X140919376Y-73896475D01*
X140918171Y-73897865D01*
X140916500Y-73905548D01*
X140916500Y-75509885D01*
X140408500Y-75509885D01*
X140408500Y-74982115D01*
X140404025Y-74966876D01*
X140402635Y-74965671D01*
X140394952Y-74964000D01*
X139809342Y-74964000D01*
X139794797Y-74968271D01*
X139792752Y-74980302D01*
X138313500Y-74980302D01*
X138313500Y-74727885D01*
X138821500Y-74727885D01*
X138825975Y-74743124D01*
X138827365Y-74744329D01*
X138835048Y-74746000D01*
X139420658Y-74746000D01*
X139435203Y-74741729D01*
X139437248Y-74729698D01*
X139434687Y-74716912D01*
X139390971Y-74577411D01*
X139384765Y-74563666D01*
X139309504Y-74439396D01*
X139308804Y-74438503D01*
X139792991Y-74438503D01*
X139795806Y-74452835D01*
X139807702Y-74456000D01*
X140390385Y-74456000D01*
X140405624Y-74451525D01*
X140406829Y-74450135D01*
X140408500Y-74442452D01*
X140408500Y-73910115D01*
X140404025Y-73894876D01*
X140402635Y-73893671D01*
X140395814Y-73892187D01*
X140394112Y-73892266D01*
X140334954Y-73897702D01*
X140321904Y-73900315D01*
X140182411Y-73944029D01*
X140168666Y-73950235D01*
X140044396Y-74025496D01*
X140032527Y-74034803D01*
X139929803Y-74137527D01*
X139920496Y-74149396D01*
X139845235Y-74273666D01*
X139839029Y-74287411D01*
X139795313Y-74426912D01*
X139792991Y-74438503D01*
X139308804Y-74438503D01*
X139300197Y-74427527D01*
X139197473Y-74324803D01*
X139185604Y-74315496D01*
X139061334Y-74240235D01*
X139047589Y-74234029D01*
X138908096Y-74190315D01*
X138895046Y-74187702D01*
X138838038Y-74182463D01*
X138824376Y-74186475D01*
X138823171Y-74187865D01*
X138821500Y-74195548D01*
X138821500Y-74727885D01*
X138313500Y-74727885D01*
X138313500Y-74200115D01*
X138309025Y-74184876D01*
X138307635Y-74183671D01*
X138300814Y-74182187D01*
X138299112Y-74182266D01*
X138239954Y-74187702D01*
X138226904Y-74190315D01*
X138087411Y-74234029D01*
X138073669Y-74240234D01*
X138065757Y-74245026D01*
X137997128Y-74263207D01*
X137935210Y-74245027D01*
X137926544Y-74239779D01*
X137926542Y-74239778D01*
X137920045Y-74235843D01*
X137912798Y-74233572D01*
X137912796Y-74233571D01*
X137806037Y-74200115D01*
X137766801Y-74187819D01*
X137698032Y-74181500D01*
X137166968Y-74181500D01*
X137098199Y-74187819D01*
X137058963Y-74200115D01*
X136952204Y-74233571D01*
X136952202Y-74233572D01*
X136944955Y-74235843D01*
X136807590Y-74319034D01*
X136694034Y-74432590D01*
X136610843Y-74569955D01*
X136608572Y-74577202D01*
X136608571Y-74577204D01*
X136592130Y-74629667D01*
X136562819Y-74723199D01*
X136556500Y-74791968D01*
X136556500Y-75208032D01*
X136562819Y-75276801D01*
X136610075Y-75427594D01*
X136609674Y-75504208D01*
X136555635Y-75670525D01*
X136536771Y-75850000D01*
X125772861Y-75850000D01*
X125750431Y-75760702D01*
X125661354Y-75555840D01*
X125602570Y-75464974D01*
X125542822Y-75372617D01*
X125542820Y-75372614D01*
X125540014Y-75368277D01*
X125389670Y-75203051D01*
X125385619Y-75199852D01*
X125385615Y-75199848D01*
X125218414Y-75067800D01*
X125218410Y-75067798D01*
X125214359Y-75064598D01*
X125173053Y-75041796D01*
X125123084Y-74991364D01*
X125108312Y-74921921D01*
X125133428Y-74855516D01*
X125160780Y-74828909D01*
X125216622Y-74789077D01*
X125339860Y-74701173D01*
X125498096Y-74543489D01*
X125564179Y-74451525D01*
X125625435Y-74366277D01*
X125628453Y-74362077D01*
X125654661Y-74309050D01*
X125725136Y-74166453D01*
X125725137Y-74166451D01*
X125727430Y-74161811D01*
X125784637Y-73973520D01*
X125790865Y-73953023D01*
X125790865Y-73953021D01*
X125792370Y-73948069D01*
X125821529Y-73726590D01*
X125823156Y-73660000D01*
X125804852Y-73437361D01*
X125757790Y-73250000D01*
X129786771Y-73250000D01*
X129805635Y-73429475D01*
X129861401Y-73601107D01*
X129951633Y-73757393D01*
X129956051Y-73762300D01*
X129956052Y-73762301D01*
X130034760Y-73849715D01*
X130072387Y-73891504D01*
X130077729Y-73895385D01*
X130077731Y-73895387D01*
X130180291Y-73969901D01*
X130218385Y-73997578D01*
X130224413Y-74000262D01*
X130224415Y-74000263D01*
X130282902Y-74026303D01*
X130383248Y-74070980D01*
X130471508Y-74089740D01*
X130553311Y-74107128D01*
X130553315Y-74107128D01*
X130559768Y-74108500D01*
X130740232Y-74108500D01*
X130746685Y-74107128D01*
X130746689Y-74107128D01*
X130828492Y-74089740D01*
X130916752Y-74070980D01*
X131017098Y-74026303D01*
X131075585Y-74000263D01*
X131075587Y-74000262D01*
X131081615Y-73997578D01*
X131119709Y-73969901D01*
X131222269Y-73895387D01*
X131222271Y-73895385D01*
X131227613Y-73891504D01*
X131265240Y-73849715D01*
X131343948Y-73762301D01*
X131343949Y-73762300D01*
X131348367Y-73757393D01*
X131438599Y-73601107D01*
X131494365Y-73429475D01*
X131513229Y-73250000D01*
X131494365Y-73070525D01*
X131477028Y-73017165D01*
X131440641Y-72905178D01*
X131438599Y-72898893D01*
X131434878Y-72892447D01*
X131379673Y-72796830D01*
X131348367Y-72742607D01*
X131260255Y-72644748D01*
X131232035Y-72613407D01*
X131232034Y-72613406D01*
X131227613Y-72608496D01*
X131109278Y-72522520D01*
X131086957Y-72506303D01*
X131086956Y-72506302D01*
X131081615Y-72502422D01*
X131075587Y-72499738D01*
X131075585Y-72499737D01*
X130922783Y-72431705D01*
X130922781Y-72431705D01*
X130916752Y-72429020D01*
X130796016Y-72403357D01*
X130746689Y-72392872D01*
X130746685Y-72392872D01*
X130740232Y-72391500D01*
X130559768Y-72391500D01*
X130553315Y-72392872D01*
X130553311Y-72392872D01*
X130503984Y-72403357D01*
X130383248Y-72429020D01*
X130377219Y-72431704D01*
X130377217Y-72431705D01*
X130224416Y-72499737D01*
X130224414Y-72499738D01*
X130218386Y-72502422D01*
X130213045Y-72506302D01*
X130213044Y-72506303D01*
X130077731Y-72604613D01*
X130077729Y-72604615D01*
X130072387Y-72608496D01*
X130067966Y-72613406D01*
X130067965Y-72613407D01*
X130039746Y-72644748D01*
X129951633Y-72742607D01*
X129920327Y-72796830D01*
X129865123Y-72892447D01*
X129861401Y-72898893D01*
X129859359Y-72905178D01*
X129822973Y-73017165D01*
X129805635Y-73070525D01*
X129786771Y-73250000D01*
X125757790Y-73250000D01*
X125750431Y-73220702D01*
X125661354Y-73015840D01*
X125617074Y-72947393D01*
X125542822Y-72832617D01*
X125542820Y-72832614D01*
X125540014Y-72828277D01*
X125389670Y-72663051D01*
X125385619Y-72659852D01*
X125385615Y-72659848D01*
X125218414Y-72527800D01*
X125218410Y-72527798D01*
X125214359Y-72524598D01*
X125173053Y-72501796D01*
X125123084Y-72451364D01*
X125108312Y-72381921D01*
X125133428Y-72315516D01*
X125160780Y-72288909D01*
X125228340Y-72240719D01*
X125339860Y-72161173D01*
X125498096Y-72003489D01*
X125557594Y-71920689D01*
X125625435Y-71826277D01*
X125628453Y-71822077D01*
X125640108Y-71798496D01*
X125725136Y-71626453D01*
X125725137Y-71626451D01*
X125727430Y-71621811D01*
X125786830Y-71426304D01*
X125790865Y-71413023D01*
X125790865Y-71413021D01*
X125792370Y-71408069D01*
X125821529Y-71186590D01*
X125821926Y-71170342D01*
X125823074Y-71123365D01*
X125823074Y-71123361D01*
X125823156Y-71120000D01*
X125804852Y-70897361D01*
X125750431Y-70680702D01*
X125715341Y-70600000D01*
X138586771Y-70600000D01*
X138587461Y-70606565D01*
X138599642Y-70722452D01*
X138605635Y-70779475D01*
X138661401Y-70951107D01*
X138664704Y-70956829D01*
X138664705Y-70956830D01*
X138725309Y-71061798D01*
X138742047Y-71130793D01*
X138736023Y-71163732D01*
X138711157Y-71240264D01*
X138692293Y-71419739D01*
X138711157Y-71599214D01*
X138713197Y-71605492D01*
X138713197Y-71605493D01*
X138718499Y-71621811D01*
X138766923Y-71770846D01*
X138770226Y-71776568D01*
X138770227Y-71776569D01*
X138782887Y-71798496D01*
X138857155Y-71927132D01*
X138861573Y-71932039D01*
X138861574Y-71932040D01*
X138863400Y-71934068D01*
X138977909Y-72061243D01*
X138983251Y-72065124D01*
X138983253Y-72065126D01*
X139118565Y-72163436D01*
X139123907Y-72167317D01*
X139129935Y-72170001D01*
X139129937Y-72170002D01*
X139252674Y-72224648D01*
X139288770Y-72240719D01*
X139352420Y-72254248D01*
X139458833Y-72276867D01*
X139458837Y-72276867D01*
X139465290Y-72278239D01*
X139645754Y-72278239D01*
X139652207Y-72276867D01*
X139652211Y-72276867D01*
X139758624Y-72254248D01*
X139822274Y-72240719D01*
X139858370Y-72224648D01*
X139981107Y-72170002D01*
X139981109Y-72170001D01*
X139987137Y-72167317D01*
X139992479Y-72163436D01*
X140127791Y-72065126D01*
X140127793Y-72065124D01*
X140133135Y-72061243D01*
X140247644Y-71934068D01*
X140249470Y-71932040D01*
X140249471Y-71932039D01*
X140253889Y-71927132D01*
X140328157Y-71798496D01*
X140340817Y-71776569D01*
X140340818Y-71776568D01*
X140344121Y-71770846D01*
X140371830Y-71685565D01*
X140411903Y-71626959D01*
X140477299Y-71599321D01*
X140491663Y-71598500D01*
X140686621Y-71598500D01*
X140754742Y-71618502D01*
X140801235Y-71672158D01*
X140806144Y-71684623D01*
X140838630Y-71781993D01*
X140840950Y-71788946D01*
X140934022Y-71939348D01*
X141059197Y-72064305D01*
X141065427Y-72068145D01*
X141065428Y-72068146D01*
X141202590Y-72152694D01*
X141209762Y-72157115D01*
X141289505Y-72183564D01*
X141371111Y-72210632D01*
X141371113Y-72210632D01*
X141377639Y-72212797D01*
X141384475Y-72213497D01*
X141384478Y-72213498D01*
X141427531Y-72217909D01*
X141482100Y-72223500D01*
X142257900Y-72223500D01*
X142261146Y-72223163D01*
X142261150Y-72223163D01*
X142356808Y-72213238D01*
X142356812Y-72213237D01*
X142363666Y-72212526D01*
X142370202Y-72210345D01*
X142370204Y-72210345D01*
X142517589Y-72161173D01*
X142531446Y-72156550D01*
X142681848Y-72063478D01*
X142806805Y-71938303D01*
X142809602Y-71933765D01*
X142866853Y-71893176D01*
X142937776Y-71889946D01*
X142999187Y-71925572D01*
X143006562Y-71934068D01*
X143014598Y-71944207D01*
X143129329Y-72058739D01*
X143140743Y-72067753D01*
X143195986Y-72101805D01*
X143243480Y-72154576D01*
X143254904Y-72224648D01*
X143249705Y-72247998D01*
X143245635Y-72260525D01*
X143226771Y-72440000D01*
X143227461Y-72446565D01*
X143231160Y-72481753D01*
X143245635Y-72619475D01*
X143247675Y-72625753D01*
X143247675Y-72625754D01*
X143261034Y-72666870D01*
X143301401Y-72791107D01*
X143304704Y-72796829D01*
X143304705Y-72796830D01*
X143307770Y-72802138D01*
X143391633Y-72947393D01*
X143396051Y-72952300D01*
X143396052Y-72952301D01*
X143453263Y-73015840D01*
X143512387Y-73081504D01*
X143658385Y-73187578D01*
X143664413Y-73190262D01*
X143664415Y-73190263D01*
X143817217Y-73258295D01*
X143823248Y-73260980D01*
X143911508Y-73279740D01*
X143993311Y-73297128D01*
X143993315Y-73297128D01*
X143999768Y-73298500D01*
X144180232Y-73298500D01*
X144186685Y-73297128D01*
X144186689Y-73297128D01*
X144268492Y-73279740D01*
X144356752Y-73260980D01*
X144362783Y-73258295D01*
X144515585Y-73190263D01*
X144515587Y-73190262D01*
X144521615Y-73187578D01*
X144667613Y-73081504D01*
X144726737Y-73015840D01*
X144783948Y-72952301D01*
X144783949Y-72952300D01*
X144788367Y-72947393D01*
X144872230Y-72802138D01*
X144875295Y-72796830D01*
X144875296Y-72796829D01*
X144878599Y-72791107D01*
X144918966Y-72666870D01*
X144932325Y-72625754D01*
X144932325Y-72625753D01*
X144934365Y-72619475D01*
X144948841Y-72481753D01*
X144952539Y-72446565D01*
X144953229Y-72440000D01*
X144934365Y-72260525D01*
X144928376Y-72242091D01*
X144880641Y-72095178D01*
X144878599Y-72088893D01*
X144871734Y-72077002D01*
X144854997Y-72008008D01*
X144881971Y-71935913D01*
X144885251Y-71931760D01*
X144970316Y-71793757D01*
X144976463Y-71780576D01*
X145027638Y-71626290D01*
X145030505Y-71612914D01*
X145040172Y-71518562D01*
X145040500Y-71512146D01*
X145040500Y-71262115D01*
X145036025Y-71246876D01*
X145034635Y-71245671D01*
X145026952Y-71244000D01*
X143817000Y-71244000D01*
X143748879Y-71223998D01*
X143702386Y-71170342D01*
X143691000Y-71118000D01*
X143691000Y-70862000D01*
X143711002Y-70793879D01*
X143764658Y-70747386D01*
X143817000Y-70736000D01*
X145022384Y-70736000D01*
X145037623Y-70731525D01*
X145038828Y-70730135D01*
X145040499Y-70722452D01*
X145040499Y-70467905D01*
X145040162Y-70461386D01*
X145030243Y-70365794D01*
X145027351Y-70352400D01*
X144975912Y-70198216D01*
X144969739Y-70185038D01*
X144884437Y-70047193D01*
X144875401Y-70035792D01*
X144760671Y-69921261D01*
X144749260Y-69912249D01*
X144611257Y-69827184D01*
X144598076Y-69821037D01*
X144443790Y-69769862D01*
X144430414Y-69766995D01*
X144336062Y-69757328D01*
X144329646Y-69757000D01*
X144077532Y-69757001D01*
X144009412Y-69736999D01*
X143962919Y-69683344D01*
X143952188Y-69618159D01*
X143960172Y-69540232D01*
X143960500Y-69533815D01*
X143960500Y-69522115D01*
X143956025Y-69506876D01*
X143954635Y-69505671D01*
X143946952Y-69504000D01*
X142787000Y-69504000D01*
X142718879Y-69483998D01*
X142672386Y-69430342D01*
X142661000Y-69378000D01*
X142661000Y-68977885D01*
X143169000Y-68977885D01*
X143173475Y-68993124D01*
X143174865Y-68994329D01*
X143182548Y-68996000D01*
X143942385Y-68996000D01*
X143957624Y-68991525D01*
X143958829Y-68990135D01*
X143960500Y-68982452D01*
X143960500Y-68966234D01*
X143960163Y-68959718D01*
X143950425Y-68865868D01*
X143947532Y-68852472D01*
X143897012Y-68701047D01*
X143890847Y-68687885D01*
X143807074Y-68552508D01*
X143798040Y-68541110D01*
X143685371Y-68428637D01*
X143673960Y-68419625D01*
X143538437Y-68336088D01*
X143525259Y-68329944D01*
X143373734Y-68279685D01*
X143360368Y-68276819D01*
X143267730Y-68267328D01*
X143261315Y-68267000D01*
X143187115Y-68267000D01*
X143171876Y-68271475D01*
X143170671Y-68272865D01*
X143169000Y-68280548D01*
X143169000Y-68977885D01*
X142661000Y-68977885D01*
X142661000Y-68285115D01*
X142656525Y-68269876D01*
X142655135Y-68268671D01*
X142647452Y-68267000D01*
X142568734Y-68267000D01*
X142562218Y-68267337D01*
X142468368Y-68277075D01*
X142454972Y-68279968D01*
X142303547Y-68330488D01*
X142290385Y-68336653D01*
X142155008Y-68420426D01*
X142143606Y-68429464D01*
X142141933Y-68431139D01*
X142140507Y-68431919D01*
X142137873Y-68434007D01*
X142137516Y-68433556D01*
X142079651Y-68465219D01*
X142008831Y-68460216D01*
X141963746Y-68431299D01*
X141960685Y-68428244D01*
X141955503Y-68423071D01*
X141807420Y-68331791D01*
X141642309Y-68277026D01*
X141635473Y-68276326D01*
X141635470Y-68276325D01*
X141583974Y-68271049D01*
X141539572Y-68266500D01*
X140840428Y-68266500D01*
X140837182Y-68266837D01*
X140837178Y-68266837D01*
X140743265Y-68276581D01*
X140743261Y-68276582D01*
X140736407Y-68277293D01*
X140729871Y-68279474D01*
X140729869Y-68279474D01*
X140629539Y-68312947D01*
X140571393Y-68332346D01*
X140423469Y-68423884D01*
X140418296Y-68429066D01*
X140305742Y-68541816D01*
X140305738Y-68541821D01*
X140300571Y-68546997D01*
X140209291Y-68695080D01*
X140206986Y-68702029D01*
X140204654Y-68707030D01*
X140167163Y-68753742D01*
X140117966Y-68791493D01*
X140117913Y-68791535D01*
X140086013Y-68816013D01*
X140080983Y-68822568D01*
X140066548Y-68841379D01*
X140055681Y-68853770D01*
X139319854Y-69589597D01*
X139318392Y-69591036D01*
X139303381Y-69605566D01*
X139303368Y-69605577D01*
X139287940Y-69620512D01*
X139284652Y-69623583D01*
X139266641Y-69639809D01*
X139245473Y-69658879D01*
X139241938Y-69661946D01*
X139216570Y-69683147D01*
X139208857Y-69689593D01*
X139205613Y-69692215D01*
X139173607Y-69717212D01*
X139171432Y-69718873D01*
X139134974Y-69746092D01*
X139134718Y-69746282D01*
X139093749Y-69776632D01*
X139093647Y-69776708D01*
X139091236Y-69778505D01*
X139091129Y-69778585D01*
X139091084Y-69778619D01*
X139087119Y-69781624D01*
X139086848Y-69781830D01*
X139044551Y-69814237D01*
X139044496Y-69814280D01*
X139044344Y-69814396D01*
X139037952Y-69819375D01*
X139037659Y-69819607D01*
X139031306Y-69824721D01*
X138986306Y-69861543D01*
X138978660Y-69867926D01*
X138978303Y-69868230D01*
X138970480Y-69875030D01*
X138921196Y-69918763D01*
X138914354Y-69924947D01*
X138914015Y-69925259D01*
X138905916Y-69932884D01*
X138893612Y-69943075D01*
X138877734Y-69954610D01*
X138877727Y-69954616D01*
X138872387Y-69958496D01*
X138867966Y-69963406D01*
X138867965Y-69963407D01*
X138846002Y-69987800D01*
X138751633Y-70092607D01*
X138661401Y-70248893D01*
X138655709Y-70266411D01*
X138618494Y-70380950D01*
X138605635Y-70420525D01*
X138586771Y-70600000D01*
X125715341Y-70600000D01*
X125661354Y-70475840D01*
X125586504Y-70360139D01*
X125542822Y-70292617D01*
X125542820Y-70292614D01*
X125540014Y-70288277D01*
X125389670Y-70123051D01*
X125385619Y-70119852D01*
X125385615Y-70119848D01*
X125218414Y-69987800D01*
X125218410Y-69987798D01*
X125214359Y-69984598D01*
X125172569Y-69961529D01*
X125122598Y-69911097D01*
X125107826Y-69841654D01*
X125132942Y-69775248D01*
X125160294Y-69748641D01*
X125335328Y-69623792D01*
X125343200Y-69617139D01*
X125494052Y-69466812D01*
X125500730Y-69458965D01*
X125625003Y-69286020D01*
X125630313Y-69277183D01*
X125724670Y-69086267D01*
X125728469Y-69076672D01*
X125790377Y-68872910D01*
X125792555Y-68862837D01*
X125793986Y-68851962D01*
X125791775Y-68837778D01*
X125778617Y-68834000D01*
X124332000Y-68834000D01*
X124263879Y-68813998D01*
X124217386Y-68760342D01*
X124206000Y-68708000D01*
X124206000Y-68452000D01*
X124226002Y-68383879D01*
X124279658Y-68337386D01*
X124332000Y-68326000D01*
X125778344Y-68326000D01*
X125791875Y-68322027D01*
X125793180Y-68312947D01*
X125751214Y-68145875D01*
X125747894Y-68136124D01*
X125662972Y-67940814D01*
X125658105Y-67931739D01*
X125542426Y-67752926D01*
X125536136Y-67744757D01*
X125392806Y-67587240D01*
X125385273Y-67580215D01*
X125218139Y-67448222D01*
X125209556Y-67442520D01*
X125172602Y-67422120D01*
X125122631Y-67371687D01*
X125107859Y-67302245D01*
X125132975Y-67235839D01*
X125160327Y-67209232D01*
X125183797Y-67192491D01*
X125339860Y-67081173D01*
X125498096Y-66923489D01*
X125557594Y-66840689D01*
X125625435Y-66746277D01*
X125628453Y-66742077D01*
X125640579Y-66717543D01*
X125725136Y-66546453D01*
X125725137Y-66546451D01*
X125727430Y-66541811D01*
X125792370Y-66328069D01*
X125821529Y-66106590D01*
X125823156Y-66040000D01*
X125804852Y-65817361D01*
X125750431Y-65600702D01*
X125691796Y-65465851D01*
X135496719Y-65465851D01*
X135497235Y-65471995D01*
X135505658Y-65572301D01*
X135513268Y-65662934D01*
X135514967Y-65668858D01*
X135549620Y-65789707D01*
X135567783Y-65853050D01*
X135658187Y-66028956D01*
X135781035Y-66183953D01*
X135931650Y-66312136D01*
X136104294Y-66408624D01*
X136292392Y-66469740D01*
X136488777Y-66493158D01*
X136494912Y-66492686D01*
X136494914Y-66492686D01*
X136679830Y-66478457D01*
X136679834Y-66478456D01*
X136685972Y-66477984D01*
X136876463Y-66424798D01*
X136881967Y-66422018D01*
X136881969Y-66422017D01*
X137047495Y-66338404D01*
X137047497Y-66338403D01*
X137052996Y-66335625D01*
X137208847Y-66213861D01*
X137338078Y-66064145D01*
X137435769Y-65892179D01*
X137498197Y-65704513D01*
X137522985Y-65508295D01*
X137523380Y-65480000D01*
X137504080Y-65283167D01*
X137446916Y-65093831D01*
X137428928Y-65060000D01*
X139060271Y-65060000D01*
X139060961Y-65066565D01*
X139073109Y-65182138D01*
X139079135Y-65239475D01*
X139081175Y-65245753D01*
X139081175Y-65245754D01*
X139089549Y-65271527D01*
X139134901Y-65411107D01*
X139225133Y-65567393D01*
X139229551Y-65572300D01*
X139229552Y-65572301D01*
X139259643Y-65605720D01*
X139345887Y-65701504D01*
X139351229Y-65705385D01*
X139351231Y-65705387D01*
X139486543Y-65803697D01*
X139491885Y-65807578D01*
X139497913Y-65810262D01*
X139497915Y-65810263D01*
X139650717Y-65878295D01*
X139656748Y-65880980D01*
X139734667Y-65897542D01*
X139826811Y-65917128D01*
X139826815Y-65917128D01*
X139833268Y-65918500D01*
X140013732Y-65918500D01*
X140020185Y-65917128D01*
X140020189Y-65917128D01*
X140112333Y-65897542D01*
X140190252Y-65880980D01*
X140196283Y-65878295D01*
X140349085Y-65810263D01*
X140349087Y-65810262D01*
X140355115Y-65807578D01*
X140360457Y-65803697D01*
X140495769Y-65705387D01*
X140495771Y-65705385D01*
X140501113Y-65701504D01*
X140587357Y-65605720D01*
X140617448Y-65572301D01*
X140617449Y-65572300D01*
X140621867Y-65567393D01*
X140712099Y-65411107D01*
X140757451Y-65271527D01*
X140765825Y-65245754D01*
X140765825Y-65245753D01*
X140767865Y-65239475D01*
X140773892Y-65182138D01*
X140786039Y-65066565D01*
X140786729Y-65060000D01*
X140782984Y-65024373D01*
X140768555Y-64887089D01*
X140768555Y-64887088D01*
X140767865Y-64880525D01*
X140712099Y-64708893D01*
X140621867Y-64552607D01*
X140613456Y-64543265D01*
X140505535Y-64423407D01*
X140505534Y-64423406D01*
X140501113Y-64418496D01*
X140457952Y-64387137D01*
X140360457Y-64316303D01*
X140360456Y-64316302D01*
X140355115Y-64312422D01*
X140349087Y-64309738D01*
X140349085Y-64309737D01*
X140196283Y-64241705D01*
X140196281Y-64241705D01*
X140190252Y-64239020D01*
X140101992Y-64220260D01*
X140020189Y-64202872D01*
X140020185Y-64202872D01*
X140013732Y-64201500D01*
X139833268Y-64201500D01*
X139826815Y-64202872D01*
X139826811Y-64202872D01*
X139745008Y-64220260D01*
X139656748Y-64239020D01*
X139650719Y-64241704D01*
X139650717Y-64241705D01*
X139497916Y-64309737D01*
X139497914Y-64309738D01*
X139491886Y-64312422D01*
X139486545Y-64316302D01*
X139486544Y-64316303D01*
X139351231Y-64414613D01*
X139351229Y-64414615D01*
X139345887Y-64418496D01*
X139341466Y-64423406D01*
X139341465Y-64423407D01*
X139233545Y-64543265D01*
X139225133Y-64552607D01*
X139134901Y-64708893D01*
X139079135Y-64880525D01*
X139078445Y-64887088D01*
X139078445Y-64887089D01*
X139064016Y-65024373D01*
X139060271Y-65060000D01*
X137428928Y-65060000D01*
X137354066Y-64919204D01*
X137282425Y-64831364D01*
X137232960Y-64770713D01*
X137232957Y-64770710D01*
X137229065Y-64765938D01*
X137224316Y-64762009D01*
X137081425Y-64643799D01*
X137081421Y-64643797D01*
X137076675Y-64639870D01*
X136902701Y-64545802D01*
X136713768Y-64487318D01*
X136707643Y-64486674D01*
X136707642Y-64486674D01*
X136523204Y-64467289D01*
X136523202Y-64467289D01*
X136517075Y-64466645D01*
X136436938Y-64473938D01*
X136326251Y-64484011D01*
X136326248Y-64484012D01*
X136320112Y-64484570D01*
X136314206Y-64486308D01*
X136314202Y-64486309D01*
X136209076Y-64517249D01*
X136130381Y-64540410D01*
X136124923Y-64543263D01*
X136124919Y-64543265D01*
X136034147Y-64590720D01*
X135955110Y-64632040D01*
X135800975Y-64755968D01*
X135673846Y-64907474D01*
X135670879Y-64912872D01*
X135670875Y-64912877D01*
X135609581Y-65024373D01*
X135578567Y-65080787D01*
X135576706Y-65086654D01*
X135576705Y-65086656D01*
X135536748Y-65212617D01*
X135518765Y-65269306D01*
X135496719Y-65465851D01*
X125691796Y-65465851D01*
X125661354Y-65395840D01*
X125580932Y-65271527D01*
X125542822Y-65212617D01*
X125542820Y-65212614D01*
X125540014Y-65208277D01*
X125389670Y-65043051D01*
X125385619Y-65039852D01*
X125385615Y-65039848D01*
X125218414Y-64907800D01*
X125218410Y-64907798D01*
X125214359Y-64904598D01*
X125173053Y-64881796D01*
X125123084Y-64831364D01*
X125108312Y-64761921D01*
X125133428Y-64695516D01*
X125160780Y-64668909D01*
X125216468Y-64629187D01*
X125339860Y-64541173D01*
X125498096Y-64383489D01*
X125557594Y-64300689D01*
X125625435Y-64206277D01*
X125628453Y-64202077D01*
X125640579Y-64177543D01*
X125725136Y-64006453D01*
X125725137Y-64006451D01*
X125727430Y-64001811D01*
X125792370Y-63788069D01*
X125821529Y-63566590D01*
X125823156Y-63500000D01*
X125804852Y-63277361D01*
X125750431Y-63060702D01*
X125661354Y-62855840D01*
X125540014Y-62668277D01*
X125389670Y-62503051D01*
X125385619Y-62499852D01*
X125385615Y-62499848D01*
X125218414Y-62367800D01*
X125218410Y-62367798D01*
X125214359Y-62364598D01*
X125173053Y-62341796D01*
X125123084Y-62291364D01*
X125108312Y-62221921D01*
X125133428Y-62155516D01*
X125160780Y-62128909D01*
X125204603Y-62097650D01*
X125339860Y-62001173D01*
X125498096Y-61843489D01*
X125628453Y-61662077D01*
X125654661Y-61609050D01*
X125725136Y-61466453D01*
X125725137Y-61466451D01*
X125727430Y-61461811D01*
X125792370Y-61248069D01*
X125821529Y-61026590D01*
X125823156Y-60960000D01*
X125804852Y-60737361D01*
X125750431Y-60520702D01*
X125661354Y-60315840D01*
X125599967Y-60220950D01*
X125542822Y-60132617D01*
X125542820Y-60132614D01*
X125540014Y-60128277D01*
X125520405Y-60106727D01*
X125392798Y-59966488D01*
X125361746Y-59902642D01*
X125370141Y-59832143D01*
X125415317Y-59777375D01*
X125441761Y-59763706D01*
X125548297Y-59723767D01*
X125556705Y-59720615D01*
X125673261Y-59633261D01*
X125760615Y-59516705D01*
X125811745Y-59380316D01*
X125818500Y-59318134D01*
X125818500Y-58635851D01*
X140136719Y-58635851D01*
X140153268Y-58832934D01*
X140207783Y-59023050D01*
X140298187Y-59198956D01*
X140421035Y-59353953D01*
X140425728Y-59357947D01*
X140425729Y-59357948D01*
X140452012Y-59380316D01*
X140571650Y-59482136D01*
X140744294Y-59578624D01*
X140932392Y-59639740D01*
X141128777Y-59663158D01*
X141134912Y-59662686D01*
X141134914Y-59662686D01*
X141319830Y-59648457D01*
X141319834Y-59648456D01*
X141325972Y-59647984D01*
X141516463Y-59594798D01*
X141521967Y-59592018D01*
X141521969Y-59592017D01*
X141687495Y-59508404D01*
X141687497Y-59508403D01*
X141692996Y-59505625D01*
X141848847Y-59383861D01*
X141978078Y-59234145D01*
X142075769Y-59062179D01*
X142138197Y-58874513D01*
X142162985Y-58678295D01*
X142163380Y-58650000D01*
X142144080Y-58453167D01*
X142086916Y-58263831D01*
X141994066Y-58089204D01*
X141923709Y-58002938D01*
X141872960Y-57940713D01*
X141872957Y-57940710D01*
X141869065Y-57935938D01*
X141862724Y-57930692D01*
X141721425Y-57813799D01*
X141721421Y-57813797D01*
X141716675Y-57809870D01*
X141542701Y-57715802D01*
X141353768Y-57657318D01*
X141347643Y-57656674D01*
X141347642Y-57656674D01*
X141163204Y-57637289D01*
X141163202Y-57637289D01*
X141157075Y-57636645D01*
X141074576Y-57644153D01*
X140966251Y-57654011D01*
X140966248Y-57654012D01*
X140960112Y-57654570D01*
X140954206Y-57656308D01*
X140954202Y-57656309D01*
X140849076Y-57687249D01*
X140770381Y-57710410D01*
X140764923Y-57713263D01*
X140764919Y-57713265D01*
X140674147Y-57760720D01*
X140595110Y-57802040D01*
X140440975Y-57925968D01*
X140313846Y-58077474D01*
X140310879Y-58082872D01*
X140310875Y-58082877D01*
X140307397Y-58089204D01*
X140218567Y-58250787D01*
X140216706Y-58256654D01*
X140216705Y-58256656D01*
X140160627Y-58433436D01*
X140158765Y-58439306D01*
X140136719Y-58635851D01*
X125818500Y-58635851D01*
X125818500Y-57521866D01*
X125811745Y-57459684D01*
X125760615Y-57323295D01*
X125686621Y-57224565D01*
X125661773Y-57158059D01*
X125676826Y-57088676D01*
X125727000Y-57038446D01*
X125787447Y-57023000D01*
X148532553Y-57023000D01*
X148600674Y-57043002D01*
G37*
%TD.AperFunction*%
%TD*%
M02*
