M48
; DRILL file {KiCad (6.0.0-0)} date 
; FORMAT={-:-/ absolute / inch / decimal}
; #@! TF.CreationDate,2022-01-12T16:50:37+09:00
; #@! TF.GenerationSoftware,Kicad,Pcbnew,(6.0.0-0)
; #@! TF.FileFunction,Plated,1,4,PTH
FMAT,2
INCH
; #@! TA.AperFunction,Plated,PTH,ViaDrill
T1C0.0118
; #@! TA.AperFunction,Plated,PTH,ViaDrill
T2C0.0197
; #@! TA.AperFunction,Plated,PTH,ComponentDrill
T3C0.0394
%
G90
G05
T1
X4.9439Y-3.6386
X4.9689Y-2.2636
X4.9843Y-3.4606
X5.0079Y-3.05
X5.063Y-2.6563
X5.0866Y-2.9594
X5.1437Y-2.8839
X5.1496Y-3.2508
X5.185Y-3.0866
X5.1929Y-2.3492
X5.1929Y-3.361
X5.2343Y-2.6673
X5.2441Y-3.0256
X5.2657Y-2.8248
X5.2689Y-3.6386
X5.2913Y-3.1287
X5.2939Y-2.2636
X5.2939Y-2.5386
X5.3169Y-2.876
X5.3484Y-2.748
X5.3622Y-2.9173
X5.4094Y-2.685
X5.4094Y-2.8268
X5.4094Y-2.9862
X5.4189Y-3.0486
X5.4685Y-2.7429
X5.4689Y-2.4636
X5.4783Y-3.0669
X5.4902Y-2.7795
X5.4943Y-2.8118
X5.5088Y-2.5614
X5.5197Y-2.8661
X5.5236Y-3.3846
X5.5591Y-2.365
X5.5689Y-3.6386
X5.5709Y-3.2193
X5.6118Y-3.0165
X5.6173Y-2.9437
X5.6689Y-2.4636
X5.6728Y-2.852
X5.6799Y-2.7256
X5.7047Y-2.622
X5.7358Y-3.0457
X5.7389Y-2.9586
X5.8098Y-2.7539
X5.8189Y-2.2636
X5.8425Y-3.6417
X5.8465Y-2.4594
X5.8543Y-3.0512
T2
X5.3744Y-2.578
X5.5571Y-2.3091
T3
X4.9Y-2.3
X4.9Y-2.4
X4.9Y-2.5
X4.9Y-2.6
X4.9Y-2.7
X4.9Y-2.8
X4.9Y-2.9
X4.9Y-3.0
X4.9Y-3.1
X4.9Y-3.2
X4.9Y-3.3
X4.9Y-3.4
X4.9Y-3.5
X4.9Y-3.6
X5.9Y-2.3
X5.9Y-2.4
X5.9Y-2.5
X5.9Y-2.6
X5.9Y-2.7
X5.9Y-2.8
X5.9Y-2.9
X5.9Y-3.0
X5.9Y-3.1
X5.9Y-3.2
X5.9Y-3.3
X5.9Y-3.4
X5.9Y-3.5
X5.9Y-3.6
T0
M30
