%TF.GenerationSoftware,KiCad,Pcbnew,(6.0.0-0)*%
%TF.CreationDate,2022-01-12T16:50:32+09:00*%
%TF.ProjectId,ADAU1701-RPPico-module,41444155-3137-4303-912d-52505069636f,B*%
%TF.SameCoordinates,Original*%
%TF.FileFunction,Paste,Top*%
%TF.FilePolarity,Positive*%
%FSLAX46Y46*%
G04 Gerber Fmt 4.6, Leading zero omitted, Abs format (unit mm)*
G04 Created by KiCad (PCBNEW (6.0.0-0)) date 2022-01-12 16:50:32*
%MOMM*%
%LPD*%
G01*
G04 APERTURE LIST*
G04 Aperture macros list*
%AMRoundRect*
0 Rectangle with rounded corners*
0 $1 Rounding radius*
0 $2 $3 $4 $5 $6 $7 $8 $9 X,Y pos of 4 corners*
0 Add a 4 corners polygon primitive as box body*
4,1,4,$2,$3,$4,$5,$6,$7,$8,$9,$2,$3,0*
0 Add four circle primitives for the rounded corners*
1,1,$1+$1,$2,$3*
1,1,$1+$1,$4,$5*
1,1,$1+$1,$6,$7*
1,1,$1+$1,$8,$9*
0 Add four rect primitives between the rounded corners*
20,1,$1+$1,$2,$3,$4,$5,0*
20,1,$1+$1,$4,$5,$6,$7,0*
20,1,$1+$1,$6,$7,$8,$9,0*
20,1,$1+$1,$8,$9,$2,$3,0*%
G04 Aperture macros list end*
%ADD10RoundRect,0.237500X0.300000X0.237500X-0.300000X0.237500X-0.300000X-0.237500X0.300000X-0.237500X0*%
%ADD11RoundRect,0.155000X-0.155000X0.212500X-0.155000X-0.212500X0.155000X-0.212500X0.155000X0.212500X0*%
%ADD12RoundRect,0.237500X-0.237500X0.300000X-0.237500X-0.300000X0.237500X-0.300000X0.237500X0.300000X0*%
%ADD13RoundRect,0.075000X-0.521491X0.415425X0.415425X-0.521491X0.521491X-0.415425X-0.415425X0.521491X0*%
%ADD14RoundRect,0.075000X-0.521491X-0.415425X-0.415425X-0.521491X0.521491X0.415425X0.415425X0.521491X0*%
%ADD15RoundRect,0.155000X0.040659X0.259862X-0.259862X-0.040659X-0.040659X-0.259862X0.259862X0.040659X0*%
%ADD16RoundRect,0.155000X0.155000X-0.212500X0.155000X0.212500X-0.155000X0.212500X-0.155000X-0.212500X0*%
%ADD17R,1.560000X0.650000*%
%ADD18RoundRect,0.155000X-0.040659X-0.259862X0.259862X0.040659X0.040659X0.259862X-0.259862X-0.040659X0*%
%ADD19RoundRect,0.237500X-0.300000X-0.237500X0.300000X-0.237500X0.300000X0.237500X-0.300000X0.237500X0*%
%ADD20RoundRect,0.160000X-0.252791X0.026517X0.026517X-0.252791X0.252791X-0.026517X-0.026517X0.252791X0*%
%ADD21RoundRect,0.155000X0.212500X0.155000X-0.212500X0.155000X-0.212500X-0.155000X0.212500X-0.155000X0*%
G04 APERTURE END LIST*
D10*
%TO.C,C11*%
X137362500Y-63800000D03*
X135637500Y-63800000D03*
%TD*%
D11*
%TO.C,C18*%
X140000000Y-58800000D03*
X140000000Y-59935000D03*
%TD*%
D12*
%TO.C,C6*%
X144100000Y-58337500D03*
X144100000Y-60062500D03*
%TD*%
D13*
%TO.C,U1*%
X136401212Y-66912124D03*
X136047658Y-67265678D03*
X135694105Y-67619231D03*
X135340551Y-67972785D03*
X134986998Y-68326338D03*
X134633445Y-68679891D03*
X134279891Y-69033445D03*
X133926338Y-69386998D03*
X133572785Y-69740551D03*
X133219231Y-70094105D03*
X132865678Y-70447658D03*
X132512124Y-70801212D03*
D14*
X132512124Y-72798788D03*
X132865678Y-73152342D03*
X133219231Y-73505895D03*
X133572785Y-73859449D03*
X133926338Y-74213002D03*
X134279891Y-74566555D03*
X134633445Y-74920109D03*
X134986998Y-75273662D03*
X135340551Y-75627215D03*
X135694105Y-75980769D03*
X136047658Y-76334322D03*
X136401212Y-76687876D03*
D13*
X138398788Y-76687876D03*
X138752342Y-76334322D03*
X139105895Y-75980769D03*
X139459449Y-75627215D03*
X139813002Y-75273662D03*
X140166555Y-74920109D03*
X140520109Y-74566555D03*
X140873662Y-74213002D03*
X141227215Y-73859449D03*
X141580769Y-73505895D03*
X141934322Y-73152342D03*
X142287876Y-72798788D03*
D14*
X142287876Y-70801212D03*
X141934322Y-70447658D03*
X141580769Y-70094105D03*
X141227215Y-69740551D03*
X140873662Y-69386998D03*
X140520109Y-69033445D03*
X140166555Y-68679891D03*
X139813002Y-68326338D03*
X139459449Y-67972785D03*
X139105895Y-67619231D03*
X138752342Y-67265678D03*
X138398788Y-66912124D03*
%TD*%
D15*
%TO.C,C16*%
X143730883Y-67279117D03*
X142928317Y-68081683D03*
%TD*%
D12*
%TO.C,C5*%
X142494000Y-58337500D03*
X142494000Y-60062500D03*
%TD*%
D16*
%TO.C,C9*%
X139200000Y-65200000D03*
X139200000Y-64065000D03*
%TD*%
D10*
%TO.C,C3*%
X142425000Y-62500000D03*
X140700000Y-62500000D03*
%TD*%
D17*
%TO.C,U2*%
X138250000Y-60650000D03*
X138250000Y-59700000D03*
X138250000Y-58750000D03*
X135550000Y-58750000D03*
X135550000Y-60650000D03*
%TD*%
D18*
%TO.C,C7*%
X144201283Y-71198717D03*
X143398717Y-72001283D03*
%TD*%
D15*
%TO.C,C8*%
X132601283Y-76098717D03*
X131798717Y-76901283D03*
%TD*%
D18*
%TO.C,C12*%
X130408717Y-74602566D03*
X131211283Y-73800000D03*
%TD*%
%TO.C,C2*%
X143608717Y-74221283D03*
X144411283Y-73418717D03*
%TD*%
D19*
%TO.C,C19*%
X135637500Y-62300000D03*
X137362500Y-62300000D03*
%TD*%
D15*
%TO.C,C14*%
X143014566Y-66573034D03*
X142212000Y-67375600D03*
%TD*%
D20*
%TO.C,R1*%
X145177504Y-72677504D03*
X146022496Y-73522496D03*
%TD*%
D18*
%TO.C,C1*%
X144378717Y-74991283D03*
X145181283Y-74188717D03*
%TD*%
D21*
%TO.C,C4*%
X141635000Y-63800000D03*
X140500000Y-63800000D03*
%TD*%
M02*
