%TF.GenerationSoftware,KiCad,Pcbnew,(6.0.0-0)*%
%TF.CreationDate,2022-01-12T16:50:32+09:00*%
%TF.ProjectId,ADAU1701-RPPico-module,41444155-3137-4303-912d-52505069636f,B*%
%TF.SameCoordinates,Original*%
%TF.FileFunction,Legend,Bot*%
%TF.FilePolarity,Positive*%
%FSLAX46Y46*%
G04 Gerber Fmt 4.6, Leading zero omitted, Abs format (unit mm)*
G04 Created by KiCad (PCBNEW (6.0.0-0)) date 2022-01-12 16:50:32*
%MOMM*%
%LPD*%
G01*
G04 APERTURE LIST*
G04 Aperture macros list*
%AMRoundRect*
0 Rectangle with rounded corners*
0 $1 Rounding radius*
0 $2 $3 $4 $5 $6 $7 $8 $9 X,Y pos of 4 corners*
0 Add a 4 corners polygon primitive as box body*
4,1,4,$2,$3,$4,$5,$6,$7,$8,$9,$2,$3,0*
0 Add four circle primitives for the rounded corners*
1,1,$1+$1,$2,$3*
1,1,$1+$1,$4,$5*
1,1,$1+$1,$6,$7*
1,1,$1+$1,$8,$9*
0 Add four rect primitives between the rounded corners*
20,1,$1+$1,$2,$3,$4,$5,0*
20,1,$1+$1,$4,$5,$6,$7,0*
20,1,$1+$1,$6,$7,$8,$9,0*
20,1,$1+$1,$8,$9,$2,$3,0*%
G04 Aperture macros list end*
%ADD10C,0.120000*%
%ADD11C,0.150000*%
%ADD12RoundRect,0.237500X0.300000X0.237500X-0.300000X0.237500X-0.300000X-0.237500X0.300000X-0.237500X0*%
%ADD13R,1.700000X1.700000*%
%ADD14O,1.700000X1.700000*%
%ADD15RoundRect,0.155000X0.212500X0.155000X-0.212500X0.155000X-0.212500X-0.155000X0.212500X-0.155000X0*%
%ADD16RoundRect,0.250000X0.337500X0.475000X-0.337500X0.475000X-0.337500X-0.475000X0.337500X-0.475000X0*%
G04 APERTURE END LIST*
D10*
X148590000Y-59690000D02*
X151130000Y-59690000D01*
X151130000Y-59690000D02*
X151130000Y-62230000D01*
X151130000Y-62230000D02*
X148590000Y-62230000D01*
X148590000Y-62230000D02*
X148590000Y-59690000D01*
G36*
X148590000Y-59690000D02*
G01*
X151130000Y-59690000D01*
X151130000Y-62230000D01*
X148590000Y-62230000D01*
X148590000Y-59690000D01*
G37*
X148590000Y-72390000D02*
X151130000Y-72390000D01*
X151130000Y-72390000D02*
X151130000Y-74930000D01*
X151130000Y-74930000D02*
X148590000Y-74930000D01*
X148590000Y-74930000D02*
X148590000Y-72390000D01*
G36*
X148590000Y-72390000D02*
G01*
X151130000Y-72390000D01*
X151130000Y-74930000D01*
X148590000Y-74930000D01*
X148590000Y-72390000D01*
G37*
X123190000Y-79974000D02*
X125730000Y-79974000D01*
X125730000Y-79974000D02*
X125730000Y-82514000D01*
X125730000Y-82514000D02*
X123190000Y-82514000D01*
X123190000Y-82514000D02*
X123190000Y-79974000D01*
G36*
X123190000Y-79974000D02*
G01*
X125730000Y-79974000D01*
X125730000Y-82514000D01*
X123190000Y-82514000D01*
X123190000Y-79974000D01*
G37*
X123190000Y-67310000D02*
X125730000Y-67310000D01*
X125730000Y-67310000D02*
X125730000Y-69850000D01*
X125730000Y-69850000D02*
X123190000Y-69850000D01*
X123190000Y-69850000D02*
X123190000Y-67310000D01*
G36*
X123190000Y-67310000D02*
G01*
X125730000Y-67310000D01*
X125730000Y-69850000D01*
X123190000Y-69850000D01*
X123190000Y-67310000D01*
G37*
D11*
X139426547Y-91588095D02*
X139426547Y-91016666D01*
X139388452Y-90902380D01*
X139312261Y-90826190D01*
X139197976Y-90788095D01*
X139121785Y-90788095D01*
X140188452Y-90788095D02*
X139807500Y-90788095D01*
X139807500Y-91588095D01*
X140912261Y-90864285D02*
X140874166Y-90826190D01*
X140759880Y-90788095D01*
X140683690Y-90788095D01*
X140569404Y-90826190D01*
X140493214Y-90902380D01*
X140455119Y-90978571D01*
X140417023Y-91130952D01*
X140417023Y-91245238D01*
X140455119Y-91397619D01*
X140493214Y-91473809D01*
X140569404Y-91550000D01*
X140683690Y-91588095D01*
X140759880Y-91588095D01*
X140874166Y-91550000D01*
X140912261Y-91511904D01*
X141483690Y-91588095D02*
X141483690Y-91016666D01*
X141445595Y-90902380D01*
X141369404Y-90826190D01*
X141255119Y-90788095D01*
X141178928Y-90788095D01*
X142245595Y-90788095D02*
X141864642Y-90788095D01*
X141864642Y-91588095D01*
X142969404Y-90864285D02*
X142931309Y-90826190D01*
X142817023Y-90788095D01*
X142740833Y-90788095D01*
X142626547Y-90826190D01*
X142550357Y-90902380D01*
X142512261Y-90978571D01*
X142474166Y-91130952D01*
X142474166Y-91245238D01*
X142512261Y-91397619D01*
X142550357Y-91473809D01*
X142626547Y-91550000D01*
X142740833Y-91588095D01*
X142817023Y-91588095D01*
X142931309Y-91550000D01*
X142969404Y-91511904D01*
X143540833Y-91588095D02*
X143540833Y-91016666D01*
X143502738Y-90902380D01*
X143426547Y-90826190D01*
X143312261Y-90788095D01*
X143236071Y-90788095D01*
X144302738Y-90788095D02*
X143921785Y-90788095D01*
X143921785Y-91588095D01*
X145026547Y-90864285D02*
X144988452Y-90826190D01*
X144874166Y-90788095D01*
X144797976Y-90788095D01*
X144683690Y-90826190D01*
X144607500Y-90902380D01*
X144569404Y-90978571D01*
X144531309Y-91130952D01*
X144531309Y-91245238D01*
X144569404Y-91397619D01*
X144607500Y-91473809D01*
X144683690Y-91550000D01*
X144797976Y-91588095D01*
X144874166Y-91588095D01*
X144988452Y-91550000D01*
X145026547Y-91511904D01*
X145597976Y-91588095D02*
X145597976Y-91016666D01*
X145559880Y-90902380D01*
X145483690Y-90826190D01*
X145369404Y-90788095D01*
X145293214Y-90788095D01*
X146359880Y-90788095D02*
X145978928Y-90788095D01*
X145978928Y-91588095D01*
X147083690Y-90864285D02*
X147045595Y-90826190D01*
X146931309Y-90788095D01*
X146855119Y-90788095D01*
X146740833Y-90826190D01*
X146664642Y-90902380D01*
X146626547Y-90978571D01*
X146588452Y-91130952D01*
X146588452Y-91245238D01*
X146626547Y-91397619D01*
X146664642Y-91473809D01*
X146740833Y-91550000D01*
X146855119Y-91588095D01*
X146931309Y-91588095D01*
X147045595Y-91550000D01*
X147083690Y-91511904D01*
%TO.C,C15*%
X141443714Y-67496285D02*
X141405619Y-67458190D01*
X141291333Y-67420095D01*
X141215142Y-67420095D01*
X141100857Y-67458190D01*
X141024666Y-67534380D01*
X140986571Y-67610571D01*
X140948476Y-67762952D01*
X140948476Y-67877238D01*
X140986571Y-68029619D01*
X141024666Y-68105809D01*
X141100857Y-68182000D01*
X141215142Y-68220095D01*
X141291333Y-68220095D01*
X141405619Y-68182000D01*
X141443714Y-68143904D01*
X142205619Y-67420095D02*
X141748476Y-67420095D01*
X141977047Y-67420095D02*
X141977047Y-68220095D01*
X141900857Y-68105809D01*
X141824666Y-68029619D01*
X141748476Y-67991523D01*
X142929428Y-68220095D02*
X142548476Y-68220095D01*
X142510380Y-67839142D01*
X142548476Y-67877238D01*
X142624666Y-67915333D01*
X142815142Y-67915333D01*
X142891333Y-67877238D01*
X142929428Y-67839142D01*
X142967523Y-67762952D01*
X142967523Y-67572476D01*
X142929428Y-67496285D01*
X142891333Y-67458190D01*
X142815142Y-67420095D01*
X142624666Y-67420095D01*
X142548476Y-67458190D01*
X142510380Y-67496285D01*
%TO.C,C13*%
X135185714Y-74714285D02*
X135147619Y-74676190D01*
X135033333Y-74638095D01*
X134957142Y-74638095D01*
X134842857Y-74676190D01*
X134766666Y-74752380D01*
X134728571Y-74828571D01*
X134690476Y-74980952D01*
X134690476Y-75095238D01*
X134728571Y-75247619D01*
X134766666Y-75323809D01*
X134842857Y-75400000D01*
X134957142Y-75438095D01*
X135033333Y-75438095D01*
X135147619Y-75400000D01*
X135185714Y-75361904D01*
X135947619Y-74638095D02*
X135490476Y-74638095D01*
X135719047Y-74638095D02*
X135719047Y-75438095D01*
X135642857Y-75323809D01*
X135566666Y-75247619D01*
X135490476Y-75209523D01*
X136214285Y-75438095D02*
X136709523Y-75438095D01*
X136442857Y-75133333D01*
X136557142Y-75133333D01*
X136633333Y-75095238D01*
X136671428Y-75057142D01*
X136709523Y-74980952D01*
X136709523Y-74790476D01*
X136671428Y-74714285D01*
X136633333Y-74676190D01*
X136557142Y-74638095D01*
X136328571Y-74638095D01*
X136252380Y-74676190D01*
X136214285Y-74714285D01*
%TO.C,C17*%
X145507714Y-70704285D02*
X145469619Y-70666190D01*
X145355333Y-70628095D01*
X145279142Y-70628095D01*
X145164857Y-70666190D01*
X145088666Y-70742380D01*
X145050571Y-70818571D01*
X145012476Y-70970952D01*
X145012476Y-71085238D01*
X145050571Y-71237619D01*
X145088666Y-71313809D01*
X145164857Y-71390000D01*
X145279142Y-71428095D01*
X145355333Y-71428095D01*
X145469619Y-71390000D01*
X145507714Y-71351904D01*
X146269619Y-70628095D02*
X145812476Y-70628095D01*
X146041047Y-70628095D02*
X146041047Y-71428095D01*
X145964857Y-71313809D01*
X145888666Y-71237619D01*
X145812476Y-71199523D01*
X146536285Y-71428095D02*
X147069619Y-71428095D01*
X146726761Y-70628095D01*
%TO.C,C10*%
X140681714Y-75414234D02*
X140643619Y-75376139D01*
X140529333Y-75338044D01*
X140453142Y-75338044D01*
X140338857Y-75376139D01*
X140262666Y-75452329D01*
X140224571Y-75528520D01*
X140186476Y-75680901D01*
X140186476Y-75795187D01*
X140224571Y-75947568D01*
X140262666Y-76023758D01*
X140338857Y-76099949D01*
X140453142Y-76138044D01*
X140529333Y-76138044D01*
X140643619Y-76099949D01*
X140681714Y-76061853D01*
X141443619Y-75338044D02*
X140986476Y-75338044D01*
X141215047Y-75338044D02*
X141215047Y-76138044D01*
X141138857Y-76023758D01*
X141062666Y-75947568D01*
X140986476Y-75909472D01*
X141938857Y-76138044D02*
X142015047Y-76138044D01*
X142091238Y-76099949D01*
X142129333Y-76061853D01*
X142167428Y-75985663D01*
X142205523Y-75833282D01*
X142205523Y-75642806D01*
X142167428Y-75490425D01*
X142129333Y-75414234D01*
X142091238Y-75376139D01*
X142015047Y-75338044D01*
X141938857Y-75338044D01*
X141862666Y-75376139D01*
X141824571Y-75414234D01*
X141786476Y-75490425D01*
X141748380Y-75642806D01*
X141748380Y-75833282D01*
X141786476Y-75985663D01*
X141824571Y-76061853D01*
X141862666Y-76099949D01*
X141938857Y-76138044D01*
D10*
%TO.C,C15*%
X142198767Y-69760000D02*
X141906233Y-69760000D01*
X142198767Y-68740000D02*
X141906233Y-68740000D01*
%TO.C,J2*%
X151190000Y-92770000D02*
X148530000Y-92770000D01*
X151190000Y-59690000D02*
X148530000Y-59690000D01*
X151190000Y-57090000D02*
X149860000Y-57090000D01*
X151190000Y-59690000D02*
X151190000Y-92770000D01*
X151190000Y-58420000D02*
X151190000Y-57090000D01*
X148530000Y-59690000D02*
X148530000Y-92770000D01*
%TO.C,C13*%
X138115835Y-75360000D02*
X137884165Y-75360000D01*
X138115835Y-74640000D02*
X137884165Y-74640000D01*
%TO.C,C17*%
X143168752Y-70255000D02*
X142646248Y-70255000D01*
X143168752Y-71725000D02*
X142646248Y-71725000D01*
%TO.C,C10*%
X141345835Y-75070000D02*
X141114165Y-75070000D01*
X141345835Y-74350000D02*
X141114165Y-74350000D01*
%TO.C,J1*%
X125790000Y-92770000D02*
X123130000Y-92770000D01*
X125790000Y-57090000D02*
X124460000Y-57090000D01*
X125790000Y-59690000D02*
X123130000Y-59690000D01*
X123130000Y-59690000D02*
X123130000Y-92770000D01*
X125790000Y-59690000D02*
X125790000Y-92770000D01*
X125790000Y-58420000D02*
X125790000Y-57090000D01*
%TD*%
%LPC*%
D12*
%TO.C,C15*%
X142915000Y-69250000D03*
X141190000Y-69250000D03*
%TD*%
D13*
%TO.C,J2*%
X149860000Y-58420000D03*
D14*
X149860000Y-60960000D03*
X149860000Y-63500000D03*
X149860000Y-66040000D03*
X149860000Y-68580000D03*
X149860000Y-71120000D03*
X149860000Y-73660000D03*
X149860000Y-76200000D03*
X149860000Y-78740000D03*
X149860000Y-81280000D03*
X149860000Y-83820000D03*
X149860000Y-86360000D03*
X149860000Y-88900000D03*
X149860000Y-91440000D03*
%TD*%
D15*
%TO.C,C13*%
X138567500Y-75000000D03*
X137432500Y-75000000D03*
%TD*%
D16*
%TO.C,C17*%
X143945000Y-70990000D03*
X141870000Y-70990000D03*
%TD*%
D15*
%TO.C,C10*%
X141797500Y-74710000D03*
X140662500Y-74710000D03*
%TD*%
D13*
%TO.C,J1*%
X124460000Y-58420000D03*
D14*
X124460000Y-60960000D03*
X124460000Y-63500000D03*
X124460000Y-66040000D03*
X124460000Y-68580000D03*
X124460000Y-71120000D03*
X124460000Y-73660000D03*
X124460000Y-76200000D03*
X124460000Y-78740000D03*
X124460000Y-81280000D03*
X124460000Y-83820000D03*
X124460000Y-86360000D03*
X124460000Y-88900000D03*
X124460000Y-91440000D03*
%TD*%
M02*
