%TF.GenerationSoftware,KiCad,Pcbnew,(6.0.0-0)*%
%TF.CreationDate,2022-01-12T16:50:32+09:00*%
%TF.ProjectId,ADAU1701-RPPico-module,41444155-3137-4303-912d-52505069636f,B*%
%TF.SameCoordinates,Original*%
%TF.FileFunction,Legend,Top*%
%TF.FilePolarity,Positive*%
%FSLAX46Y46*%
G04 Gerber Fmt 4.6, Leading zero omitted, Abs format (unit mm)*
G04 Created by KiCad (PCBNEW (6.0.0-0)) date 2022-01-12 16:50:32*
%MOMM*%
%LPD*%
G01*
G04 APERTURE LIST*
G04 Aperture macros list*
%AMRoundRect*
0 Rectangle with rounded corners*
0 $1 Rounding radius*
0 $2 $3 $4 $5 $6 $7 $8 $9 X,Y pos of 4 corners*
0 Add a 4 corners polygon primitive as box body*
4,1,4,$2,$3,$4,$5,$6,$7,$8,$9,$2,$3,0*
0 Add four circle primitives for the rounded corners*
1,1,$1+$1,$2,$3*
1,1,$1+$1,$4,$5*
1,1,$1+$1,$6,$7*
1,1,$1+$1,$8,$9*
0 Add four rect primitives between the rounded corners*
20,1,$1+$1,$2,$3,$4,$5,0*
20,1,$1+$1,$4,$5,$6,$7,0*
20,1,$1+$1,$6,$7,$8,$9,0*
20,1,$1+$1,$8,$9,$2,$3,0*%
G04 Aperture macros list end*
%ADD10C,0.150000*%
%ADD11C,0.120000*%
%ADD12C,0.260000*%
%ADD13RoundRect,0.237500X0.300000X0.237500X-0.300000X0.237500X-0.300000X-0.237500X0.300000X-0.237500X0*%
%ADD14RoundRect,0.155000X-0.155000X0.212500X-0.155000X-0.212500X0.155000X-0.212500X0.155000X0.212500X0*%
%ADD15RoundRect,0.237500X-0.237500X0.300000X-0.237500X-0.300000X0.237500X-0.300000X0.237500X0.300000X0*%
%ADD16RoundRect,0.075000X-0.521491X0.415425X0.415425X-0.521491X0.521491X-0.415425X-0.415425X0.521491X0*%
%ADD17RoundRect,0.075000X-0.521491X-0.415425X-0.415425X-0.521491X0.521491X0.415425X0.415425X0.521491X0*%
%ADD18RoundRect,0.155000X0.040659X0.259862X-0.259862X-0.040659X-0.040659X-0.259862X0.259862X0.040659X0*%
%ADD19C,0.600000*%
%ADD20RoundRect,0.155000X0.155000X-0.212500X0.155000X0.212500X-0.155000X0.212500X-0.155000X-0.212500X0*%
%ADD21R,1.560000X0.650000*%
%ADD22RoundRect,0.155000X-0.040659X-0.259862X0.259862X0.040659X0.040659X0.259862X-0.259862X-0.040659X0*%
%ADD23RoundRect,0.237500X-0.300000X-0.237500X0.300000X-0.237500X0.300000X0.237500X-0.300000X0.237500X0*%
%ADD24RoundRect,0.160000X-0.252791X0.026517X0.026517X-0.252791X0.252791X-0.026517X-0.026517X0.252791X0*%
%ADD25RoundRect,0.155000X0.212500X0.155000X-0.212500X0.155000X-0.212500X-0.155000X0.212500X-0.155000X0*%
%ADD26R,1.700000X1.700000*%
%ADD27O,1.700000X1.700000*%
G04 APERTURE END LIST*
D10*
X146449633Y-74557504D02*
X146297252Y-74557504D01*
X146221061Y-74595600D01*
X146182966Y-74633695D01*
X146106776Y-74747980D01*
X146068680Y-74900361D01*
X146068680Y-75205123D01*
X146106776Y-75281314D01*
X146144871Y-75319409D01*
X146221061Y-75357504D01*
X146373442Y-75357504D01*
X146449633Y-75319409D01*
X146487728Y-75281314D01*
X146525823Y-75205123D01*
X146525823Y-75014647D01*
X146487728Y-74938457D01*
X146449633Y-74900361D01*
X146373442Y-74862266D01*
X146221061Y-74862266D01*
X146144871Y-74900361D01*
X146106776Y-74938457D01*
X146068680Y-75014647D01*
X147211538Y-74824171D02*
X147211538Y-75357504D01*
X147021061Y-74519409D02*
X146830585Y-75090838D01*
X147325823Y-75090838D01*
X147516300Y-74824171D02*
X147821061Y-74824171D01*
X147630585Y-75357504D02*
X147630585Y-74671790D01*
X147668680Y-74595600D01*
X147744871Y-74557504D01*
X147821061Y-74557504D01*
X148049633Y-75319409D02*
X148125823Y-75357504D01*
X148278204Y-75357504D01*
X148354395Y-75319409D01*
X148392490Y-75243219D01*
X148392490Y-75205123D01*
X148354395Y-75128933D01*
X148278204Y-75090838D01*
X148163919Y-75090838D01*
X148087728Y-75052742D01*
X148049633Y-74976552D01*
X148049633Y-74938457D01*
X148087728Y-74862266D01*
X148163919Y-74824171D01*
X148278204Y-74824171D01*
X148354395Y-74862266D01*
D11*
X123190000Y-67310000D02*
X125730000Y-67310000D01*
X125730000Y-67310000D02*
X125730000Y-69850000D01*
X125730000Y-69850000D02*
X123190000Y-69850000D01*
X123190000Y-69850000D02*
X123190000Y-67310000D01*
G36*
X123190000Y-67310000D02*
G01*
X125730000Y-67310000D01*
X125730000Y-69850000D01*
X123190000Y-69850000D01*
X123190000Y-67310000D01*
G37*
X148590000Y-59690000D02*
X151130000Y-59690000D01*
X151130000Y-59690000D02*
X151130000Y-62230000D01*
X151130000Y-62230000D02*
X148590000Y-62230000D01*
X148590000Y-62230000D02*
X148590000Y-59690000D01*
G36*
X148590000Y-59690000D02*
G01*
X151130000Y-59690000D01*
X151130000Y-62230000D01*
X148590000Y-62230000D01*
X148590000Y-59690000D01*
G37*
D12*
X137530000Y-66200000D02*
G75*
G03*
X137530000Y-66200000I-130000J0D01*
G01*
D11*
X148590000Y-72390000D02*
X151130000Y-72390000D01*
X151130000Y-72390000D02*
X151130000Y-74930000D01*
X151130000Y-74930000D02*
X148590000Y-74930000D01*
X148590000Y-74930000D02*
X148590000Y-72390000D01*
G36*
X148590000Y-72390000D02*
G01*
X151130000Y-72390000D01*
X151130000Y-74930000D01*
X148590000Y-74930000D01*
X148590000Y-72390000D01*
G37*
X123190000Y-79974000D02*
X125730000Y-79974000D01*
X125730000Y-79974000D02*
X125730000Y-82514000D01*
X125730000Y-82514000D02*
X123190000Y-82514000D01*
X123190000Y-82514000D02*
X123190000Y-79974000D01*
G36*
X123190000Y-79974000D02*
G01*
X125730000Y-79974000D01*
X125730000Y-82514000D01*
X123190000Y-82514000D01*
X123190000Y-79974000D01*
G37*
D10*
X143161904Y-90982023D02*
X142361904Y-90982023D01*
X142438095Y-90639166D02*
X142400000Y-90601071D01*
X142361904Y-90524880D01*
X142361904Y-90334404D01*
X142400000Y-90258214D01*
X142438095Y-90220119D01*
X142514285Y-90182023D01*
X142590476Y-90182023D01*
X142704761Y-90220119D01*
X143161904Y-90677261D01*
X143161904Y-90182023D01*
X143085714Y-89382023D02*
X143123809Y-89420119D01*
X143161904Y-89534404D01*
X143161904Y-89610595D01*
X143123809Y-89724880D01*
X143047619Y-89801071D01*
X142971428Y-89839166D01*
X142819047Y-89877261D01*
X142704761Y-89877261D01*
X142552380Y-89839166D01*
X142476190Y-89801071D01*
X142400000Y-89724880D01*
X142361904Y-89610595D01*
X142361904Y-89534404D01*
X142400000Y-89420119D01*
X142438095Y-89382023D01*
X126271976Y-70211904D02*
X126271976Y-69411904D01*
X126614833Y-69488095D02*
X126652928Y-69450000D01*
X126729119Y-69411904D01*
X126919595Y-69411904D01*
X126995785Y-69450000D01*
X127033880Y-69488095D01*
X127071976Y-69564285D01*
X127071976Y-69640476D01*
X127033880Y-69754761D01*
X126576738Y-70211904D01*
X127071976Y-70211904D01*
X127376738Y-70173809D02*
X127491023Y-70211904D01*
X127681500Y-70211904D01*
X127757690Y-70173809D01*
X127795785Y-70135714D01*
X127833880Y-70059523D01*
X127833880Y-69983333D01*
X127795785Y-69907142D01*
X127757690Y-69869047D01*
X127681500Y-69830952D01*
X127529119Y-69792857D01*
X127452928Y-69754761D01*
X127414833Y-69716666D01*
X127376738Y-69640476D01*
X127376738Y-69564285D01*
X127414833Y-69488095D01*
X127452928Y-69450000D01*
X127529119Y-69411904D01*
X127719595Y-69411904D01*
X127833880Y-69450000D01*
X128786261Y-70211904D02*
X128786261Y-69411904D01*
X129167214Y-70211904D02*
X129167214Y-69411904D01*
X129624357Y-70211904D01*
X129624357Y-69411904D01*
X143761904Y-91329642D02*
X143761904Y-91253452D01*
X143800000Y-91177261D01*
X143838095Y-91139166D01*
X143914285Y-91101071D01*
X144066666Y-91062976D01*
X144257142Y-91062976D01*
X144409523Y-91101071D01*
X144485714Y-91139166D01*
X144523809Y-91177261D01*
X144561904Y-91253452D01*
X144561904Y-91329642D01*
X144523809Y-91405833D01*
X144485714Y-91443928D01*
X144409523Y-91482023D01*
X144257142Y-91520119D01*
X144066666Y-91520119D01*
X143914285Y-91482023D01*
X143838095Y-91443928D01*
X143800000Y-91405833D01*
X143761904Y-91329642D01*
X144561904Y-90796309D02*
X144028571Y-90377261D01*
X144028571Y-90796309D02*
X144561904Y-90377261D01*
X143761904Y-90148690D02*
X143761904Y-89653452D01*
X144066666Y-89920119D01*
X144066666Y-89805833D01*
X144104761Y-89729642D01*
X144142857Y-89691547D01*
X144219047Y-89653452D01*
X144409523Y-89653452D01*
X144485714Y-89691547D01*
X144523809Y-89729642D01*
X144561904Y-89805833D01*
X144561904Y-90034404D01*
X144523809Y-90110595D01*
X144485714Y-90148690D01*
X144028571Y-88967738D02*
X144561904Y-88967738D01*
X143723809Y-89158214D02*
X144295238Y-89348690D01*
X144295238Y-88853452D01*
X136789333Y-91650119D02*
X136789333Y-91269166D01*
X137017904Y-91726309D02*
X136217904Y-91459642D01*
X137017904Y-91192976D01*
X137017904Y-90926309D02*
X136217904Y-90926309D01*
X136217904Y-90735833D01*
X136256000Y-90621547D01*
X136332190Y-90545357D01*
X136408380Y-90507261D01*
X136560761Y-90469166D01*
X136675047Y-90469166D01*
X136827428Y-90507261D01*
X136903619Y-90545357D01*
X136979809Y-90621547D01*
X137017904Y-90735833D01*
X137017904Y-90926309D01*
X136789333Y-90164404D02*
X136789333Y-89783452D01*
X137017904Y-90240595D02*
X136217904Y-89973928D01*
X137017904Y-89707261D01*
X136217904Y-89440595D02*
X136865523Y-89440595D01*
X136941714Y-89402500D01*
X136979809Y-89364404D01*
X137017904Y-89288214D01*
X137017904Y-89135833D01*
X136979809Y-89059642D01*
X136941714Y-89021547D01*
X136865523Y-88983452D01*
X136217904Y-88983452D01*
X137017904Y-88183452D02*
X137017904Y-88640595D01*
X137017904Y-88412023D02*
X136217904Y-88412023D01*
X136332190Y-88488214D01*
X136408380Y-88564404D01*
X136446476Y-88640595D01*
X136217904Y-87916785D02*
X136217904Y-87383452D01*
X137017904Y-87726309D01*
X136217904Y-86926309D02*
X136217904Y-86850119D01*
X136256000Y-86773928D01*
X136294095Y-86735833D01*
X136370285Y-86697738D01*
X136522666Y-86659642D01*
X136713142Y-86659642D01*
X136865523Y-86697738D01*
X136941714Y-86735833D01*
X136979809Y-86773928D01*
X137017904Y-86850119D01*
X137017904Y-86926309D01*
X136979809Y-87002500D01*
X136941714Y-87040595D01*
X136865523Y-87078690D01*
X136713142Y-87116785D01*
X136522666Y-87116785D01*
X136370285Y-87078690D01*
X136294095Y-87040595D01*
X136256000Y-87002500D01*
X136217904Y-86926309D01*
X137017904Y-85897738D02*
X137017904Y-86354880D01*
X137017904Y-86126309D02*
X136217904Y-86126309D01*
X136332190Y-86202500D01*
X136408380Y-86278690D01*
X136446476Y-86354880D01*
X136598857Y-84678690D02*
X136636952Y-84564404D01*
X136675047Y-84526309D01*
X136751238Y-84488214D01*
X136865523Y-84488214D01*
X136941714Y-84526309D01*
X136979809Y-84564404D01*
X137017904Y-84640595D01*
X137017904Y-84945357D01*
X136217904Y-84945357D01*
X136217904Y-84678690D01*
X136256000Y-84602500D01*
X136294095Y-84564404D01*
X136370285Y-84526309D01*
X136446476Y-84526309D01*
X136522666Y-84564404D01*
X136560761Y-84602500D01*
X136598857Y-84678690D01*
X136598857Y-84945357D01*
X137017904Y-84145357D02*
X136484571Y-84145357D01*
X136636952Y-84145357D02*
X136560761Y-84107261D01*
X136522666Y-84069166D01*
X136484571Y-83992976D01*
X136484571Y-83916785D01*
X136979809Y-83345357D02*
X137017904Y-83421547D01*
X137017904Y-83573928D01*
X136979809Y-83650119D01*
X136903619Y-83688214D01*
X136598857Y-83688214D01*
X136522666Y-83650119D01*
X136484571Y-83573928D01*
X136484571Y-83421547D01*
X136522666Y-83345357D01*
X136598857Y-83307261D01*
X136675047Y-83307261D01*
X136751238Y-83688214D01*
X137017904Y-82621547D02*
X136598857Y-82621547D01*
X136522666Y-82659642D01*
X136484571Y-82735833D01*
X136484571Y-82888214D01*
X136522666Y-82964404D01*
X136979809Y-82621547D02*
X137017904Y-82697738D01*
X137017904Y-82888214D01*
X136979809Y-82964404D01*
X136903619Y-83002500D01*
X136827428Y-83002500D01*
X136751238Y-82964404D01*
X136713142Y-82888214D01*
X136713142Y-82697738D01*
X136675047Y-82621547D01*
X137017904Y-82240595D02*
X136217904Y-82240595D01*
X136713142Y-82164404D02*
X137017904Y-81935833D01*
X136484571Y-81935833D02*
X136789333Y-82240595D01*
X137017904Y-81478690D02*
X136979809Y-81554880D01*
X136941714Y-81592976D01*
X136865523Y-81631071D01*
X136636952Y-81631071D01*
X136560761Y-81592976D01*
X136522666Y-81554880D01*
X136484571Y-81478690D01*
X136484571Y-81364404D01*
X136522666Y-81288214D01*
X136560761Y-81250119D01*
X136636952Y-81212023D01*
X136865523Y-81212023D01*
X136941714Y-81250119D01*
X136979809Y-81288214D01*
X137017904Y-81364404D01*
X137017904Y-81478690D01*
X136484571Y-80526309D02*
X137017904Y-80526309D01*
X136484571Y-80869166D02*
X136903619Y-80869166D01*
X136979809Y-80831071D01*
X137017904Y-80754880D01*
X137017904Y-80640595D01*
X136979809Y-80564404D01*
X136941714Y-80526309D01*
X136484571Y-80259642D02*
X136484571Y-79954880D01*
X136217904Y-80145357D02*
X136903619Y-80145357D01*
X136979809Y-80107261D01*
X137017904Y-80031071D01*
X137017904Y-79954880D01*
X137582095Y-91650119D02*
X137544000Y-91612023D01*
X137505904Y-91535833D01*
X137505904Y-91345357D01*
X137544000Y-91269166D01*
X137582095Y-91231071D01*
X137658285Y-91192976D01*
X137734476Y-91192976D01*
X137848761Y-91231071D01*
X138305904Y-91688214D01*
X138305904Y-91192976D01*
X137505904Y-90697738D02*
X137505904Y-90621547D01*
X137544000Y-90545357D01*
X137582095Y-90507261D01*
X137658285Y-90469166D01*
X137810666Y-90431071D01*
X138001142Y-90431071D01*
X138153523Y-90469166D01*
X138229714Y-90507261D01*
X138267809Y-90545357D01*
X138305904Y-90621547D01*
X138305904Y-90697738D01*
X138267809Y-90773928D01*
X138229714Y-90812023D01*
X138153523Y-90850119D01*
X138001142Y-90888214D01*
X137810666Y-90888214D01*
X137658285Y-90850119D01*
X137582095Y-90812023D01*
X137544000Y-90773928D01*
X137505904Y-90697738D01*
X137582095Y-90126309D02*
X137544000Y-90088214D01*
X137505904Y-90012023D01*
X137505904Y-89821547D01*
X137544000Y-89745357D01*
X137582095Y-89707261D01*
X137658285Y-89669166D01*
X137734476Y-89669166D01*
X137848761Y-89707261D01*
X138305904Y-90164404D01*
X138305904Y-89669166D01*
X137582095Y-89364404D02*
X137544000Y-89326309D01*
X137505904Y-89250119D01*
X137505904Y-89059642D01*
X137544000Y-88983452D01*
X137582095Y-88945357D01*
X137658285Y-88907261D01*
X137734476Y-88907261D01*
X137848761Y-88945357D01*
X138305904Y-89402500D01*
X138305904Y-88907261D01*
X137467809Y-87992976D02*
X138496380Y-88678690D01*
X137505904Y-87497738D02*
X138077333Y-87497738D01*
X138191619Y-87535833D01*
X138267809Y-87612023D01*
X138305904Y-87726309D01*
X138305904Y-87802500D01*
X138305904Y-86773928D02*
X137886857Y-86773928D01*
X137810666Y-86812023D01*
X137772571Y-86888214D01*
X137772571Y-87040595D01*
X137810666Y-87116785D01*
X138267809Y-86773928D02*
X138305904Y-86850119D01*
X138305904Y-87040595D01*
X138267809Y-87116785D01*
X138191619Y-87154880D01*
X138115428Y-87154880D01*
X138039238Y-87116785D01*
X138001142Y-87040595D01*
X138001142Y-86850119D01*
X137963047Y-86773928D01*
X137772571Y-86392976D02*
X138305904Y-86392976D01*
X137848761Y-86392976D02*
X137810666Y-86354880D01*
X137772571Y-86278690D01*
X137772571Y-86164404D01*
X137810666Y-86088214D01*
X137886857Y-86050119D01*
X138305904Y-86050119D01*
X138305904Y-84602500D02*
X137924952Y-84869166D01*
X138305904Y-85059642D02*
X137505904Y-85059642D01*
X137505904Y-84754880D01*
X137544000Y-84678690D01*
X137582095Y-84640595D01*
X137658285Y-84602500D01*
X137772571Y-84602500D01*
X137848761Y-84640595D01*
X137886857Y-84678690D01*
X137924952Y-84754880D01*
X137924952Y-85059642D01*
X138267809Y-83954880D02*
X138305904Y-84031071D01*
X138305904Y-84183452D01*
X138267809Y-84259642D01*
X138191619Y-84297738D01*
X137886857Y-84297738D01*
X137810666Y-84259642D01*
X137772571Y-84183452D01*
X137772571Y-84031071D01*
X137810666Y-83954880D01*
X137886857Y-83916785D01*
X137963047Y-83916785D01*
X138039238Y-84297738D01*
X137772571Y-83650119D02*
X138305904Y-83459642D01*
X137772571Y-83269166D01*
X138229714Y-82964404D02*
X138267809Y-82926309D01*
X138305904Y-82964404D01*
X138267809Y-83002500D01*
X138229714Y-82964404D01*
X138305904Y-82964404D01*
X137886857Y-82316785D02*
X137924952Y-82202500D01*
X137963047Y-82164404D01*
X138039238Y-82126309D01*
X138153523Y-82126309D01*
X138229714Y-82164404D01*
X138267809Y-82202500D01*
X138305904Y-82278690D01*
X138305904Y-82583452D01*
X137505904Y-82583452D01*
X137505904Y-82316785D01*
X137544000Y-82240595D01*
X137582095Y-82202500D01*
X137658285Y-82164404D01*
X137734476Y-82164404D01*
X137810666Y-82202500D01*
X137848761Y-82240595D01*
X137886857Y-82316785D01*
X137886857Y-82583452D01*
X132561904Y-91282023D02*
X131761904Y-91282023D01*
X131838095Y-90939166D02*
X131800000Y-90901071D01*
X131761904Y-90824880D01*
X131761904Y-90634404D01*
X131800000Y-90558214D01*
X131838095Y-90520119D01*
X131914285Y-90482023D01*
X131990476Y-90482023D01*
X132104761Y-90520119D01*
X132561904Y-90977261D01*
X132561904Y-90482023D01*
X132523809Y-90177261D02*
X132561904Y-90062976D01*
X132561904Y-89872500D01*
X132523809Y-89796309D01*
X132485714Y-89758214D01*
X132409523Y-89720119D01*
X132333333Y-89720119D01*
X132257142Y-89758214D01*
X132219047Y-89796309D01*
X132180952Y-89872500D01*
X132142857Y-90024880D01*
X132104761Y-90101071D01*
X132066666Y-90139166D01*
X131990476Y-90177261D01*
X131914285Y-90177261D01*
X131838095Y-90139166D01*
X131800000Y-90101071D01*
X131761904Y-90024880D01*
X131761904Y-89834404D01*
X131800000Y-89720119D01*
X131761904Y-88615357D02*
X131761904Y-88462976D01*
X131800000Y-88386785D01*
X131876190Y-88310595D01*
X132028571Y-88272500D01*
X132295238Y-88272500D01*
X132447619Y-88310595D01*
X132523809Y-88386785D01*
X132561904Y-88462976D01*
X132561904Y-88615357D01*
X132523809Y-88691547D01*
X132447619Y-88767738D01*
X132295238Y-88805833D01*
X132028571Y-88805833D01*
X131876190Y-88767738D01*
X131800000Y-88691547D01*
X131761904Y-88615357D01*
X131761904Y-87929642D02*
X132409523Y-87929642D01*
X132485714Y-87891547D01*
X132523809Y-87853452D01*
X132561904Y-87777261D01*
X132561904Y-87624880D01*
X132523809Y-87548690D01*
X132485714Y-87510595D01*
X132409523Y-87472500D01*
X131761904Y-87472500D01*
X131761904Y-87205833D02*
X131761904Y-86748690D01*
X132561904Y-86977261D02*
X131761904Y-86977261D01*
%TO.C,C11*%
X133123214Y-64085714D02*
X133085119Y-64123809D01*
X132970833Y-64161904D01*
X132894642Y-64161904D01*
X132780357Y-64123809D01*
X132704166Y-64047619D01*
X132666071Y-63971428D01*
X132627976Y-63819047D01*
X132627976Y-63704761D01*
X132666071Y-63552380D01*
X132704166Y-63476190D01*
X132780357Y-63400000D01*
X132894642Y-63361904D01*
X132970833Y-63361904D01*
X133085119Y-63400000D01*
X133123214Y-63438095D01*
X133885119Y-64161904D02*
X133427976Y-64161904D01*
X133656547Y-64161904D02*
X133656547Y-63361904D01*
X133580357Y-63476190D01*
X133504166Y-63552380D01*
X133427976Y-63590476D01*
X134647023Y-64161904D02*
X134189880Y-64161904D01*
X134418452Y-64161904D02*
X134418452Y-63361904D01*
X134342261Y-63476190D01*
X134266071Y-63552380D01*
X134189880Y-63590476D01*
%TO.C,C18*%
X139485714Y-57585714D02*
X139447619Y-57623809D01*
X139333333Y-57661904D01*
X139257142Y-57661904D01*
X139142857Y-57623809D01*
X139066666Y-57547619D01*
X139028571Y-57471428D01*
X138990476Y-57319047D01*
X138990476Y-57204761D01*
X139028571Y-57052380D01*
X139066666Y-56976190D01*
X139142857Y-56900000D01*
X139257142Y-56861904D01*
X139333333Y-56861904D01*
X139447619Y-56900000D01*
X139485714Y-56938095D01*
X140247619Y-57661904D02*
X139790476Y-57661904D01*
X140019047Y-57661904D02*
X140019047Y-56861904D01*
X139942857Y-56976190D01*
X139866666Y-57052380D01*
X139790476Y-57090476D01*
X140704761Y-57204761D02*
X140628571Y-57166666D01*
X140590476Y-57128571D01*
X140552380Y-57052380D01*
X140552380Y-57014285D01*
X140590476Y-56938095D01*
X140628571Y-56900000D01*
X140704761Y-56861904D01*
X140857142Y-56861904D01*
X140933333Y-56900000D01*
X140971428Y-56938095D01*
X141009523Y-57014285D01*
X141009523Y-57052380D01*
X140971428Y-57128571D01*
X140933333Y-57166666D01*
X140857142Y-57204761D01*
X140704761Y-57204761D01*
X140628571Y-57242857D01*
X140590476Y-57280952D01*
X140552380Y-57357142D01*
X140552380Y-57509523D01*
X140590476Y-57585714D01*
X140628571Y-57623809D01*
X140704761Y-57661904D01*
X140857142Y-57661904D01*
X140933333Y-57623809D01*
X140971428Y-57585714D01*
X141009523Y-57509523D01*
X141009523Y-57357142D01*
X140971428Y-57280952D01*
X140933333Y-57242857D01*
X140857142Y-57204761D01*
%TO.C,C6*%
X145705714Y-60193333D02*
X145743809Y-60231428D01*
X145781904Y-60345714D01*
X145781904Y-60421904D01*
X145743809Y-60536190D01*
X145667619Y-60612380D01*
X145591428Y-60650476D01*
X145439047Y-60688571D01*
X145324761Y-60688571D01*
X145172380Y-60650476D01*
X145096190Y-60612380D01*
X145020000Y-60536190D01*
X144981904Y-60421904D01*
X144981904Y-60345714D01*
X145020000Y-60231428D01*
X145058095Y-60193333D01*
X144981904Y-59507619D02*
X144981904Y-59660000D01*
X145020000Y-59736190D01*
X145058095Y-59774285D01*
X145172380Y-59850476D01*
X145324761Y-59888571D01*
X145629523Y-59888571D01*
X145705714Y-59850476D01*
X145743809Y-59812380D01*
X145781904Y-59736190D01*
X145781904Y-59583809D01*
X145743809Y-59507619D01*
X145705714Y-59469523D01*
X145629523Y-59431428D01*
X145439047Y-59431428D01*
X145362857Y-59469523D01*
X145324761Y-59507619D01*
X145286666Y-59583809D01*
X145286666Y-59736190D01*
X145324761Y-59812380D01*
X145362857Y-59850476D01*
X145439047Y-59888571D01*
%TO.C,U1*%
X136645221Y-69681218D02*
X137103157Y-70139154D01*
X137183969Y-70166091D01*
X137237844Y-70166091D01*
X137318656Y-70139154D01*
X137426406Y-70031404D01*
X137453343Y-69950592D01*
X137453343Y-69896717D01*
X137426406Y-69815905D01*
X136968470Y-69357969D01*
X138099841Y-69357969D02*
X137776592Y-69681218D01*
X137938216Y-69519593D02*
X137372531Y-68953908D01*
X137399468Y-69088595D01*
X137399468Y-69196345D01*
X137372531Y-69277157D01*
%TO.C,C16*%
X143879175Y-68957285D02*
X143879175Y-69011160D01*
X143825300Y-69118909D01*
X143771425Y-69172784D01*
X143663676Y-69226659D01*
X143555926Y-69226659D01*
X143475114Y-69199722D01*
X143340427Y-69118909D01*
X143259615Y-69038097D01*
X143178803Y-68903410D01*
X143151865Y-68822598D01*
X143151865Y-68714848D01*
X143205740Y-68607099D01*
X143259615Y-68553224D01*
X143367364Y-68499349D01*
X143421239Y-68499349D01*
X144471798Y-68472412D02*
X144148549Y-68795661D01*
X144310174Y-68634036D02*
X143744488Y-68068351D01*
X143771425Y-68203038D01*
X143771425Y-68310787D01*
X143744488Y-68391600D01*
X144390986Y-67421853D02*
X144283236Y-67529603D01*
X144256299Y-67610415D01*
X144256299Y-67664290D01*
X144283236Y-67798977D01*
X144364048Y-67933664D01*
X144579548Y-68149163D01*
X144660360Y-68176100D01*
X144714235Y-68176100D01*
X144795047Y-68149163D01*
X144902796Y-68041413D01*
X144929734Y-67960601D01*
X144929734Y-67906726D01*
X144902796Y-67825914D01*
X144768109Y-67691227D01*
X144687297Y-67664290D01*
X144633422Y-67664290D01*
X144552610Y-67691227D01*
X144444861Y-67798977D01*
X144417923Y-67879789D01*
X144417923Y-67933664D01*
X144444861Y-68014476D01*
%TO.C,TP2*%
X133842857Y-65461904D02*
X133385714Y-65461904D01*
X133614285Y-65461904D02*
X133614285Y-64661904D01*
X133538095Y-64776190D01*
X133461904Y-64852380D01*
X133385714Y-64890476D01*
X134109523Y-64928571D02*
X134300000Y-65461904D01*
X134490476Y-64928571D01*
X134909523Y-65004761D02*
X134833333Y-64966666D01*
X134795238Y-64928571D01*
X134757142Y-64852380D01*
X134757142Y-64814285D01*
X134795238Y-64738095D01*
X134833333Y-64700000D01*
X134909523Y-64661904D01*
X135061904Y-64661904D01*
X135138095Y-64700000D01*
X135176190Y-64738095D01*
X135214285Y-64814285D01*
X135214285Y-64852380D01*
X135176190Y-64928571D01*
X135138095Y-64966666D01*
X135061904Y-65004761D01*
X134909523Y-65004761D01*
X134833333Y-65042857D01*
X134795238Y-65080952D01*
X134757142Y-65157142D01*
X134757142Y-65309523D01*
X134795238Y-65385714D01*
X134833333Y-65423809D01*
X134909523Y-65461904D01*
X135061904Y-65461904D01*
X135138095Y-65423809D01*
X135176190Y-65385714D01*
X135214285Y-65309523D01*
X135214285Y-65157142D01*
X135176190Y-65080952D01*
X135138095Y-65042857D01*
X135061904Y-65004761D01*
%TO.C,C5*%
X146745714Y-60143333D02*
X146783809Y-60181428D01*
X146821904Y-60295714D01*
X146821904Y-60371904D01*
X146783809Y-60486190D01*
X146707619Y-60562380D01*
X146631428Y-60600476D01*
X146479047Y-60638571D01*
X146364761Y-60638571D01*
X146212380Y-60600476D01*
X146136190Y-60562380D01*
X146060000Y-60486190D01*
X146021904Y-60371904D01*
X146021904Y-60295714D01*
X146060000Y-60181428D01*
X146098095Y-60143333D01*
X146021904Y-59419523D02*
X146021904Y-59800476D01*
X146402857Y-59838571D01*
X146364761Y-59800476D01*
X146326666Y-59724285D01*
X146326666Y-59533809D01*
X146364761Y-59457619D01*
X146402857Y-59419523D01*
X146479047Y-59381428D01*
X146669523Y-59381428D01*
X146745714Y-59419523D01*
X146783809Y-59457619D01*
X146821904Y-59533809D01*
X146821904Y-59724285D01*
X146783809Y-59800476D01*
X146745714Y-59838571D01*
%TO.C,C9*%
X138485714Y-65433333D02*
X138523809Y-65471428D01*
X138561904Y-65585714D01*
X138561904Y-65661904D01*
X138523809Y-65776190D01*
X138447619Y-65852380D01*
X138371428Y-65890476D01*
X138219047Y-65928571D01*
X138104761Y-65928571D01*
X137952380Y-65890476D01*
X137876190Y-65852380D01*
X137800000Y-65776190D01*
X137761904Y-65661904D01*
X137761904Y-65585714D01*
X137800000Y-65471428D01*
X137838095Y-65433333D01*
X138561904Y-65052380D02*
X138561904Y-64900000D01*
X138523809Y-64823809D01*
X138485714Y-64785714D01*
X138371428Y-64709523D01*
X138219047Y-64671428D01*
X137914285Y-64671428D01*
X137838095Y-64709523D01*
X137800000Y-64747619D01*
X137761904Y-64823809D01*
X137761904Y-64976190D01*
X137800000Y-65052380D01*
X137838095Y-65090476D01*
X137914285Y-65128571D01*
X138104761Y-65128571D01*
X138180952Y-65090476D01*
X138219047Y-65052380D01*
X138257142Y-64976190D01*
X138257142Y-64823809D01*
X138219047Y-64747619D01*
X138180952Y-64709523D01*
X138104761Y-64671428D01*
%TO.C,C3*%
X141366666Y-61585714D02*
X141328571Y-61623809D01*
X141214285Y-61661904D01*
X141138095Y-61661904D01*
X141023809Y-61623809D01*
X140947619Y-61547619D01*
X140909523Y-61471428D01*
X140871428Y-61319047D01*
X140871428Y-61204761D01*
X140909523Y-61052380D01*
X140947619Y-60976190D01*
X141023809Y-60900000D01*
X141138095Y-60861904D01*
X141214285Y-60861904D01*
X141328571Y-60900000D01*
X141366666Y-60938095D01*
X141633333Y-60861904D02*
X142128571Y-60861904D01*
X141861904Y-61166666D01*
X141976190Y-61166666D01*
X142052380Y-61204761D01*
X142090476Y-61242857D01*
X142128571Y-61319047D01*
X142128571Y-61509523D01*
X142090476Y-61585714D01*
X142052380Y-61623809D01*
X141976190Y-61661904D01*
X141747619Y-61661904D01*
X141671428Y-61623809D01*
X141633333Y-61585714D01*
%TO.C,U2*%
X136268476Y-56929904D02*
X136268476Y-57577523D01*
X136306571Y-57653714D01*
X136344666Y-57691809D01*
X136420857Y-57729904D01*
X136573238Y-57729904D01*
X136649428Y-57691809D01*
X136687523Y-57653714D01*
X136725619Y-57577523D01*
X136725619Y-56929904D01*
X137068476Y-57006095D02*
X137106571Y-56968000D01*
X137182761Y-56929904D01*
X137373238Y-56929904D01*
X137449428Y-56968000D01*
X137487523Y-57006095D01*
X137525619Y-57082285D01*
X137525619Y-57158476D01*
X137487523Y-57272761D01*
X137030380Y-57729904D01*
X137525619Y-57729904D01*
%TO.C,C7*%
X145207749Y-70666311D02*
X145207749Y-70720186D01*
X145153874Y-70827935D01*
X145100000Y-70881810D01*
X144992250Y-70935685D01*
X144884500Y-70935685D01*
X144803688Y-70908748D01*
X144669001Y-70827935D01*
X144588189Y-70747123D01*
X144507377Y-70612436D01*
X144480439Y-70531624D01*
X144480439Y-70423874D01*
X144534314Y-70316125D01*
X144588189Y-70262250D01*
X144695938Y-70208375D01*
X144749813Y-70208375D01*
X144884500Y-69965938D02*
X145261624Y-69588815D01*
X145584873Y-70396937D01*
%TO.C,C8*%
X131537749Y-76166311D02*
X131537749Y-76220186D01*
X131483874Y-76327935D01*
X131429999Y-76381810D01*
X131322250Y-76435685D01*
X131214500Y-76435685D01*
X131133688Y-76408748D01*
X130999001Y-76327935D01*
X130918189Y-76247123D01*
X130837377Y-76112436D01*
X130810439Y-76031624D01*
X130810439Y-75923874D01*
X130864314Y-75816125D01*
X130918189Y-75762250D01*
X131025938Y-75708375D01*
X131079813Y-75708375D01*
X131591624Y-75573688D02*
X131510812Y-75600625D01*
X131456937Y-75600625D01*
X131376125Y-75573688D01*
X131349187Y-75546751D01*
X131322250Y-75465938D01*
X131322250Y-75412064D01*
X131349187Y-75331251D01*
X131456937Y-75223502D01*
X131537749Y-75196564D01*
X131591624Y-75196564D01*
X131672436Y-75223502D01*
X131699374Y-75250439D01*
X131726311Y-75331251D01*
X131726311Y-75385126D01*
X131699374Y-75465938D01*
X131591624Y-75573688D01*
X131564687Y-75654500D01*
X131564687Y-75708375D01*
X131591624Y-75789187D01*
X131699374Y-75896937D01*
X131780186Y-75923874D01*
X131834061Y-75923874D01*
X131914873Y-75896937D01*
X132022622Y-75789187D01*
X132049560Y-75708375D01*
X132049560Y-75654500D01*
X132022622Y-75573688D01*
X131914873Y-75465938D01*
X131834061Y-75439001D01*
X131780186Y-75439001D01*
X131699374Y-75465938D01*
%TO.C,C12*%
X130458375Y-72875685D02*
X130458375Y-72929560D01*
X130404500Y-73037309D01*
X130350625Y-73091184D01*
X130242876Y-73145059D01*
X130135126Y-73145059D01*
X130054314Y-73118122D01*
X129919627Y-73037309D01*
X129838815Y-72956497D01*
X129758003Y-72821810D01*
X129731065Y-72740998D01*
X129731065Y-72633248D01*
X129784940Y-72525499D01*
X129838815Y-72471624D01*
X129946564Y-72417749D01*
X130000439Y-72417749D01*
X131050998Y-72390812D02*
X130727749Y-72714061D01*
X130889374Y-72552436D02*
X130323688Y-71986751D01*
X130350625Y-72121438D01*
X130350625Y-72229187D01*
X130323688Y-72310000D01*
X130754687Y-71663502D02*
X130754687Y-71609627D01*
X130781624Y-71528815D01*
X130916311Y-71394128D01*
X130997123Y-71367190D01*
X131050998Y-71367190D01*
X131131810Y-71394128D01*
X131185685Y-71448003D01*
X131239560Y-71555752D01*
X131239560Y-72202250D01*
X131589746Y-71852064D01*
%TO.C,C2*%
X142887749Y-75996311D02*
X142887749Y-76050186D01*
X142833874Y-76157935D01*
X142780000Y-76211810D01*
X142672250Y-76265685D01*
X142564500Y-76265685D01*
X142483688Y-76238748D01*
X142349001Y-76157935D01*
X142268189Y-76077123D01*
X142187377Y-75942436D01*
X142160439Y-75861624D01*
X142160439Y-75753874D01*
X142214314Y-75646125D01*
X142268189Y-75592250D01*
X142375938Y-75538375D01*
X142429813Y-75538375D01*
X142645312Y-75322876D02*
X142645312Y-75269001D01*
X142672250Y-75188189D01*
X142806937Y-75053502D01*
X142887749Y-75026564D01*
X142941624Y-75026564D01*
X143022436Y-75053502D01*
X143076311Y-75107377D01*
X143130186Y-75215126D01*
X143130186Y-75861624D01*
X143480372Y-75511438D01*
%TO.C,C19*%
X133085714Y-62585714D02*
X133047619Y-62623809D01*
X132933333Y-62661904D01*
X132857142Y-62661904D01*
X132742857Y-62623809D01*
X132666666Y-62547619D01*
X132628571Y-62471428D01*
X132590476Y-62319047D01*
X132590476Y-62204761D01*
X132628571Y-62052380D01*
X132666666Y-61976190D01*
X132742857Y-61900000D01*
X132857142Y-61861904D01*
X132933333Y-61861904D01*
X133047619Y-61900000D01*
X133085714Y-61938095D01*
X133847619Y-62661904D02*
X133390476Y-62661904D01*
X133619047Y-62661904D02*
X133619047Y-61861904D01*
X133542857Y-61976190D01*
X133466666Y-62052380D01*
X133390476Y-62090476D01*
X134228571Y-62661904D02*
X134380952Y-62661904D01*
X134457142Y-62623809D01*
X134495238Y-62585714D01*
X134571428Y-62471428D01*
X134609523Y-62319047D01*
X134609523Y-62014285D01*
X134571428Y-61938095D01*
X134533333Y-61900000D01*
X134457142Y-61861904D01*
X134304761Y-61861904D01*
X134228571Y-61900000D01*
X134190476Y-61938095D01*
X134152380Y-62014285D01*
X134152380Y-62204761D01*
X134190476Y-62280952D01*
X134228571Y-62319047D01*
X134304761Y-62357142D01*
X134457142Y-62357142D01*
X134533333Y-62319047D01*
X134571428Y-62280952D01*
X134609523Y-62204761D01*
%TO.C,C14*%
X141720175Y-66874485D02*
X141720175Y-66928360D01*
X141666300Y-67036109D01*
X141612425Y-67089984D01*
X141504676Y-67143859D01*
X141396926Y-67143859D01*
X141316114Y-67116922D01*
X141181427Y-67036109D01*
X141100615Y-66955297D01*
X141019803Y-66820610D01*
X140992865Y-66739798D01*
X140992865Y-66632048D01*
X141046740Y-66524299D01*
X141100615Y-66470424D01*
X141208364Y-66416549D01*
X141262239Y-66416549D01*
X142312798Y-66389612D02*
X141989549Y-66712861D01*
X142151174Y-66551236D02*
X141585488Y-65985551D01*
X141612425Y-66120238D01*
X141612425Y-66227987D01*
X141585488Y-66308800D01*
X142420548Y-65527615D02*
X142797671Y-65904738D01*
X142070361Y-65446803D02*
X142339735Y-65985551D01*
X142689922Y-65635364D01*
%TO.C,R1*%
X146950186Y-72508375D02*
X146869374Y-72966311D01*
X147273435Y-72831624D02*
X146707749Y-73397309D01*
X146492250Y-73181810D01*
X146465312Y-73100998D01*
X146465312Y-73047123D01*
X146492250Y-72966311D01*
X146573062Y-72885499D01*
X146653874Y-72858561D01*
X146707749Y-72858561D01*
X146788561Y-72885499D01*
X147004061Y-73100998D01*
X146411438Y-71969627D02*
X146734687Y-72292876D01*
X146573062Y-72131251D02*
X146007377Y-72696937D01*
X146142064Y-72670000D01*
X146249813Y-72670000D01*
X146330625Y-72696937D01*
%TO.C,C1*%
X143617749Y-76676312D02*
X143617749Y-76730187D01*
X143563874Y-76837936D01*
X143510000Y-76891811D01*
X143402250Y-76945686D01*
X143294500Y-76945686D01*
X143213688Y-76918749D01*
X143079001Y-76837936D01*
X142998189Y-76757124D01*
X142917377Y-76622437D01*
X142890439Y-76541625D01*
X142890439Y-76433875D01*
X142944314Y-76326126D01*
X142998189Y-76272251D01*
X143105938Y-76218376D01*
X143159813Y-76218376D01*
X144210372Y-76191439D02*
X143887123Y-76514688D01*
X144048748Y-76353063D02*
X143483062Y-75787378D01*
X143510000Y-75922065D01*
X143510000Y-76029814D01*
X143483062Y-76110626D01*
%TO.C,C4*%
X141088066Y-65095914D02*
X141049971Y-65134009D01*
X140935685Y-65172104D01*
X140859495Y-65172104D01*
X140745209Y-65134009D01*
X140669019Y-65057819D01*
X140630923Y-64981628D01*
X140592828Y-64829247D01*
X140592828Y-64714961D01*
X140630923Y-64562580D01*
X140669019Y-64486390D01*
X140745209Y-64410200D01*
X140859495Y-64372104D01*
X140935685Y-64372104D01*
X141049971Y-64410200D01*
X141088066Y-64448295D01*
X141773780Y-64638771D02*
X141773780Y-65172104D01*
X141583304Y-64334009D02*
X141392828Y-64905438D01*
X141888066Y-64905438D01*
D11*
%TO.C,C11*%
X136646267Y-63290000D02*
X136353733Y-63290000D01*
X136646267Y-64310000D02*
X136353733Y-64310000D01*
%TO.C,kibuzzard-61DADF53*%
G36*
X142173496Y-81280000D02*
G01*
X142634587Y-80588363D01*
X148402504Y-80588363D01*
X148402504Y-81971637D01*
X142634587Y-81971637D01*
X142481900Y-81742607D01*
X142899171Y-81742607D01*
X143082725Y-81742607D01*
X143138536Y-81514404D01*
X143382862Y-81514404D01*
X143439913Y-81742607D01*
X143623468Y-81742607D01*
X143557646Y-81499521D01*
X143745011Y-81499521D01*
X143757723Y-81611143D01*
X143795860Y-81692998D01*
X143858182Y-81743228D01*
X143943448Y-81759971D01*
X144023926Y-81746604D01*
X144083457Y-81706503D01*
X144122042Y-81639668D01*
X144139405Y-81742607D01*
X144303116Y-81742607D01*
X144446983Y-81742607D01*
X144657823Y-81742607D01*
X144794249Y-81509443D01*
X144930675Y-81742607D01*
X145142755Y-81742607D01*
X145198565Y-81742607D01*
X145382120Y-81742607D01*
X145437931Y-81514404D01*
X145682257Y-81514404D01*
X145739308Y-81742607D01*
X145922862Y-81742607D01*
X146029522Y-81742607D01*
X146225479Y-81742607D01*
X146331519Y-81735786D01*
X146421436Y-81715322D01*
X146495230Y-81681216D01*
X146552901Y-81633467D01*
X146596309Y-81570370D01*
X146627315Y-81490220D01*
X146645919Y-81393016D01*
X146651985Y-81281240D01*
X146797227Y-81281240D01*
X146803429Y-81390923D01*
X146822032Y-81486809D01*
X146853038Y-81568897D01*
X146896446Y-81637188D01*
X146951482Y-81690905D01*
X147017369Y-81729275D01*
X147094109Y-81752297D01*
X147181700Y-81759971D01*
X147283399Y-81750049D01*
X147373936Y-81715322D01*
X147373936Y-81608662D01*
X147550050Y-81608662D01*
X147550050Y-81742607D01*
X148137921Y-81742607D01*
X148137921Y-81581377D01*
X147728643Y-81581377D01*
X147760890Y-81552852D01*
X147803678Y-81520605D01*
X147874991Y-81453633D01*
X147941189Y-81386040D01*
X147990953Y-81334570D01*
X148054825Y-81263877D01*
X148091102Y-81211167D01*
X148118077Y-81157217D01*
X148135440Y-81057998D01*
X148130014Y-80998002D01*
X148113736Y-80946997D01*
X148052345Y-80868242D01*
X148004906Y-80837236D01*
X147949405Y-80816152D01*
X147888014Y-80804060D01*
X147822901Y-80800029D01*
X147762130Y-80803130D01*
X147698878Y-80812432D01*
X147640587Y-80826694D01*
X147569893Y-80849639D01*
X147569893Y-81020791D01*
X147634386Y-80987305D01*
X147696397Y-80963740D01*
X147752518Y-80948857D01*
X147806778Y-80943896D01*
X147867395Y-80952423D01*
X147912818Y-80978003D01*
X147941189Y-81018466D01*
X147950645Y-81071641D01*
X147929561Y-81154736D01*
X147902276Y-81199385D01*
X147862589Y-81248994D01*
X147820421Y-81296123D01*
X147758409Y-81363716D01*
X147711280Y-81414410D01*
X147649268Y-81480918D01*
X147564933Y-81570215D01*
X147550050Y-81608662D01*
X147373936Y-81608662D01*
X147373936Y-81511924D01*
X147326808Y-81551611D01*
X147283399Y-81576416D01*
X147190382Y-81596260D01*
X147103875Y-81576416D01*
X147040313Y-81516885D01*
X147011375Y-81455424D01*
X146994011Y-81376876D01*
X146988224Y-81281240D01*
X146994011Y-81185329D01*
X147011375Y-81105954D01*
X147040313Y-81043115D01*
X147103875Y-80983584D01*
X147190382Y-80963740D01*
X147236270Y-80968701D01*
X147282159Y-80983584D01*
X147324327Y-81007769D01*
X147373936Y-81048076D01*
X147373936Y-80844678D01*
X147283399Y-80811191D01*
X147181700Y-80800029D01*
X147094109Y-80807781D01*
X147017369Y-80831035D01*
X146951482Y-80869792D01*
X146896446Y-80924053D01*
X146853038Y-80992886D01*
X146822032Y-81075361D01*
X146803429Y-81171479D01*
X146797227Y-81281240D01*
X146651985Y-81281240D01*
X146652120Y-81278760D01*
X146649364Y-81198834D01*
X146641096Y-81127727D01*
X146627315Y-81065439D01*
X146596309Y-80986064D01*
X146552901Y-80924053D01*
X146495230Y-80877389D01*
X146421436Y-80844058D01*
X146331519Y-80824059D01*
X146225479Y-80817393D01*
X146029522Y-80817393D01*
X146029522Y-81742607D01*
X145922862Y-81742607D01*
X145672335Y-80817393D01*
X145449093Y-80817393D01*
X145198565Y-81742607D01*
X145142755Y-81742607D01*
X144888507Y-81380459D01*
X145121671Y-81048076D01*
X144910831Y-81048076D01*
X144794249Y-81255195D01*
X144678907Y-81048076D01*
X144466827Y-81048076D01*
X144702472Y-81380459D01*
X144446983Y-81742607D01*
X144303116Y-81742607D01*
X144303116Y-81048076D01*
X144122042Y-81048076D01*
X144122042Y-81447432D01*
X144114911Y-81515955D01*
X144093516Y-81567734D01*
X144012901Y-81611143D01*
X143964670Y-81595709D01*
X143935731Y-81549406D01*
X143926085Y-81472236D01*
X143926085Y-81048076D01*
X143745011Y-81048076D01*
X143745011Y-81499521D01*
X143557646Y-81499521D01*
X143372940Y-80817393D01*
X143149698Y-80817393D01*
X142899171Y-81742607D01*
X142481900Y-81742607D01*
X142173496Y-81280000D01*
G37*
G36*
X146355704Y-80998157D02*
G01*
X146416475Y-81049316D01*
X146441969Y-81105127D01*
X146457265Y-81181608D01*
X146462364Y-81278760D01*
X146457265Y-81376600D01*
X146441969Y-81453495D01*
X146416475Y-81509443D01*
X146355084Y-81560603D01*
X146262686Y-81577656D01*
X146213077Y-81577656D01*
X146213077Y-80981104D01*
X146262686Y-80981104D01*
X146355704Y-80998157D01*
G37*
G36*
X145647530Y-81363096D02*
G01*
X145473897Y-81363096D01*
X145560714Y-80983584D01*
X145647530Y-81363096D01*
G37*
G36*
X143348136Y-81363096D02*
G01*
X143174503Y-81363096D01*
X143261319Y-80983584D01*
X143348136Y-81363096D01*
G37*
%TO.C,C18*%
X140360000Y-59251665D02*
X140360000Y-59483335D01*
X139640000Y-59251665D02*
X139640000Y-59483335D01*
%TO.C,kibuzzard-61DADF35*%
G36*
X147737325Y-86601846D02*
G01*
X147719411Y-86543003D01*
X147708662Y-86462388D01*
X147705122Y-86361240D01*
X147762130Y-86361240D01*
X147784454Y-86435654D01*
X147837784Y-86465420D01*
X147891734Y-86436895D01*
X147913438Y-86361240D01*
X147891734Y-86284966D01*
X147837784Y-86255820D01*
X147783834Y-86284966D01*
X147762130Y-86361240D01*
X147705122Y-86361240D01*
X147705079Y-86360000D01*
X147708662Y-86258301D01*
X147719411Y-86178099D01*
X147737325Y-86119395D01*
X147778563Y-86062654D01*
X147837784Y-86043740D01*
X147897935Y-86062654D01*
X147939483Y-86119395D01*
X147957398Y-86178099D01*
X147968146Y-86258301D01*
X147971729Y-86360000D01*
X147968146Y-86462388D01*
X147957398Y-86543003D01*
X147939483Y-86601846D01*
X147897935Y-86657656D01*
X147837784Y-86676260D01*
X147778563Y-86657656D01*
X147737325Y-86601846D01*
G37*
G36*
X146334620Y-86078157D02*
G01*
X146395391Y-86129316D01*
X146420885Y-86185127D01*
X146436181Y-86261608D01*
X146441280Y-86358760D01*
X146436181Y-86456600D01*
X146420885Y-86533495D01*
X146395391Y-86589443D01*
X146334000Y-86640603D01*
X146241602Y-86657656D01*
X146191993Y-86657656D01*
X146191993Y-86061104D01*
X146241602Y-86061104D01*
X146334620Y-86078157D01*
G37*
G36*
X143327052Y-86443096D02*
G01*
X143153419Y-86443096D01*
X143240235Y-86063584D01*
X143327052Y-86443096D01*
G37*
G36*
X145626446Y-86443096D02*
G01*
X145452813Y-86443096D01*
X145539630Y-86063584D01*
X145626446Y-86443096D01*
G37*
G36*
X142152412Y-86360000D02*
G01*
X142613503Y-85668363D01*
X148423588Y-85668363D01*
X148423588Y-87051637D01*
X142613503Y-87051637D01*
X142460816Y-86822607D01*
X142878087Y-86822607D01*
X143061641Y-86822607D01*
X143117452Y-86594404D01*
X143361778Y-86594404D01*
X143418829Y-86822607D01*
X143602384Y-86822607D01*
X143536562Y-86579521D01*
X143723927Y-86579521D01*
X143736639Y-86691143D01*
X143774776Y-86772998D01*
X143837098Y-86823228D01*
X143922364Y-86839971D01*
X144002842Y-86826604D01*
X144062373Y-86786503D01*
X144100958Y-86719668D01*
X144118321Y-86822607D01*
X144282032Y-86822607D01*
X144425899Y-86822607D01*
X144636739Y-86822607D01*
X144773165Y-86589443D01*
X144909591Y-86822607D01*
X145121671Y-86822607D01*
X145177481Y-86822607D01*
X145361036Y-86822607D01*
X145416847Y-86594404D01*
X145661173Y-86594404D01*
X145718224Y-86822607D01*
X145901778Y-86822607D01*
X146008438Y-86822607D01*
X146204395Y-86822607D01*
X146310435Y-86815786D01*
X146400352Y-86795322D01*
X146474146Y-86761216D01*
X146531817Y-86713467D01*
X146575225Y-86650370D01*
X146606231Y-86570220D01*
X146624835Y-86473016D01*
X146630901Y-86361240D01*
X146776143Y-86361240D01*
X146782345Y-86470923D01*
X146800948Y-86566809D01*
X146831954Y-86648897D01*
X146875362Y-86717188D01*
X146930398Y-86770905D01*
X146996285Y-86809275D01*
X147073025Y-86832297D01*
X147160616Y-86839971D01*
X147262315Y-86830049D01*
X147352852Y-86795322D01*
X147352852Y-86591924D01*
X147305724Y-86631611D01*
X147262315Y-86656416D01*
X147169298Y-86676260D01*
X147082791Y-86656416D01*
X147019229Y-86596885D01*
X146990291Y-86535424D01*
X146972927Y-86456876D01*
X146967140Y-86361240D01*
X147516563Y-86361240D01*
X147521602Y-86472939D01*
X147536717Y-86569910D01*
X147561909Y-86652153D01*
X147597179Y-86719668D01*
X147641672Y-86771138D01*
X147695777Y-86808965D01*
X147760735Y-86832219D01*
X147837784Y-86839971D01*
X147914058Y-86832219D01*
X147979171Y-86808965D01*
X148033741Y-86770828D01*
X148078390Y-86718428D01*
X148113659Y-86650525D01*
X148138851Y-86568359D01*
X148153966Y-86471931D01*
X148159005Y-86361240D01*
X148153966Y-86249464D01*
X148138851Y-86152261D01*
X148113659Y-86069630D01*
X148078390Y-86001572D01*
X148015827Y-85934048D01*
X147935625Y-85893534D01*
X147837784Y-85880029D01*
X147766471Y-85887316D01*
X147701358Y-85909175D01*
X147644308Y-85946847D01*
X147597179Y-86001572D01*
X147561909Y-86070560D01*
X147536717Y-86153501D01*
X147521602Y-86250394D01*
X147516563Y-86361240D01*
X146967140Y-86361240D01*
X146972927Y-86265329D01*
X146990291Y-86185954D01*
X147019229Y-86123115D01*
X147082791Y-86063584D01*
X147169298Y-86043740D01*
X147215186Y-86048701D01*
X147261075Y-86063584D01*
X147303243Y-86087769D01*
X147352852Y-86128076D01*
X147352852Y-85924678D01*
X147262315Y-85891191D01*
X147160616Y-85880029D01*
X147073025Y-85887781D01*
X146996285Y-85911035D01*
X146930398Y-85949792D01*
X146875362Y-86004053D01*
X146831954Y-86072886D01*
X146800948Y-86155361D01*
X146782345Y-86251479D01*
X146776143Y-86361240D01*
X146630901Y-86361240D01*
X146631036Y-86358760D01*
X146628280Y-86278834D01*
X146620012Y-86207727D01*
X146606231Y-86145439D01*
X146575225Y-86066064D01*
X146531817Y-86004053D01*
X146474146Y-85957389D01*
X146400352Y-85924058D01*
X146310435Y-85904059D01*
X146204395Y-85897393D01*
X146008438Y-85897393D01*
X146008438Y-86822607D01*
X145901778Y-86822607D01*
X145651251Y-85897393D01*
X145428009Y-85897393D01*
X145177481Y-86822607D01*
X145121671Y-86822607D01*
X144867423Y-86460459D01*
X145100587Y-86128076D01*
X144889747Y-86128076D01*
X144773165Y-86335195D01*
X144657823Y-86128076D01*
X144445743Y-86128076D01*
X144681388Y-86460459D01*
X144425899Y-86822607D01*
X144282032Y-86822607D01*
X144282032Y-86128076D01*
X144100958Y-86128076D01*
X144100958Y-86527432D01*
X144093827Y-86595955D01*
X144072433Y-86647734D01*
X143991817Y-86691143D01*
X143943586Y-86675709D01*
X143914647Y-86629406D01*
X143905001Y-86552236D01*
X143905001Y-86128076D01*
X143723927Y-86128076D01*
X143723927Y-86579521D01*
X143536562Y-86579521D01*
X143351856Y-85897393D01*
X143128614Y-85897393D01*
X142878087Y-86822607D01*
X142460816Y-86822607D01*
X142152412Y-86360000D01*
G37*
%TO.C,C6*%
X143590000Y-59053733D02*
X143590000Y-59346267D01*
X144610000Y-59053733D02*
X144610000Y-59346267D01*
%TO.C,kibuzzard-61DADEF7*%
G36*
X148630211Y-59111637D02*
G01*
X145962880Y-59111637D01*
X145792003Y-58855322D01*
X146227464Y-58855322D01*
X146294436Y-58875166D01*
X146358929Y-58888809D01*
X146428382Y-58897490D01*
X146495354Y-58899971D01*
X146597191Y-58892116D01*
X146681114Y-58868551D01*
X146747122Y-58829277D01*
X146794664Y-58775258D01*
X146823190Y-58707459D01*
X146832698Y-58625879D01*
X146819676Y-58533481D01*
X146780608Y-58462168D01*
X146716736Y-58412249D01*
X146629300Y-58384033D01*
X146706194Y-58357988D01*
X146763245Y-58314580D01*
X146800452Y-58253809D01*
X146809365Y-58188076D01*
X146966643Y-58188076D01*
X147187405Y-58882607D01*
X147410647Y-58882607D01*
X147419320Y-58855322D01*
X147760393Y-58855322D01*
X147827366Y-58875166D01*
X147891858Y-58888809D01*
X147961311Y-58897490D01*
X148028284Y-58899971D01*
X148130121Y-58892116D01*
X148214044Y-58868551D01*
X148280052Y-58829277D01*
X148327594Y-58775258D01*
X148356119Y-58707459D01*
X148365628Y-58625879D01*
X148352605Y-58533481D01*
X148313538Y-58462168D01*
X148249666Y-58412249D01*
X148162229Y-58384033D01*
X148239124Y-58357988D01*
X148296175Y-58314580D01*
X148333382Y-58253809D01*
X148343304Y-58180635D01*
X148334209Y-58111457D01*
X148306923Y-58052753D01*
X148261448Y-58004521D01*
X148200814Y-57968692D01*
X148124747Y-57947195D01*
X148033245Y-57940029D01*
X147974954Y-57942510D01*
X147914183Y-57949951D01*
X147851861Y-57962354D01*
X147788919Y-57979717D01*
X147788919Y-58145908D01*
X147852791Y-58124204D01*
X147911702Y-58108701D01*
X147969993Y-58098159D01*
X148023323Y-58095059D01*
X148085955Y-58102190D01*
X148129983Y-58123584D01*
X148167190Y-58202959D01*
X148129983Y-58279854D01*
X148083475Y-58300317D01*
X148023323Y-58307139D01*
X147926585Y-58307139D01*
X147926585Y-58468369D01*
X148023323Y-58468369D01*
X148096497Y-58478911D01*
X148147347Y-58506816D01*
X148178973Y-58552395D01*
X148189515Y-58612236D01*
X148178973Y-58667737D01*
X148147347Y-58710215D01*
X148092156Y-58736260D01*
X148018362Y-58743701D01*
X147956350Y-58739980D01*
X147886897Y-58728818D01*
X147821165Y-58710215D01*
X147760393Y-58684170D01*
X147760393Y-58855322D01*
X147419320Y-58855322D01*
X147631409Y-58188076D01*
X147447854Y-58188076D01*
X147299026Y-58730059D01*
X147150198Y-58188076D01*
X146966643Y-58188076D01*
X146809365Y-58188076D01*
X146810374Y-58180635D01*
X146801279Y-58111457D01*
X146773994Y-58052753D01*
X146728518Y-58004521D01*
X146667885Y-57968692D01*
X146591817Y-57947195D01*
X146500315Y-57940029D01*
X146442024Y-57942510D01*
X146381253Y-57949951D01*
X146318931Y-57962354D01*
X146255989Y-57979717D01*
X146255989Y-58145908D01*
X146319861Y-58124204D01*
X146378772Y-58108701D01*
X146437063Y-58098159D01*
X146490393Y-58095059D01*
X146553025Y-58102190D01*
X146597054Y-58123584D01*
X146634261Y-58202959D01*
X146597054Y-58279854D01*
X146550545Y-58300317D01*
X146490393Y-58307139D01*
X146393655Y-58307139D01*
X146393655Y-58468369D01*
X146490393Y-58468369D01*
X146563567Y-58478911D01*
X146614417Y-58506816D01*
X146646043Y-58552395D01*
X146656585Y-58612236D01*
X146646043Y-58667737D01*
X146614417Y-58710215D01*
X146559226Y-58736260D01*
X146485433Y-58743701D01*
X146423421Y-58739980D01*
X146353968Y-58728818D01*
X146288235Y-58710215D01*
X146227464Y-58684170D01*
X146227464Y-58855322D01*
X145792003Y-58855322D01*
X145501789Y-58420000D01*
X145962880Y-57728363D01*
X148630211Y-57728363D01*
X148630211Y-59111637D01*
G37*
%TO.C,kibuzzard-61DADF5F*%
G36*
X145636368Y-83903096D02*
G01*
X145462735Y-83903096D01*
X145549552Y-83523584D01*
X145636368Y-83903096D01*
G37*
G36*
X143336974Y-83903096D02*
G01*
X143163341Y-83903096D01*
X143250157Y-83523584D01*
X143336974Y-83903096D01*
G37*
G36*
X146344542Y-83538157D02*
G01*
X146405313Y-83589316D01*
X146430807Y-83645127D01*
X146446103Y-83721608D01*
X146451202Y-83818760D01*
X146446103Y-83916600D01*
X146430807Y-83993495D01*
X146405313Y-84049443D01*
X146343922Y-84100603D01*
X146251524Y-84117656D01*
X146201915Y-84117656D01*
X146201915Y-83521104D01*
X146251524Y-83521104D01*
X146344542Y-83538157D01*
G37*
G36*
X142162334Y-83820000D02*
G01*
X142623425Y-83128363D01*
X148413666Y-83128363D01*
X148413666Y-84511637D01*
X142623425Y-84511637D01*
X142470738Y-84282607D01*
X142888009Y-84282607D01*
X143071563Y-84282607D01*
X143127374Y-84054404D01*
X143371700Y-84054404D01*
X143428751Y-84282607D01*
X143612306Y-84282607D01*
X143546484Y-84039521D01*
X143733849Y-84039521D01*
X143746561Y-84151143D01*
X143784698Y-84232998D01*
X143847020Y-84283228D01*
X143932286Y-84299971D01*
X144012763Y-84286604D01*
X144072295Y-84246503D01*
X144110880Y-84179668D01*
X144128243Y-84282607D01*
X144291954Y-84282607D01*
X144435821Y-84282607D01*
X144646661Y-84282607D01*
X144783087Y-84049443D01*
X144919513Y-84282607D01*
X145131593Y-84282607D01*
X145187403Y-84282607D01*
X145370958Y-84282607D01*
X145426768Y-84054404D01*
X145671095Y-84054404D01*
X145728145Y-84282607D01*
X145911700Y-84282607D01*
X146018360Y-84282607D01*
X146214317Y-84282607D01*
X146320357Y-84275786D01*
X146410274Y-84255322D01*
X146484068Y-84221216D01*
X146541739Y-84173467D01*
X146585147Y-84110370D01*
X146616153Y-84030220D01*
X146634757Y-83933016D01*
X146640823Y-83821240D01*
X146786065Y-83821240D01*
X146792266Y-83930923D01*
X146810870Y-84026809D01*
X146841876Y-84108897D01*
X146885284Y-84177188D01*
X146940319Y-84230905D01*
X147006207Y-84269275D01*
X147082946Y-84292297D01*
X147170538Y-84299971D01*
X147272237Y-84290049D01*
X147362774Y-84255322D01*
X147543849Y-84255322D01*
X147610821Y-84275166D01*
X147675313Y-84288809D01*
X147744766Y-84297490D01*
X147811739Y-84299971D01*
X147913576Y-84292116D01*
X147997499Y-84268551D01*
X148063507Y-84229277D01*
X148111049Y-84175258D01*
X148139574Y-84107459D01*
X148149083Y-84025879D01*
X148136060Y-83933481D01*
X148096993Y-83862168D01*
X148033121Y-83812249D01*
X147945684Y-83784033D01*
X148022579Y-83757988D01*
X148079630Y-83714580D01*
X148116837Y-83653809D01*
X148126759Y-83580635D01*
X148117664Y-83511457D01*
X148090378Y-83452753D01*
X148044903Y-83404521D01*
X147984270Y-83368692D01*
X147908202Y-83347195D01*
X147816700Y-83340029D01*
X147758409Y-83342510D01*
X147697638Y-83349951D01*
X147635316Y-83362354D01*
X147572374Y-83379717D01*
X147572374Y-83545908D01*
X147636246Y-83524204D01*
X147695157Y-83508701D01*
X147753448Y-83498159D01*
X147806778Y-83495059D01*
X147869410Y-83502190D01*
X147913438Y-83523584D01*
X147950645Y-83602959D01*
X147913438Y-83679854D01*
X147866930Y-83700317D01*
X147806778Y-83707139D01*
X147710040Y-83707139D01*
X147710040Y-83868369D01*
X147806778Y-83868369D01*
X147879952Y-83878911D01*
X147930802Y-83906816D01*
X147962428Y-83952395D01*
X147972970Y-84012236D01*
X147962428Y-84067737D01*
X147930802Y-84110215D01*
X147875611Y-84136260D01*
X147801817Y-84143701D01*
X147739806Y-84139980D01*
X147670352Y-84128818D01*
X147604620Y-84110215D01*
X147543849Y-84084170D01*
X147543849Y-84255322D01*
X147362774Y-84255322D01*
X147362774Y-84051924D01*
X147315645Y-84091611D01*
X147272237Y-84116416D01*
X147179220Y-84136260D01*
X147092713Y-84116416D01*
X147029151Y-84056885D01*
X147000212Y-83995424D01*
X146982849Y-83916876D01*
X146977061Y-83821240D01*
X146982849Y-83725329D01*
X147000212Y-83645954D01*
X147029151Y-83583115D01*
X147092713Y-83523584D01*
X147179220Y-83503740D01*
X147225108Y-83508701D01*
X147270997Y-83523584D01*
X147313165Y-83547769D01*
X147362774Y-83588076D01*
X147362774Y-83384678D01*
X147272237Y-83351191D01*
X147170538Y-83340029D01*
X147082946Y-83347781D01*
X147006207Y-83371035D01*
X146940319Y-83409792D01*
X146885284Y-83464053D01*
X146841876Y-83532886D01*
X146810870Y-83615361D01*
X146792266Y-83711479D01*
X146786065Y-83821240D01*
X146640823Y-83821240D01*
X146640958Y-83818760D01*
X146638202Y-83738834D01*
X146629934Y-83667727D01*
X146616153Y-83605439D01*
X146585147Y-83526064D01*
X146541739Y-83464053D01*
X146484068Y-83417389D01*
X146410274Y-83384058D01*
X146320357Y-83364059D01*
X146214317Y-83357393D01*
X146018360Y-83357393D01*
X146018360Y-84282607D01*
X145911700Y-84282607D01*
X145661173Y-83357393D01*
X145437931Y-83357393D01*
X145187403Y-84282607D01*
X145131593Y-84282607D01*
X144877345Y-83920459D01*
X145110509Y-83588076D01*
X144899669Y-83588076D01*
X144783087Y-83795195D01*
X144667745Y-83588076D01*
X144455665Y-83588076D01*
X144691309Y-83920459D01*
X144435821Y-84282607D01*
X144291954Y-84282607D01*
X144291954Y-83588076D01*
X144110880Y-83588076D01*
X144110880Y-83987432D01*
X144103748Y-84055955D01*
X144082354Y-84107734D01*
X144001739Y-84151143D01*
X143953508Y-84135709D01*
X143924569Y-84089406D01*
X143914923Y-84012236D01*
X143914923Y-83588076D01*
X143733849Y-83588076D01*
X143733849Y-84039521D01*
X143546484Y-84039521D01*
X143361778Y-83357393D01*
X143138536Y-83357393D01*
X142888009Y-84282607D01*
X142470738Y-84282607D01*
X142162334Y-83820000D01*
G37*
%TO.C,kibuzzard-61DAD9D2*%
G36*
X148137094Y-89591637D02*
G01*
X145439998Y-89591637D01*
X144978906Y-88900000D01*
X145118640Y-88690400D01*
X145704581Y-88690400D01*
X145716983Y-88778767D01*
X145754190Y-88845430D01*
X145824264Y-88901240D01*
X145876198Y-88928525D01*
X145941466Y-88955811D01*
X146032003Y-88990537D01*
X146072931Y-89011621D01*
X146103936Y-89040146D01*
X146128741Y-89112080D01*
X146091534Y-89198896D01*
X146046266Y-89221221D01*
X145984874Y-89228662D01*
X145919141Y-89222461D01*
X145850929Y-89203857D01*
X145782096Y-89172231D01*
X145709542Y-89126963D01*
X145709542Y-89315479D01*
X145774034Y-89344004D01*
X145843487Y-89365088D01*
X145913560Y-89376250D01*
X145986114Y-89379971D01*
X146084919Y-89372254D01*
X146166362Y-89349103D01*
X146230440Y-89310518D01*
X146276605Y-89256774D01*
X146304303Y-89188148D01*
X146313536Y-89104639D01*
X146299583Y-89007900D01*
X146260206Y-88931006D01*
X146226892Y-88901240D01*
X146477247Y-88901240D01*
X146483448Y-89010923D01*
X146502052Y-89106809D01*
X146533058Y-89188897D01*
X146576466Y-89257188D01*
X146631501Y-89310905D01*
X146697389Y-89349275D01*
X146774128Y-89372297D01*
X146861720Y-89379971D01*
X146963419Y-89370049D01*
X146982821Y-89362607D01*
X147297042Y-89362607D01*
X147872511Y-89362607D01*
X147872511Y-89201377D01*
X147480597Y-89201377D01*
X147480597Y-88437393D01*
X147297042Y-88437393D01*
X147297042Y-89362607D01*
X146982821Y-89362607D01*
X147053956Y-89335322D01*
X147053956Y-89131924D01*
X147006827Y-89171611D01*
X146963419Y-89196416D01*
X146870401Y-89216260D01*
X146783895Y-89196416D01*
X146720333Y-89136885D01*
X146691394Y-89075424D01*
X146674031Y-88996876D01*
X146668243Y-88901240D01*
X146674031Y-88805329D01*
X146691394Y-88725954D01*
X146720333Y-88663115D01*
X146783895Y-88603584D01*
X146870401Y-88583740D01*
X146916290Y-88588701D01*
X146962179Y-88603584D01*
X147004347Y-88627769D01*
X147053956Y-88668076D01*
X147053956Y-88464678D01*
X146963419Y-88431191D01*
X146861720Y-88420029D01*
X146774128Y-88427781D01*
X146697389Y-88451035D01*
X146631501Y-88489792D01*
X146576466Y-88544053D01*
X146533058Y-88612886D01*
X146502052Y-88695361D01*
X146483448Y-88791479D01*
X146477247Y-88901240D01*
X146226892Y-88901240D01*
X146193233Y-88871165D01*
X146096495Y-88823105D01*
X146017120Y-88793340D01*
X145947667Y-88762954D01*
X145910460Y-88737529D01*
X145884415Y-88673037D01*
X145920382Y-88598623D01*
X145962860Y-88578159D01*
X146020841Y-88571338D01*
X146101594Y-88580709D01*
X146181796Y-88608821D01*
X146261446Y-88655674D01*
X146261446Y-88477080D01*
X146197264Y-88451345D01*
X146136183Y-88433672D01*
X146074171Y-88423440D01*
X146007198Y-88420029D01*
X145920933Y-88428022D01*
X145847346Y-88452000D01*
X145786436Y-88491963D01*
X145740961Y-88545982D01*
X145713676Y-88612128D01*
X145704581Y-88690400D01*
X145118640Y-88690400D01*
X145439998Y-88208363D01*
X148137094Y-88208363D01*
X148137094Y-89591637D01*
G37*
%TO.C,U1*%
X137081802Y-76587113D02*
X137400000Y-76905311D01*
X132612887Y-72118198D02*
X132294689Y-71800000D01*
X142505311Y-71800000D02*
X142187113Y-72118198D01*
X142187113Y-71481802D02*
X142505311Y-71800000D01*
X137400000Y-76905311D02*
X137718198Y-76587113D01*
X137718198Y-67012887D02*
X137400000Y-66694689D01*
X137400000Y-66694689D02*
X137081802Y-67012887D01*
X137081802Y-67012887D02*
X136169634Y-66100719D01*
X132294689Y-71800000D02*
X132612887Y-71481802D01*
%TO.C,kibuzzard-61DAE5D9*%
G36*
X146350275Y-70838157D02*
G01*
X146411046Y-70889316D01*
X146436540Y-70945127D01*
X146451836Y-71021608D01*
X146456935Y-71118760D01*
X146451836Y-71216600D01*
X146436540Y-71293495D01*
X146411046Y-71349443D01*
X146349654Y-71400603D01*
X146257257Y-71417656D01*
X146207648Y-71417656D01*
X146207648Y-70821104D01*
X146257257Y-70821104D01*
X146350275Y-70838157D01*
G37*
G36*
X147175030Y-71203096D02*
G01*
X147001398Y-71203096D01*
X147088214Y-70823584D01*
X147175030Y-71203096D01*
G37*
G36*
X148419399Y-70428363D02*
G01*
X148880490Y-71120000D01*
X148419399Y-71811637D01*
X145759510Y-71811637D01*
X145759510Y-71582607D01*
X146024093Y-71582607D01*
X146220050Y-71582607D01*
X146726066Y-71582607D01*
X146909620Y-71582607D01*
X146965431Y-71354404D01*
X147209757Y-71354404D01*
X147266808Y-71582607D01*
X147450362Y-71582607D01*
X147442974Y-71555322D01*
X147549581Y-71555322D01*
X147616554Y-71575166D01*
X147681046Y-71588809D01*
X147750499Y-71597490D01*
X147817472Y-71599971D01*
X147919309Y-71592116D01*
X148003231Y-71568551D01*
X148069239Y-71529277D01*
X148116782Y-71475258D01*
X148145307Y-71407459D01*
X148154816Y-71325879D01*
X148141793Y-71233481D01*
X148102726Y-71162168D01*
X148038854Y-71112249D01*
X147951417Y-71084033D01*
X148028312Y-71057988D01*
X148085362Y-71014580D01*
X148122569Y-70953809D01*
X148132491Y-70880635D01*
X148123396Y-70811457D01*
X148096111Y-70752753D01*
X148050636Y-70704521D01*
X147990002Y-70668692D01*
X147913934Y-70647195D01*
X147822433Y-70640029D01*
X147764142Y-70642510D01*
X147703370Y-70649951D01*
X147641048Y-70662354D01*
X147578107Y-70679717D01*
X147578107Y-70845908D01*
X147641979Y-70824204D01*
X147700890Y-70808701D01*
X147759181Y-70798159D01*
X147812511Y-70795059D01*
X147875143Y-70802190D01*
X147919171Y-70823584D01*
X147956378Y-70902959D01*
X147919171Y-70979854D01*
X147872662Y-71000317D01*
X147812511Y-71007139D01*
X147715773Y-71007139D01*
X147715773Y-71168369D01*
X147812511Y-71168369D01*
X147885685Y-71178911D01*
X147936534Y-71206816D01*
X147968160Y-71252395D01*
X147978702Y-71312236D01*
X147968160Y-71367737D01*
X147936534Y-71410215D01*
X147881344Y-71436260D01*
X147807550Y-71443701D01*
X147745538Y-71439980D01*
X147676085Y-71428818D01*
X147610353Y-71410215D01*
X147549581Y-71384170D01*
X147549581Y-71555322D01*
X147442974Y-71555322D01*
X147199835Y-70657393D01*
X146976593Y-70657393D01*
X146726066Y-71582607D01*
X146220050Y-71582607D01*
X146326090Y-71575786D01*
X146416007Y-71555322D01*
X146489801Y-71521216D01*
X146547472Y-71473467D01*
X146590880Y-71410370D01*
X146621886Y-71330220D01*
X146640489Y-71233016D01*
X146646691Y-71118760D01*
X146643934Y-71038834D01*
X146635666Y-70967727D01*
X146621886Y-70905439D01*
X146590880Y-70826064D01*
X146547472Y-70764053D01*
X146489801Y-70717389D01*
X146416007Y-70684058D01*
X146326090Y-70664059D01*
X146220050Y-70657393D01*
X146024093Y-70657393D01*
X146024093Y-71582607D01*
X145759510Y-71582607D01*
X145759510Y-70428363D01*
X148419399Y-70428363D01*
G37*
%TO.C,C16*%
X143156949Y-67343934D02*
X142993134Y-67507749D01*
X143666066Y-67853051D02*
X143502251Y-68016866D01*
%TO.C,kibuzzard-61DADDE3*%
G36*
X127197831Y-58138157D02*
G01*
X127258603Y-58189316D01*
X127284096Y-58245127D01*
X127299393Y-58321608D01*
X127304491Y-58418760D01*
X127299393Y-58516600D01*
X127284096Y-58593495D01*
X127258603Y-58649443D01*
X127197211Y-58700603D01*
X127104814Y-58717656D01*
X127055204Y-58717656D01*
X127055204Y-58121104D01*
X127104814Y-58121104D01*
X127197831Y-58138157D01*
G37*
G36*
X128600536Y-58661846D02*
G01*
X128582622Y-58603003D01*
X128571873Y-58522388D01*
X128568333Y-58421240D01*
X128625341Y-58421240D01*
X128647665Y-58495654D01*
X128700995Y-58525420D01*
X128754945Y-58496895D01*
X128776650Y-58421240D01*
X128754945Y-58344966D01*
X128700995Y-58315820D01*
X128647045Y-58344966D01*
X128625341Y-58421240D01*
X128568333Y-58421240D01*
X128568290Y-58420000D01*
X128571873Y-58318301D01*
X128582622Y-58238099D01*
X128600536Y-58179395D01*
X128641774Y-58122654D01*
X128700995Y-58103740D01*
X128761147Y-58122654D01*
X128802694Y-58179395D01*
X128820609Y-58238099D01*
X128831358Y-58318301D01*
X128834941Y-58420000D01*
X128831358Y-58522388D01*
X128820609Y-58603003D01*
X128802694Y-58661846D01*
X128761147Y-58717656D01*
X128700995Y-58736260D01*
X128641774Y-58717656D01*
X128600536Y-58661846D01*
G37*
G36*
X125776109Y-57728363D02*
G01*
X129286799Y-57728363D01*
X129747891Y-58420000D01*
X129286799Y-59111637D01*
X125776109Y-59111637D01*
X125776109Y-58882607D01*
X126040692Y-58882607D01*
X126224247Y-58882607D01*
X126280058Y-58654404D01*
X126524384Y-58654404D01*
X126581435Y-58882607D01*
X126764989Y-58882607D01*
X126871650Y-58882607D01*
X127067607Y-58882607D01*
X127173647Y-58875786D01*
X127263564Y-58855322D01*
X127337358Y-58821216D01*
X127395028Y-58773467D01*
X127438437Y-58710370D01*
X127469442Y-58630220D01*
X127488046Y-58533016D01*
X127494112Y-58421240D01*
X127639355Y-58421240D01*
X127645556Y-58530923D01*
X127664159Y-58626809D01*
X127695165Y-58708897D01*
X127738573Y-58777188D01*
X127793609Y-58830905D01*
X127859496Y-58869275D01*
X127936236Y-58892297D01*
X128023827Y-58899971D01*
X128125526Y-58890049D01*
X128216064Y-58855322D01*
X128216064Y-58651924D01*
X128168935Y-58691611D01*
X128125526Y-58716416D01*
X128032509Y-58736260D01*
X127946003Y-58716416D01*
X127882441Y-58656885D01*
X127853502Y-58595424D01*
X127836138Y-58516876D01*
X127830351Y-58421240D01*
X128379775Y-58421240D01*
X128384813Y-58532939D01*
X128399928Y-58629910D01*
X128425121Y-58712153D01*
X128460390Y-58779668D01*
X128504883Y-58831138D01*
X128558988Y-58868965D01*
X128623946Y-58892219D01*
X128700995Y-58899971D01*
X128777270Y-58892219D01*
X128842382Y-58868965D01*
X128896952Y-58830828D01*
X128941601Y-58778428D01*
X128976870Y-58710525D01*
X129002062Y-58628359D01*
X129017177Y-58531931D01*
X129022216Y-58421240D01*
X129017177Y-58309464D01*
X129002062Y-58212261D01*
X128976870Y-58129630D01*
X128941601Y-58061572D01*
X128879038Y-57994048D01*
X128798836Y-57953534D01*
X128700995Y-57940029D01*
X128629682Y-57947316D01*
X128564569Y-57969175D01*
X128507519Y-58006847D01*
X128460390Y-58061572D01*
X128425121Y-58130560D01*
X128399928Y-58213501D01*
X128384813Y-58310394D01*
X128379775Y-58421240D01*
X127830351Y-58421240D01*
X127836138Y-58325329D01*
X127853502Y-58245954D01*
X127882441Y-58183115D01*
X127946003Y-58123584D01*
X128032509Y-58103740D01*
X128078398Y-58108701D01*
X128124286Y-58123584D01*
X128166454Y-58147769D01*
X128216064Y-58188076D01*
X128216064Y-57984678D01*
X128125526Y-57951191D01*
X128023827Y-57940029D01*
X127936236Y-57947781D01*
X127859496Y-57971035D01*
X127793609Y-58009792D01*
X127738573Y-58064053D01*
X127695165Y-58132886D01*
X127664159Y-58215361D01*
X127645556Y-58311479D01*
X127639355Y-58421240D01*
X127494112Y-58421240D01*
X127494247Y-58418760D01*
X127491491Y-58338834D01*
X127483223Y-58267727D01*
X127469442Y-58205439D01*
X127438437Y-58126064D01*
X127395028Y-58064053D01*
X127337358Y-58017389D01*
X127263564Y-57984058D01*
X127173647Y-57964059D01*
X127067607Y-57957393D01*
X126871650Y-57957393D01*
X126871650Y-58882607D01*
X126764989Y-58882607D01*
X126514462Y-57957393D01*
X126291220Y-57957393D01*
X126040692Y-58882607D01*
X125776109Y-58882607D01*
X125776109Y-57728363D01*
G37*
G36*
X126489657Y-58503096D02*
G01*
X126316025Y-58503096D01*
X126402841Y-58123584D01*
X126489657Y-58503096D01*
G37*
%TO.C,kibuzzard-61DADD90*%
G36*
X125776109Y-72968363D02*
G01*
X129286799Y-72968363D01*
X129747891Y-73660000D01*
X129286799Y-74351637D01*
X125776109Y-74351637D01*
X125776109Y-74122607D01*
X126040692Y-74122607D01*
X126339589Y-74122607D01*
X126449832Y-74115993D01*
X126537475Y-74096149D01*
X126602519Y-74063076D01*
X126647305Y-74015120D01*
X126674177Y-73950628D01*
X126683134Y-73869600D01*
X126669491Y-73772241D01*
X126628564Y-73698447D01*
X126578640Y-73661240D01*
X126815839Y-73661240D01*
X126822040Y-73770923D01*
X126840644Y-73866809D01*
X126871650Y-73948897D01*
X126915058Y-74017188D01*
X126970093Y-74070905D01*
X127035981Y-74109275D01*
X127112720Y-74132297D01*
X127200312Y-74139971D01*
X127302011Y-74130049D01*
X127321413Y-74122607D01*
X127635634Y-74122607D01*
X128211103Y-74122607D01*
X128335126Y-74122607D01*
X128518681Y-74122607D01*
X128518681Y-73808828D01*
X128600536Y-73705889D01*
X128818817Y-74122607D01*
X129022216Y-74122607D01*
X128719599Y-73562021D01*
X129012294Y-73197393D01*
X128805175Y-73197393D01*
X128518681Y-73562021D01*
X128518681Y-73197393D01*
X128335126Y-73197393D01*
X128335126Y-74122607D01*
X128211103Y-74122607D01*
X128211103Y-73961377D01*
X127819189Y-73961377D01*
X127819189Y-73197393D01*
X127635634Y-73197393D01*
X127635634Y-74122607D01*
X127321413Y-74122607D01*
X127392548Y-74095322D01*
X127392548Y-73891924D01*
X127345419Y-73931611D01*
X127302011Y-73956416D01*
X127208993Y-73976260D01*
X127122487Y-73956416D01*
X127058925Y-73896885D01*
X127029986Y-73835424D01*
X127012623Y-73756876D01*
X127006835Y-73661240D01*
X127012623Y-73565329D01*
X127029986Y-73485954D01*
X127058925Y-73423115D01*
X127122487Y-73363584D01*
X127208993Y-73343740D01*
X127254882Y-73348701D01*
X127300771Y-73363584D01*
X127342939Y-73387769D01*
X127392548Y-73428076D01*
X127392548Y-73224678D01*
X127302011Y-73191191D01*
X127200312Y-73180029D01*
X127112720Y-73187781D01*
X127035981Y-73211035D01*
X126970093Y-73249792D01*
X126915058Y-73304053D01*
X126871650Y-73372886D01*
X126840644Y-73455361D01*
X126822040Y-73551479D01*
X126815839Y-73661240D01*
X126578640Y-73661240D01*
X126562831Y-73649458D01*
X126469814Y-73626514D01*
X126546708Y-73608530D01*
X126603759Y-73569463D01*
X126638175Y-73508381D01*
X126649648Y-73429316D01*
X126640415Y-73358623D01*
X126614370Y-73300332D01*
X126571513Y-73254443D01*
X126511568Y-73221370D01*
X126434260Y-73201527D01*
X126339589Y-73194912D01*
X126040692Y-73194912D01*
X126040692Y-74122607D01*
X125776109Y-74122607D01*
X125776109Y-72968363D01*
G37*
G36*
X126411988Y-73710385D02*
G01*
X126460512Y-73735034D01*
X126487952Y-73778287D01*
X126497099Y-73842314D01*
X126488417Y-73905566D01*
X126462372Y-73946494D01*
X126413693Y-73968818D01*
X126339589Y-73976260D01*
X126218046Y-73976260D01*
X126218046Y-73702168D01*
X126339589Y-73702168D01*
X126411988Y-73710385D01*
G37*
G36*
X126402841Y-73348701D02*
G01*
X126437567Y-73367305D01*
X126467333Y-73450400D01*
X126460512Y-73499390D01*
X126438808Y-73531016D01*
X126399120Y-73550549D01*
X126339589Y-73557061D01*
X126218046Y-73557061D01*
X126218046Y-73341260D01*
X126339589Y-73341260D01*
X126402841Y-73348701D01*
G37*
%TO.C,kibuzzard-61DADDC6*%
G36*
X125677883Y-70428363D02*
G01*
X129893026Y-70428363D01*
X130354117Y-71120000D01*
X129893026Y-71811637D01*
X125677883Y-71811637D01*
X125677883Y-71582607D01*
X125942466Y-71582607D01*
X126517935Y-71582607D01*
X126651880Y-71582607D01*
X126835435Y-71582607D01*
X126835435Y-71216738D01*
X126893726Y-71216738D01*
X126955737Y-71242783D01*
X127009067Y-71322158D01*
X127021470Y-71349443D01*
X127133091Y-71582607D01*
X127334009Y-71582607D01*
X127167817Y-71250225D01*
X127140532Y-71199375D01*
X127118208Y-71170850D01*
X127071079Y-71146045D01*
X127150454Y-71121240D01*
X127422066Y-71121240D01*
X127428267Y-71230923D01*
X127446870Y-71326809D01*
X127477876Y-71408897D01*
X127521284Y-71477188D01*
X127576320Y-71530905D01*
X127642207Y-71569275D01*
X127718947Y-71592297D01*
X127806538Y-71599971D01*
X127908237Y-71590049D01*
X127927639Y-71582607D01*
X128241860Y-71582607D01*
X128817329Y-71582607D01*
X128941353Y-71582607D01*
X129124907Y-71582607D01*
X129124907Y-71268828D01*
X129206763Y-71165889D01*
X129425044Y-71582607D01*
X129628442Y-71582607D01*
X129325825Y-71022021D01*
X129618521Y-70657393D01*
X129411401Y-70657393D01*
X129124907Y-71022021D01*
X129124907Y-70657393D01*
X128941353Y-70657393D01*
X128941353Y-71582607D01*
X128817329Y-71582607D01*
X128817329Y-71421377D01*
X128425415Y-71421377D01*
X128425415Y-70657393D01*
X128241860Y-70657393D01*
X128241860Y-71582607D01*
X127927639Y-71582607D01*
X127998775Y-71555322D01*
X127998775Y-71351924D01*
X127951646Y-71391611D01*
X127908237Y-71416416D01*
X127815220Y-71436260D01*
X127728713Y-71416416D01*
X127665151Y-71356885D01*
X127636213Y-71295424D01*
X127618849Y-71216876D01*
X127613062Y-71121240D01*
X127618849Y-71025329D01*
X127636213Y-70945954D01*
X127665151Y-70883115D01*
X127728713Y-70823584D01*
X127815220Y-70803740D01*
X127861109Y-70808701D01*
X127906997Y-70823584D01*
X127949165Y-70847769D01*
X127998775Y-70888076D01*
X127998775Y-70684678D01*
X127908237Y-70651191D01*
X127806538Y-70640029D01*
X127718947Y-70647781D01*
X127642207Y-70671035D01*
X127576320Y-70709792D01*
X127521284Y-70764053D01*
X127477876Y-70832886D01*
X127446870Y-70915361D01*
X127428267Y-71011479D01*
X127422066Y-71121240D01*
X127150454Y-71121240D01*
X127205025Y-71077832D01*
X127239131Y-71012100D01*
X127250913Y-70922803D01*
X127246107Y-70859551D01*
X127231690Y-70803740D01*
X127207350Y-70756611D01*
X127172778Y-70719404D01*
X127110215Y-70684953D01*
X127025053Y-70664283D01*
X126917290Y-70657393D01*
X126651880Y-70657393D01*
X126651880Y-71582607D01*
X126517935Y-71582607D01*
X126517935Y-71421377D01*
X126126021Y-71421377D01*
X126126021Y-70657393D01*
X125942466Y-70657393D01*
X125942466Y-71582607D01*
X125677883Y-71582607D01*
X125677883Y-70428363D01*
G37*
G36*
X126986123Y-70818313D02*
G01*
X127028911Y-70839707D01*
X127053096Y-70878154D01*
X127061157Y-70936445D01*
X127052476Y-70996597D01*
X127028911Y-71033184D01*
X126986123Y-71055508D01*
X126922251Y-71062949D01*
X126835435Y-71062949D01*
X126835435Y-70811182D01*
X126922251Y-70811182D01*
X126986123Y-70818313D01*
G37*
%TO.C,kibuzzard-61DBECE5*%
G36*
X130532327Y-86601846D02*
G01*
X130514413Y-86543003D01*
X130503664Y-86462388D01*
X130500124Y-86361240D01*
X130557132Y-86361240D01*
X130579456Y-86435654D01*
X130632786Y-86465420D01*
X130686736Y-86436895D01*
X130708440Y-86361240D01*
X130686736Y-86284966D01*
X130632786Y-86255820D01*
X130578836Y-86284966D01*
X130557132Y-86361240D01*
X130500124Y-86361240D01*
X130500081Y-86360000D01*
X130503664Y-86258301D01*
X130514413Y-86178099D01*
X130532327Y-86119395D01*
X130573565Y-86062654D01*
X130632786Y-86043740D01*
X130692937Y-86062654D01*
X130734485Y-86119395D01*
X130752400Y-86178099D01*
X130763148Y-86258301D01*
X130766731Y-86360000D01*
X130763148Y-86462388D01*
X130752400Y-86543003D01*
X130734485Y-86601846D01*
X130692937Y-86657656D01*
X130632786Y-86676260D01*
X130573565Y-86657656D01*
X130532327Y-86601846D01*
G37*
G36*
X131218590Y-87051637D02*
G01*
X126234502Y-87051637D01*
X125773410Y-86360000D01*
X125913144Y-86150400D01*
X126499085Y-86150400D01*
X126511487Y-86238767D01*
X126548694Y-86305430D01*
X126618767Y-86361240D01*
X126670702Y-86388525D01*
X126735970Y-86415811D01*
X126826507Y-86450537D01*
X126867434Y-86471621D01*
X126898440Y-86500146D01*
X126923245Y-86572080D01*
X126886038Y-86658896D01*
X126840769Y-86681221D01*
X126779378Y-86688662D01*
X126713645Y-86682461D01*
X126645433Y-86663857D01*
X126576600Y-86632231D01*
X126504046Y-86586963D01*
X126504046Y-86775479D01*
X126568538Y-86804004D01*
X126637991Y-86825088D01*
X126708064Y-86836250D01*
X126780618Y-86839971D01*
X126879423Y-86832254D01*
X126913360Y-86822607D01*
X127270511Y-86822607D01*
X127466468Y-86822607D01*
X127572508Y-86815786D01*
X127662425Y-86795322D01*
X127736219Y-86761216D01*
X127793890Y-86713467D01*
X127837298Y-86650370D01*
X127868304Y-86570220D01*
X127886907Y-86473016D01*
X127892973Y-86361240D01*
X128009690Y-86361240D01*
X128014806Y-86472939D01*
X128030154Y-86569910D01*
X128055734Y-86652153D01*
X128091546Y-86719668D01*
X128136194Y-86771138D01*
X128190765Y-86808965D01*
X128256497Y-86832219D01*
X128334632Y-86839971D01*
X128411991Y-86832219D01*
X128477879Y-86808965D01*
X128532914Y-86770828D01*
X128577718Y-86718428D01*
X128613529Y-86650525D01*
X128639109Y-86568359D01*
X128653124Y-86480303D01*
X128784837Y-86480303D01*
X128793243Y-86594680D01*
X128818461Y-86686457D01*
X128860491Y-86755635D01*
X128920849Y-86802488D01*
X129001051Y-86830600D01*
X129101097Y-86839971D01*
X129201693Y-86830600D01*
X129281895Y-86802488D01*
X129341702Y-86755635D01*
X129383181Y-86687560D01*
X129408399Y-86595782D01*
X129417356Y-86480303D01*
X129417356Y-86056143D01*
X129541380Y-86056143D01*
X129775784Y-86056143D01*
X129775784Y-86822607D01*
X129959339Y-86822607D01*
X129959339Y-86361240D01*
X130311565Y-86361240D01*
X130316604Y-86472939D01*
X130331719Y-86569910D01*
X130356911Y-86652153D01*
X130392181Y-86719668D01*
X130436674Y-86771138D01*
X130490779Y-86808965D01*
X130555736Y-86832219D01*
X130632786Y-86839971D01*
X130709060Y-86832219D01*
X130774173Y-86808965D01*
X130828743Y-86770828D01*
X130873391Y-86718428D01*
X130908661Y-86650525D01*
X130933853Y-86568359D01*
X130948968Y-86471931D01*
X130954007Y-86361240D01*
X130948968Y-86249464D01*
X130933853Y-86152261D01*
X130908661Y-86069630D01*
X130873391Y-86001572D01*
X130810829Y-85934048D01*
X130730627Y-85893534D01*
X130632786Y-85880029D01*
X130561473Y-85887316D01*
X130496360Y-85909175D01*
X130439309Y-85946847D01*
X130392181Y-86001572D01*
X130356911Y-86070560D01*
X130331719Y-86153501D01*
X130316604Y-86250394D01*
X130311565Y-86361240D01*
X129959339Y-86361240D01*
X129959339Y-86056143D01*
X130194983Y-86056143D01*
X130194983Y-85897393D01*
X129541380Y-85897393D01*
X129541380Y-86056143D01*
X129417356Y-86056143D01*
X129417356Y-85897393D01*
X129235042Y-85897393D01*
X129235042Y-86527432D01*
X129226050Y-86589443D01*
X129199075Y-86636572D01*
X129156597Y-86666028D01*
X129101097Y-86675020D01*
X129044976Y-86666028D01*
X129003118Y-86636572D01*
X128976143Y-86589443D01*
X128967151Y-86527432D01*
X128967151Y-85897393D01*
X128784837Y-85897393D01*
X128784837Y-86480303D01*
X128653124Y-86480303D01*
X128654457Y-86471931D01*
X128659573Y-86361240D01*
X128654457Y-86249464D01*
X128639109Y-86152261D01*
X128613529Y-86069630D01*
X128577718Y-86001572D01*
X128514328Y-85934048D01*
X128433299Y-85893534D01*
X128334632Y-85880029D01*
X128262233Y-85887316D01*
X128196346Y-85909175D01*
X128138830Y-85946847D01*
X128091546Y-86001572D01*
X128055734Y-86070560D01*
X128030154Y-86153501D01*
X128014806Y-86250394D01*
X128009690Y-86361240D01*
X127892973Y-86361240D01*
X127893108Y-86358760D01*
X127890352Y-86278834D01*
X127882084Y-86207727D01*
X127868304Y-86145439D01*
X127837298Y-86066064D01*
X127793890Y-86004053D01*
X127736219Y-85957389D01*
X127662425Y-85924058D01*
X127572508Y-85904059D01*
X127466468Y-85897393D01*
X127270511Y-85897393D01*
X127270511Y-86822607D01*
X126913360Y-86822607D01*
X126960865Y-86809103D01*
X127024944Y-86770518D01*
X127071109Y-86716774D01*
X127098807Y-86648148D01*
X127108040Y-86564639D01*
X127094087Y-86467900D01*
X127054710Y-86391006D01*
X126987737Y-86331165D01*
X126890999Y-86283105D01*
X126811624Y-86253340D01*
X126742171Y-86222954D01*
X126704964Y-86197529D01*
X126678919Y-86133037D01*
X126714886Y-86058623D01*
X126757364Y-86038159D01*
X126815345Y-86031338D01*
X126896098Y-86040709D01*
X126976299Y-86068821D01*
X127055950Y-86115674D01*
X127055950Y-85937080D01*
X126991768Y-85911345D01*
X126930686Y-85893672D01*
X126868675Y-85883440D01*
X126801702Y-85880029D01*
X126715437Y-85888022D01*
X126641850Y-85912000D01*
X126580940Y-85951963D01*
X126535465Y-86005982D01*
X126508180Y-86072128D01*
X126499085Y-86150400D01*
X125913144Y-86150400D01*
X126234502Y-85668363D01*
X131218590Y-85668363D01*
X131218590Y-87051637D01*
G37*
G36*
X127596692Y-86078157D02*
G01*
X127657464Y-86129316D01*
X127682957Y-86185127D01*
X127698254Y-86261608D01*
X127703352Y-86358760D01*
X127698254Y-86456600D01*
X127682957Y-86533495D01*
X127657464Y-86589443D01*
X127596072Y-86640603D01*
X127503675Y-86657656D01*
X127454065Y-86657656D01*
X127454065Y-86061104D01*
X127503675Y-86061104D01*
X127596692Y-86078157D01*
G37*
G36*
X128395713Y-86062654D02*
G01*
X128437571Y-86119395D01*
X128455486Y-86178099D01*
X128466234Y-86258301D01*
X128469817Y-86360000D01*
X128466234Y-86462388D01*
X128455486Y-86543003D01*
X128437571Y-86601846D01*
X128395713Y-86657656D01*
X128334632Y-86676260D01*
X128274480Y-86657656D01*
X128232933Y-86601846D01*
X128215018Y-86543003D01*
X128204269Y-86462388D01*
X128200686Y-86360000D01*
X128204269Y-86258301D01*
X128215018Y-86178099D01*
X128232933Y-86119395D01*
X128274480Y-86062654D01*
X128334632Y-86043740D01*
X128395713Y-86062654D01*
G37*
%TO.C,kibuzzard-61DBECC0*%
G36*
X129307003Y-78945846D02*
G01*
X129289089Y-78887003D01*
X129278340Y-78806388D01*
X129274800Y-78705240D01*
X129331808Y-78705240D01*
X129354132Y-78779654D01*
X129407462Y-78809420D01*
X129461412Y-78780895D01*
X129483116Y-78705240D01*
X129461412Y-78628966D01*
X129407462Y-78599820D01*
X129353512Y-78628966D01*
X129331808Y-78705240D01*
X129274800Y-78705240D01*
X129274757Y-78704000D01*
X129278340Y-78602301D01*
X129289089Y-78522099D01*
X129307003Y-78463395D01*
X129348241Y-78406654D01*
X129407462Y-78387740D01*
X129467613Y-78406654D01*
X129509161Y-78463395D01*
X129527076Y-78522099D01*
X129537824Y-78602301D01*
X129541407Y-78704000D01*
X129537824Y-78806388D01*
X129527076Y-78887003D01*
X129509161Y-78945846D01*
X129467613Y-79001656D01*
X129407462Y-79020260D01*
X129348241Y-79001656D01*
X129307003Y-78945846D01*
G37*
G36*
X127137833Y-78422157D02*
G01*
X127198605Y-78473316D01*
X127224098Y-78529127D01*
X127239395Y-78605608D01*
X127244493Y-78702760D01*
X127239395Y-78800600D01*
X127224098Y-78877495D01*
X127198605Y-78933443D01*
X127137213Y-78984603D01*
X127044816Y-79001656D01*
X126995206Y-79001656D01*
X126995206Y-78405104D01*
X127044816Y-78405104D01*
X127137833Y-78422157D01*
G37*
G36*
X129993266Y-78012363D02*
G01*
X130454358Y-78704000D01*
X129993266Y-79395637D01*
X125775642Y-79395637D01*
X125775642Y-78494400D01*
X126040226Y-78494400D01*
X126052628Y-78582767D01*
X126089835Y-78649430D01*
X126159908Y-78705240D01*
X126211843Y-78732525D01*
X126277110Y-78759811D01*
X126367648Y-78794537D01*
X126408575Y-78815621D01*
X126439581Y-78844146D01*
X126464386Y-78916080D01*
X126427179Y-79002896D01*
X126381910Y-79025221D01*
X126320519Y-79032662D01*
X126254786Y-79026461D01*
X126186573Y-79007857D01*
X126117740Y-78976231D01*
X126045187Y-78930963D01*
X126045187Y-79119479D01*
X126109679Y-79148004D01*
X126179132Y-79169088D01*
X126249205Y-79180250D01*
X126321759Y-79183971D01*
X126420564Y-79176254D01*
X126454501Y-79166607D01*
X126811651Y-79166607D01*
X127007609Y-79166607D01*
X127113649Y-79159786D01*
X127203566Y-79139322D01*
X127277359Y-79105216D01*
X127335030Y-79057467D01*
X127378439Y-78994370D01*
X127409444Y-78914220D01*
X127428048Y-78817016D01*
X127434249Y-78702760D01*
X127431493Y-78622834D01*
X127423225Y-78551727D01*
X127409444Y-78489439D01*
X127378439Y-78410064D01*
X127335030Y-78348053D01*
X127277359Y-78301389D01*
X127203566Y-78268058D01*
X127113649Y-78248059D01*
X127007609Y-78241393D01*
X127600441Y-78241393D01*
X127600441Y-78402623D01*
X127783995Y-78402623D01*
X127783995Y-79005377D01*
X127600441Y-79005377D01*
X127600441Y-79166607D01*
X128151105Y-79166607D01*
X128334659Y-79166607D01*
X128495890Y-79166607D01*
X128495890Y-78494400D01*
X128753859Y-79166607D01*
X128949816Y-79166607D01*
X128949816Y-78705240D01*
X129086241Y-78705240D01*
X129091280Y-78816939D01*
X129106395Y-78913910D01*
X129131587Y-78996153D01*
X129166857Y-79063668D01*
X129211350Y-79115138D01*
X129265455Y-79152965D01*
X129330412Y-79176219D01*
X129407462Y-79183971D01*
X129483736Y-79176219D01*
X129548849Y-79152965D01*
X129603419Y-79114828D01*
X129648067Y-79062428D01*
X129683337Y-78994525D01*
X129708529Y-78912359D01*
X129723644Y-78815931D01*
X129728683Y-78705240D01*
X129723644Y-78593464D01*
X129708529Y-78496261D01*
X129683337Y-78413630D01*
X129648067Y-78345572D01*
X129585505Y-78278048D01*
X129505303Y-78237534D01*
X129407462Y-78224029D01*
X129336149Y-78231316D01*
X129271036Y-78253175D01*
X129213985Y-78290847D01*
X129166857Y-78345572D01*
X129131587Y-78414560D01*
X129106395Y-78497501D01*
X129091280Y-78594394D01*
X129086241Y-78705240D01*
X128949816Y-78705240D01*
X128949816Y-78241393D01*
X128788585Y-78241393D01*
X128788585Y-78913600D01*
X128530616Y-78241393D01*
X128334659Y-78241393D01*
X128334659Y-79166607D01*
X128151105Y-79166607D01*
X128151105Y-79005377D01*
X127967550Y-79005377D01*
X127967550Y-78402623D01*
X128151105Y-78402623D01*
X128151105Y-78241393D01*
X127600441Y-78241393D01*
X127007609Y-78241393D01*
X126811651Y-78241393D01*
X126811651Y-79166607D01*
X126454501Y-79166607D01*
X126502006Y-79153103D01*
X126566085Y-79114518D01*
X126612249Y-79060774D01*
X126639948Y-78992148D01*
X126649181Y-78908639D01*
X126635228Y-78811900D01*
X126595851Y-78735006D01*
X126528878Y-78675165D01*
X126432140Y-78627105D01*
X126352765Y-78597340D01*
X126283312Y-78566954D01*
X126246105Y-78541529D01*
X126220060Y-78477037D01*
X126256026Y-78402623D01*
X126298505Y-78382159D01*
X126356485Y-78375338D01*
X126437238Y-78384709D01*
X126517440Y-78412821D01*
X126597091Y-78459674D01*
X126597091Y-78281080D01*
X126532909Y-78255345D01*
X126471827Y-78237672D01*
X126409816Y-78227440D01*
X126342843Y-78224029D01*
X126256578Y-78232022D01*
X126182990Y-78256000D01*
X126122081Y-78295963D01*
X126076606Y-78349982D01*
X126049321Y-78416128D01*
X126040226Y-78494400D01*
X125775642Y-78494400D01*
X125775642Y-78012363D01*
X129993266Y-78012363D01*
G37*
%TO.C,kibuzzard-61DADDF1*%
G36*
X127196591Y-63218157D02*
G01*
X127257362Y-63269316D01*
X127282856Y-63325127D01*
X127298152Y-63401608D01*
X127303251Y-63498760D01*
X127298152Y-63596600D01*
X127282856Y-63673495D01*
X127257362Y-63729443D01*
X127195971Y-63780603D01*
X127103573Y-63797656D01*
X127053964Y-63797656D01*
X127053964Y-63201104D01*
X127103573Y-63201104D01*
X127196591Y-63218157D01*
G37*
G36*
X125774869Y-62808363D02*
G01*
X129288039Y-62808363D01*
X129749131Y-63500000D01*
X129288039Y-64191637D01*
X125774869Y-64191637D01*
X125774869Y-63962607D01*
X126039452Y-63962607D01*
X126223007Y-63962607D01*
X126278817Y-63734404D01*
X126523144Y-63734404D01*
X126580194Y-63962607D01*
X126763749Y-63962607D01*
X126870409Y-63962607D01*
X127066366Y-63962607D01*
X127172406Y-63955786D01*
X127262323Y-63935322D01*
X127336117Y-63901216D01*
X127393788Y-63853467D01*
X127437196Y-63790370D01*
X127468202Y-63710220D01*
X127486806Y-63613016D01*
X127492872Y-63501240D01*
X127638114Y-63501240D01*
X127644316Y-63610923D01*
X127662919Y-63706809D01*
X127693925Y-63788897D01*
X127737333Y-63857188D01*
X127792369Y-63910905D01*
X127858256Y-63949275D01*
X127934995Y-63972297D01*
X128022587Y-63979971D01*
X128124286Y-63970049D01*
X128214823Y-63935322D01*
X128214823Y-63731924D01*
X128167694Y-63771611D01*
X128124286Y-63796416D01*
X128031269Y-63816260D01*
X127944762Y-63796416D01*
X127881200Y-63736885D01*
X127852262Y-63675424D01*
X127834898Y-63596876D01*
X127829110Y-63501240D01*
X127834898Y-63405329D01*
X127852262Y-63325954D01*
X127870920Y-63285439D01*
X128414501Y-63285439D01*
X128501317Y-63375977D01*
X128640224Y-63225908D01*
X128640224Y-63801377D01*
X128435585Y-63801377D01*
X128435585Y-63962607D01*
X129023456Y-63962607D01*
X129023456Y-63801377D01*
X128817577Y-63801377D01*
X128817577Y-63037393D01*
X128641464Y-63037393D01*
X128414501Y-63285439D01*
X127870920Y-63285439D01*
X127881200Y-63263115D01*
X127944762Y-63203584D01*
X128031269Y-63183740D01*
X128077157Y-63188701D01*
X128123046Y-63203584D01*
X128165214Y-63227769D01*
X128214823Y-63268076D01*
X128214823Y-63064678D01*
X128124286Y-63031191D01*
X128022587Y-63020029D01*
X127934995Y-63027781D01*
X127858256Y-63051035D01*
X127792369Y-63089792D01*
X127737333Y-63144053D01*
X127693925Y-63212886D01*
X127662919Y-63295361D01*
X127644316Y-63391479D01*
X127638114Y-63501240D01*
X127492872Y-63501240D01*
X127493007Y-63498760D01*
X127490251Y-63418834D01*
X127481983Y-63347727D01*
X127468202Y-63285439D01*
X127437196Y-63206064D01*
X127393788Y-63144053D01*
X127336117Y-63097389D01*
X127262323Y-63064058D01*
X127172406Y-63044059D01*
X127066366Y-63037393D01*
X126870409Y-63037393D01*
X126870409Y-63962607D01*
X126763749Y-63962607D01*
X126513222Y-63037393D01*
X126289980Y-63037393D01*
X126039452Y-63962607D01*
X125774869Y-63962607D01*
X125774869Y-62808363D01*
G37*
G36*
X126488417Y-63583096D02*
G01*
X126314784Y-63583096D01*
X126401601Y-63203584D01*
X126488417Y-63583096D01*
G37*
%TO.C,kibuzzard-61DADAF6*%
G36*
X130232437Y-91440000D02*
G01*
X129771345Y-92131637D01*
X126260655Y-92131637D01*
X126107968Y-91902607D01*
X126525238Y-91902607D01*
X126824135Y-91902607D01*
X126934378Y-91895993D01*
X127022021Y-91876149D01*
X127087064Y-91843076D01*
X127131851Y-91795120D01*
X127158722Y-91730628D01*
X127167680Y-91649600D01*
X127154037Y-91552241D01*
X127113109Y-91478447D01*
X127063186Y-91441240D01*
X127300385Y-91441240D01*
X127306586Y-91550923D01*
X127325189Y-91646809D01*
X127356195Y-91728897D01*
X127399604Y-91797188D01*
X127454639Y-91850905D01*
X127520526Y-91889275D01*
X127597266Y-91912297D01*
X127684857Y-91919971D01*
X127786557Y-91910049D01*
X127877094Y-91875322D01*
X127877094Y-91671924D01*
X127829965Y-91711611D01*
X127786557Y-91736416D01*
X127693539Y-91756260D01*
X127607033Y-91736416D01*
X127543471Y-91676885D01*
X127514532Y-91615424D01*
X127497169Y-91536876D01*
X127491381Y-91441240D01*
X127497169Y-91345329D01*
X127514532Y-91265954D01*
X127543471Y-91203115D01*
X127607033Y-91143584D01*
X127693539Y-91123740D01*
X127739428Y-91128701D01*
X127785316Y-91143584D01*
X127827484Y-91167769D01*
X127877094Y-91208076D01*
X127877094Y-91004678D01*
X127803325Y-90977393D01*
X128120180Y-90977393D01*
X128120180Y-91902607D01*
X128695648Y-91902607D01*
X128819672Y-91902607D01*
X129003227Y-91902607D01*
X129003227Y-91588828D01*
X129085082Y-91485889D01*
X129303363Y-91902607D01*
X129506762Y-91902607D01*
X129204145Y-91342021D01*
X129496840Y-90977393D01*
X129289721Y-90977393D01*
X129003227Y-91342021D01*
X129003227Y-90977393D01*
X128819672Y-90977393D01*
X128819672Y-91902607D01*
X128695648Y-91902607D01*
X128695648Y-91741377D01*
X128303734Y-91741377D01*
X128303734Y-90977393D01*
X128120180Y-90977393D01*
X127803325Y-90977393D01*
X127786557Y-90971191D01*
X127684857Y-90960029D01*
X127597266Y-90967781D01*
X127520526Y-90991035D01*
X127454639Y-91029792D01*
X127399604Y-91084053D01*
X127356195Y-91152886D01*
X127325189Y-91235361D01*
X127306586Y-91331479D01*
X127300385Y-91441240D01*
X127063186Y-91441240D01*
X127047377Y-91429458D01*
X126954359Y-91406514D01*
X127031254Y-91388530D01*
X127088305Y-91349463D01*
X127122721Y-91288381D01*
X127134193Y-91209316D01*
X127124961Y-91138623D01*
X127098916Y-91080332D01*
X127056059Y-91034443D01*
X126996114Y-91001370D01*
X126918806Y-90981527D01*
X126824135Y-90974912D01*
X126525238Y-90974912D01*
X126525238Y-91902607D01*
X126107968Y-91902607D01*
X125799563Y-91440000D01*
X126260655Y-90748363D01*
X129771345Y-90748363D01*
X130232437Y-91440000D01*
G37*
G36*
X126887387Y-91128701D02*
G01*
X126922113Y-91147305D01*
X126951879Y-91230400D01*
X126945058Y-91279390D01*
X126923354Y-91311016D01*
X126883666Y-91330549D01*
X126824135Y-91337061D01*
X126702592Y-91337061D01*
X126702592Y-91121260D01*
X126824135Y-91121260D01*
X126887387Y-91128701D01*
G37*
G36*
X126896533Y-91490385D02*
G01*
X126945058Y-91515034D01*
X126972498Y-91558287D01*
X126981645Y-91622314D01*
X126972963Y-91685566D01*
X126946918Y-91726494D01*
X126898239Y-91748818D01*
X126824135Y-91756260D01*
X126702592Y-91756260D01*
X126702592Y-91482168D01*
X126824135Y-91482168D01*
X126896533Y-91490385D01*
G37*
%TO.C,C5*%
X143004000Y-59053733D02*
X143004000Y-59346267D01*
X141984000Y-59053733D02*
X141984000Y-59346267D01*
%TO.C,kibuzzard-61DADE19*%
G36*
X130128436Y-60546072D02*
G01*
X130171224Y-60567466D01*
X130195409Y-60605913D01*
X130203470Y-60664204D01*
X130194789Y-60724355D01*
X130171224Y-60760942D01*
X130128436Y-60783267D01*
X130064564Y-60790708D01*
X129977748Y-60790708D01*
X129977748Y-60538940D01*
X130064564Y-60538940D01*
X130128436Y-60546072D01*
G37*
G36*
X127115287Y-60930854D02*
G01*
X126941654Y-60930854D01*
X127028470Y-60551343D01*
X127115287Y-60930854D01*
G37*
G36*
X127823461Y-60565916D02*
G01*
X127884232Y-60617075D01*
X127909726Y-60672886D01*
X127925022Y-60749367D01*
X127930121Y-60846519D01*
X127925022Y-60944359D01*
X127909726Y-61021254D01*
X127884232Y-61077202D01*
X127822840Y-61128362D01*
X127730443Y-61145415D01*
X127680834Y-61145415D01*
X127680834Y-60548862D01*
X127730443Y-60548862D01*
X127823461Y-60565916D01*
G37*
G36*
X125865819Y-60960000D02*
G01*
X126401738Y-60156121D01*
X132198181Y-60156121D01*
X132198181Y-61763879D01*
X126401738Y-61763879D01*
X126260627Y-61552212D01*
X129004164Y-61552212D01*
X129651566Y-61552212D01*
X129651566Y-61428188D01*
X129004164Y-61428188D01*
X129004164Y-61552212D01*
X126260627Y-61552212D01*
X126099396Y-61310366D01*
X126666322Y-61310366D01*
X126849877Y-61310366D01*
X126905687Y-61082163D01*
X127150013Y-61082163D01*
X127207064Y-61310366D01*
X127390619Y-61310366D01*
X127497279Y-61310366D01*
X127693236Y-61310366D01*
X127799276Y-61303545D01*
X127889193Y-61283081D01*
X127962987Y-61248975D01*
X128020658Y-61201226D01*
X128064066Y-61138129D01*
X128095072Y-61057979D01*
X128113675Y-60960775D01*
X128119742Y-60848999D01*
X128264984Y-60848999D01*
X128271185Y-60958682D01*
X128289789Y-61054568D01*
X128320794Y-61136656D01*
X128364203Y-61204946D01*
X128419238Y-61258664D01*
X128485126Y-61297034D01*
X128561865Y-61320056D01*
X128649457Y-61327729D01*
X128751156Y-61317808D01*
X128770558Y-61310366D01*
X129794193Y-61310366D01*
X129977748Y-61310366D01*
X129977748Y-60944497D01*
X130036039Y-60944497D01*
X130098050Y-60970542D01*
X130151380Y-61049917D01*
X130163783Y-61077202D01*
X130275404Y-61310366D01*
X130476322Y-61310366D01*
X130582982Y-61310366D01*
X131159691Y-61310366D01*
X131159691Y-61149136D01*
X130766537Y-61149136D01*
X130766537Y-60906050D01*
X131122484Y-60906050D01*
X131122484Y-60744819D01*
X130766537Y-60744819D01*
X130766537Y-60638159D01*
X131324642Y-60638159D01*
X131337044Y-60726526D01*
X131374252Y-60793188D01*
X131444325Y-60848999D01*
X131496260Y-60876284D01*
X131561527Y-60903569D01*
X131652064Y-60938296D01*
X131692992Y-60959380D01*
X131723998Y-60987905D01*
X131748802Y-61059839D01*
X131711595Y-61146655D01*
X131666327Y-61168979D01*
X131604935Y-61176421D01*
X131539203Y-61170220D01*
X131470990Y-61151616D01*
X131402157Y-61119990D01*
X131329603Y-61074722D01*
X131329603Y-61263237D01*
X131394095Y-61291763D01*
X131463548Y-61312847D01*
X131533622Y-61324009D01*
X131606175Y-61327729D01*
X131704981Y-61320012D01*
X131786423Y-61296861D01*
X131850502Y-61258276D01*
X131896666Y-61204533D01*
X131924364Y-61135907D01*
X131933597Y-61052397D01*
X131919645Y-60955659D01*
X131880267Y-60878765D01*
X131813294Y-60818923D01*
X131716556Y-60770864D01*
X131637181Y-60741099D01*
X131567728Y-60710713D01*
X131530521Y-60685288D01*
X131504476Y-60620796D01*
X131540443Y-60546382D01*
X131582921Y-60525918D01*
X131640902Y-60519097D01*
X131721655Y-60528467D01*
X131801857Y-60556579D01*
X131881507Y-60603433D01*
X131881507Y-60424839D01*
X131817325Y-60399104D01*
X131756244Y-60381431D01*
X131694232Y-60371199D01*
X131627259Y-60367788D01*
X131540994Y-60375781D01*
X131467407Y-60399759D01*
X131406498Y-60439722D01*
X131361022Y-60493741D01*
X131333737Y-60559887D01*
X131324642Y-60638159D01*
X130766537Y-60638159D01*
X130766537Y-60546382D01*
X131159691Y-60546382D01*
X131159691Y-60385151D01*
X130582982Y-60385151D01*
X130582982Y-61310366D01*
X130476322Y-61310366D01*
X130310130Y-60977983D01*
X130282845Y-60927134D01*
X130260521Y-60898608D01*
X130213392Y-60873804D01*
X130292767Y-60848999D01*
X130347337Y-60805591D01*
X130381444Y-60739858D01*
X130393226Y-60650562D01*
X130388420Y-60587310D01*
X130374002Y-60531499D01*
X130349663Y-60484370D01*
X130315091Y-60447163D01*
X130252528Y-60412712D01*
X130167366Y-60392042D01*
X130059603Y-60385151D01*
X129794193Y-60385151D01*
X129794193Y-61310366D01*
X128770558Y-61310366D01*
X128841693Y-61283081D01*
X128841693Y-61079683D01*
X128794564Y-61119370D01*
X128751156Y-61144175D01*
X128658138Y-61164019D01*
X128571632Y-61144175D01*
X128508070Y-61084644D01*
X128479131Y-61023183D01*
X128461768Y-60944635D01*
X128455980Y-60848999D01*
X128461768Y-60753088D01*
X128479131Y-60673713D01*
X128508070Y-60610874D01*
X128571632Y-60551343D01*
X128658138Y-60531499D01*
X128704027Y-60536460D01*
X128749916Y-60551343D01*
X128792084Y-60575527D01*
X128841693Y-60615835D01*
X128841693Y-60412437D01*
X128751156Y-60378950D01*
X128649457Y-60367788D01*
X128561865Y-60375540D01*
X128485126Y-60398794D01*
X128419238Y-60437551D01*
X128364203Y-60491812D01*
X128320794Y-60560645D01*
X128289789Y-60643120D01*
X128271185Y-60739238D01*
X128264984Y-60848999D01*
X128119742Y-60848999D01*
X128119877Y-60846519D01*
X128117120Y-60766592D01*
X128108852Y-60695486D01*
X128095072Y-60633198D01*
X128064066Y-60553823D01*
X128020658Y-60491812D01*
X127962987Y-60445148D01*
X127889193Y-60411816D01*
X127799276Y-60391818D01*
X127693236Y-60385151D01*
X127497279Y-60385151D01*
X127497279Y-61310366D01*
X127390619Y-61310366D01*
X127140091Y-60385151D01*
X126916849Y-60385151D01*
X126666322Y-61310366D01*
X126099396Y-61310366D01*
X125865819Y-60960000D01*
G37*
%TO.C,C9*%
X138840000Y-64748335D02*
X138840000Y-64516665D01*
X139560000Y-64748335D02*
X139560000Y-64516665D01*
%TO.C,kibuzzard-61DAE5BF*%
G36*
X146344900Y-65758157D02*
G01*
X146405672Y-65809316D01*
X146431165Y-65865127D01*
X146446462Y-65941608D01*
X146451560Y-66038760D01*
X146446462Y-66136600D01*
X146431165Y-66213495D01*
X146405672Y-66269443D01*
X146344280Y-66320603D01*
X146251883Y-66337656D01*
X146202273Y-66337656D01*
X146202273Y-65741104D01*
X146251883Y-65741104D01*
X146344900Y-65758157D01*
G37*
G36*
X148885865Y-66040000D02*
G01*
X148436349Y-66714274D01*
X145754135Y-66714274D01*
X145754135Y-66502607D01*
X146018719Y-66502607D01*
X146214676Y-66502607D01*
X146720691Y-66502607D01*
X146904246Y-66502607D01*
X146960056Y-66274404D01*
X147204383Y-66274404D01*
X147261433Y-66502607D01*
X147444988Y-66502607D01*
X147261626Y-65825439D01*
X147562810Y-65825439D01*
X147649627Y-65915977D01*
X147788533Y-65765908D01*
X147788533Y-66341377D01*
X147583894Y-66341377D01*
X147583894Y-66502607D01*
X148171765Y-66502607D01*
X148171765Y-66341377D01*
X147965887Y-66341377D01*
X147965887Y-65577393D01*
X147789773Y-65577393D01*
X147562810Y-65825439D01*
X147261626Y-65825439D01*
X147194461Y-65577393D01*
X146971219Y-65577393D01*
X146720691Y-66502607D01*
X146214676Y-66502607D01*
X146320716Y-66495786D01*
X146410633Y-66475322D01*
X146484427Y-66441216D01*
X146542097Y-66393467D01*
X146585506Y-66330370D01*
X146616512Y-66250220D01*
X146635115Y-66153016D01*
X146641316Y-66038760D01*
X146638560Y-65958834D01*
X146630292Y-65887727D01*
X146616512Y-65825439D01*
X146585506Y-65746064D01*
X146542097Y-65684053D01*
X146484427Y-65637389D01*
X146410633Y-65604058D01*
X146320716Y-65584059D01*
X146214676Y-65577393D01*
X146018719Y-65577393D01*
X146018719Y-66502607D01*
X145754135Y-66502607D01*
X145754135Y-65365726D01*
X148436349Y-65365726D01*
X148885865Y-66040000D01*
G37*
G36*
X147169656Y-66123096D02*
G01*
X146996023Y-66123096D01*
X147082840Y-65743584D01*
X147169656Y-66123096D01*
G37*
%TO.C,kibuzzard-61DADAE1*%
G36*
X125701337Y-88900000D02*
G01*
X126162428Y-88208363D01*
X130377572Y-88208363D01*
X130838663Y-88900000D01*
X130377572Y-89591637D01*
X126162428Y-89591637D01*
X126009741Y-89362607D01*
X126427012Y-89362607D01*
X127002480Y-89362607D01*
X127136426Y-89362607D01*
X127319980Y-89362607D01*
X127319980Y-88996738D01*
X127378271Y-88996738D01*
X127440283Y-89022783D01*
X127493613Y-89102158D01*
X127506016Y-89129443D01*
X127617637Y-89362607D01*
X127818555Y-89362607D01*
X127652363Y-89030225D01*
X127625078Y-88979375D01*
X127602754Y-88950850D01*
X127555625Y-88926045D01*
X127635000Y-88901240D01*
X127906611Y-88901240D01*
X127912812Y-89010923D01*
X127931416Y-89106809D01*
X127962422Y-89188897D01*
X128005830Y-89257188D01*
X128060865Y-89310905D01*
X128126753Y-89349275D01*
X128203492Y-89372297D01*
X128291084Y-89379971D01*
X128392783Y-89370049D01*
X128412185Y-89362607D01*
X128726406Y-89362607D01*
X129301875Y-89362607D01*
X129425898Y-89362607D01*
X129609453Y-89362607D01*
X129609453Y-89048828D01*
X129691309Y-88945889D01*
X129909590Y-89362607D01*
X130112988Y-89362607D01*
X129810371Y-88802021D01*
X130103066Y-88437393D01*
X129895947Y-88437393D01*
X129609453Y-88802021D01*
X129609453Y-88437393D01*
X129425898Y-88437393D01*
X129425898Y-89362607D01*
X129301875Y-89362607D01*
X129301875Y-89201377D01*
X128909961Y-89201377D01*
X128909961Y-88437393D01*
X128726406Y-88437393D01*
X128726406Y-89362607D01*
X128412185Y-89362607D01*
X128483320Y-89335322D01*
X128483320Y-89131924D01*
X128436191Y-89171611D01*
X128392783Y-89196416D01*
X128299766Y-89216260D01*
X128213259Y-89196416D01*
X128149697Y-89136885D01*
X128120758Y-89075424D01*
X128103395Y-88996876D01*
X128097607Y-88901240D01*
X128103395Y-88805329D01*
X128120758Y-88725954D01*
X128149697Y-88663115D01*
X128213259Y-88603584D01*
X128299766Y-88583740D01*
X128345654Y-88588701D01*
X128391543Y-88603584D01*
X128433711Y-88627769D01*
X128483320Y-88668076D01*
X128483320Y-88464678D01*
X128392783Y-88431191D01*
X128291084Y-88420029D01*
X128203492Y-88427781D01*
X128126753Y-88451035D01*
X128060865Y-88489792D01*
X128005830Y-88544053D01*
X127962422Y-88612886D01*
X127931416Y-88695361D01*
X127912812Y-88791479D01*
X127906611Y-88901240D01*
X127635000Y-88901240D01*
X127689570Y-88857832D01*
X127723677Y-88792100D01*
X127735459Y-88702803D01*
X127730653Y-88639551D01*
X127716235Y-88583740D01*
X127691896Y-88536611D01*
X127657324Y-88499404D01*
X127594761Y-88464953D01*
X127509599Y-88444283D01*
X127401836Y-88437393D01*
X127136426Y-88437393D01*
X127136426Y-89362607D01*
X127002480Y-89362607D01*
X127002480Y-89201377D01*
X126610566Y-89201377D01*
X126610566Y-88437393D01*
X126427012Y-88437393D01*
X126427012Y-89362607D01*
X126009741Y-89362607D01*
X125701337Y-88900000D01*
G37*
G36*
X127470669Y-88598313D02*
G01*
X127513457Y-88619707D01*
X127537642Y-88658154D01*
X127545703Y-88716445D01*
X127537021Y-88776597D01*
X127513457Y-88813184D01*
X127470669Y-88835508D01*
X127406797Y-88842949D01*
X127319980Y-88842949D01*
X127319980Y-88591182D01*
X127406797Y-88591182D01*
X127470669Y-88598313D01*
G37*
%TO.C,C3*%
X141708767Y-61990000D02*
X141416233Y-61990000D01*
X141708767Y-63010000D02*
X141416233Y-63010000D01*
%TO.C,kibuzzard-61DAE5E4*%
G36*
X147743058Y-63741846D02*
G01*
X147725143Y-63683003D01*
X147714395Y-63602388D01*
X147710855Y-63501240D01*
X147767862Y-63501240D01*
X147790187Y-63575654D01*
X147843517Y-63605420D01*
X147897467Y-63576895D01*
X147919171Y-63501240D01*
X147897467Y-63424966D01*
X147843517Y-63395820D01*
X147789567Y-63424966D01*
X147767862Y-63501240D01*
X147710855Y-63501240D01*
X147710812Y-63500000D01*
X147714395Y-63398301D01*
X147725143Y-63318099D01*
X147743058Y-63259395D01*
X147784296Y-63202654D01*
X147843517Y-63183740D01*
X147903668Y-63202654D01*
X147945216Y-63259395D01*
X147963130Y-63318099D01*
X147973879Y-63398301D01*
X147977462Y-63500000D01*
X147973879Y-63602388D01*
X147963130Y-63683003D01*
X147945216Y-63741846D01*
X147903668Y-63797656D01*
X147843517Y-63816260D01*
X147784296Y-63797656D01*
X147743058Y-63741846D01*
G37*
G36*
X146340353Y-63218157D02*
G01*
X146401124Y-63269316D01*
X146426618Y-63325127D01*
X146441914Y-63401608D01*
X146447013Y-63498760D01*
X146441914Y-63596600D01*
X146426618Y-63673495D01*
X146401124Y-63729443D01*
X146339733Y-63780603D01*
X146247335Y-63797656D01*
X146197726Y-63797656D01*
X146197726Y-63201104D01*
X146247335Y-63201104D01*
X146340353Y-63218157D01*
G37*
G36*
X147165109Y-63583096D02*
G01*
X146991476Y-63583096D01*
X147078292Y-63203584D01*
X147165109Y-63583096D01*
G37*
G36*
X148429321Y-62808363D02*
G01*
X148890412Y-63500000D01*
X148429321Y-64191637D01*
X145749588Y-64191637D01*
X145749588Y-63962607D01*
X146014171Y-63962607D01*
X146210128Y-63962607D01*
X146716144Y-63962607D01*
X146899698Y-63962607D01*
X146955509Y-63734404D01*
X147199835Y-63734404D01*
X147256886Y-63962607D01*
X147440441Y-63962607D01*
X147315513Y-63501240D01*
X147522296Y-63501240D01*
X147527334Y-63612939D01*
X147542450Y-63709910D01*
X147567642Y-63792153D01*
X147602911Y-63859668D01*
X147647405Y-63911138D01*
X147701510Y-63948965D01*
X147766467Y-63972219D01*
X147843517Y-63979971D01*
X147919791Y-63972219D01*
X147984903Y-63948965D01*
X148039474Y-63910828D01*
X148084122Y-63858428D01*
X148119391Y-63790525D01*
X148144584Y-63708359D01*
X148159699Y-63611931D01*
X148164737Y-63501240D01*
X148159699Y-63389464D01*
X148144584Y-63292261D01*
X148119391Y-63209630D01*
X148084122Y-63141572D01*
X148021559Y-63074048D01*
X147941357Y-63033534D01*
X147843517Y-63020029D01*
X147772203Y-63027316D01*
X147707091Y-63049175D01*
X147650040Y-63086847D01*
X147602911Y-63141572D01*
X147567642Y-63210560D01*
X147542450Y-63293501D01*
X147527334Y-63390394D01*
X147522296Y-63501240D01*
X147315513Y-63501240D01*
X147189913Y-63037393D01*
X146966671Y-63037393D01*
X146716144Y-63962607D01*
X146210128Y-63962607D01*
X146316168Y-63955786D01*
X146406085Y-63935322D01*
X146479879Y-63901216D01*
X146537550Y-63853467D01*
X146580958Y-63790370D01*
X146611964Y-63710220D01*
X146630567Y-63613016D01*
X146636769Y-63498760D01*
X146634013Y-63418834D01*
X146625744Y-63347727D01*
X146611964Y-63285439D01*
X146580958Y-63206064D01*
X146537550Y-63144053D01*
X146479879Y-63097389D01*
X146406085Y-63064058D01*
X146316168Y-63044059D01*
X146210128Y-63037393D01*
X146014171Y-63037393D01*
X146014171Y-63962607D01*
X145749588Y-63962607D01*
X145749588Y-62808363D01*
X148429321Y-62808363D01*
G37*
%TO.C,U2*%
X137800000Y-58090000D02*
X136000000Y-58090000D01*
X136000000Y-61310000D02*
X138450000Y-61310000D01*
%TO.C,C7*%
X143972651Y-71936466D02*
X144136466Y-71772651D01*
X143463534Y-71427349D02*
X143627349Y-71263534D01*
%TO.C,C8*%
X132027349Y-76163534D02*
X131863534Y-76327349D01*
X132536466Y-76672651D02*
X132372651Y-76836466D01*
%TO.C,kibuzzard-61DADE61*%
G36*
X126272988Y-65738313D02*
G01*
X126315776Y-65759707D01*
X126339961Y-65798154D01*
X126348023Y-65856445D01*
X126339341Y-65916597D01*
X126315776Y-65953184D01*
X126272988Y-65975508D01*
X126209116Y-65982949D01*
X126122300Y-65982949D01*
X126122300Y-65731182D01*
X126209116Y-65731182D01*
X126272988Y-65738313D01*
G37*
G36*
X125674162Y-65348363D02*
G01*
X129896747Y-65348363D01*
X130357838Y-66040000D01*
X129896747Y-66731637D01*
X125674162Y-66731637D01*
X125674162Y-66502607D01*
X125938745Y-66502607D01*
X126122300Y-66502607D01*
X126122300Y-66136738D01*
X126180591Y-66136738D01*
X126242603Y-66162783D01*
X126295933Y-66242158D01*
X126308335Y-66269443D01*
X126419956Y-66502607D01*
X126620874Y-66502607D01*
X126727534Y-66502607D01*
X127304243Y-66502607D01*
X127304243Y-66341377D01*
X126911089Y-66341377D01*
X126911089Y-66098291D01*
X127267036Y-66098291D01*
X127267036Y-65937061D01*
X126911089Y-65937061D01*
X126911089Y-65830400D01*
X127469194Y-65830400D01*
X127481597Y-65918767D01*
X127518804Y-65985430D01*
X127588877Y-66041240D01*
X127640812Y-66068525D01*
X127706079Y-66095811D01*
X127796616Y-66130537D01*
X127837544Y-66151621D01*
X127868550Y-66180146D01*
X127893355Y-66252080D01*
X127856148Y-66338896D01*
X127810879Y-66361221D01*
X127749487Y-66368662D01*
X127683755Y-66362461D01*
X127615542Y-66343857D01*
X127546709Y-66312231D01*
X127474155Y-66266963D01*
X127474155Y-66455479D01*
X127538648Y-66484004D01*
X127608101Y-66505088D01*
X127678174Y-66516250D01*
X127750728Y-66519971D01*
X127849533Y-66512254D01*
X127883470Y-66502607D01*
X128260464Y-66502607D01*
X128837173Y-66502607D01*
X128837173Y-66341377D01*
X128444019Y-66341377D01*
X128444019Y-66098291D01*
X128799966Y-66098291D01*
X128799966Y-65937061D01*
X128444019Y-65937061D01*
X128444019Y-65738623D01*
X128837173Y-65738623D01*
X128837173Y-65736143D01*
X128978560Y-65736143D01*
X129212964Y-65736143D01*
X129212964Y-66502607D01*
X129396519Y-66502607D01*
X129396519Y-65736143D01*
X129632163Y-65736143D01*
X129632163Y-65577393D01*
X128978560Y-65577393D01*
X128978560Y-65736143D01*
X128837173Y-65736143D01*
X128837173Y-65577393D01*
X128260464Y-65577393D01*
X128260464Y-66502607D01*
X127883470Y-66502607D01*
X127930975Y-66489103D01*
X127995054Y-66450518D01*
X128041218Y-66396774D01*
X128068917Y-66328148D01*
X128078150Y-66244639D01*
X128064197Y-66147900D01*
X128024819Y-66071006D01*
X127957847Y-66011165D01*
X127861109Y-65963105D01*
X127781734Y-65933340D01*
X127712280Y-65902954D01*
X127675073Y-65877529D01*
X127649028Y-65813037D01*
X127684995Y-65738623D01*
X127727473Y-65718159D01*
X127785454Y-65711338D01*
X127866207Y-65720709D01*
X127946409Y-65748821D01*
X128026060Y-65795674D01*
X128026060Y-65617080D01*
X127961878Y-65591345D01*
X127900796Y-65573672D01*
X127838784Y-65563440D01*
X127771812Y-65560029D01*
X127685546Y-65568022D01*
X127611959Y-65592000D01*
X127551050Y-65631963D01*
X127505575Y-65685982D01*
X127478289Y-65752128D01*
X127469194Y-65830400D01*
X126911089Y-65830400D01*
X126911089Y-65738623D01*
X127304243Y-65738623D01*
X127304243Y-65577393D01*
X126727534Y-65577393D01*
X126727534Y-66502607D01*
X126620874Y-66502607D01*
X126454683Y-66170225D01*
X126427398Y-66119375D01*
X126405073Y-66090850D01*
X126357944Y-66066045D01*
X126437319Y-66041240D01*
X126491890Y-65997832D01*
X126525996Y-65932100D01*
X126537778Y-65842803D01*
X126532973Y-65779551D01*
X126518555Y-65723740D01*
X126494215Y-65676611D01*
X126459644Y-65639404D01*
X126397081Y-65604953D01*
X126311918Y-65584283D01*
X126204155Y-65577393D01*
X125938745Y-65577393D01*
X125938745Y-66502607D01*
X125674162Y-66502607D01*
X125674162Y-65348363D01*
G37*
%TO.C,kibuzzard-61DAE5CD*%
G36*
X148866434Y-68580000D02*
G01*
X148411131Y-69262956D01*
X145773566Y-69262956D01*
X145773566Y-69051289D01*
X146038149Y-69051289D01*
X146234106Y-69051289D01*
X146740122Y-69051289D01*
X146923676Y-69051289D01*
X146979487Y-68823086D01*
X147223813Y-68823086D01*
X147280864Y-69051289D01*
X147464418Y-69051289D01*
X147428149Y-68917344D01*
X147558676Y-68917344D01*
X147558676Y-69051289D01*
X148146547Y-69051289D01*
X148146547Y-68890059D01*
X147737270Y-68890059D01*
X147769516Y-68861533D01*
X147812304Y-68829287D01*
X147883618Y-68762314D01*
X147949815Y-68694722D01*
X147999580Y-68643252D01*
X148063452Y-68572559D01*
X148099728Y-68519849D01*
X148126704Y-68465898D01*
X148144067Y-68366680D01*
X148138641Y-68306683D01*
X148122363Y-68255679D01*
X148060971Y-68176924D01*
X148013532Y-68145918D01*
X147958032Y-68124834D01*
X147896640Y-68112742D01*
X147831528Y-68108711D01*
X147770756Y-68111812D01*
X147707504Y-68121113D01*
X147649213Y-68135376D01*
X147578520Y-68158320D01*
X147578520Y-68329473D01*
X147643012Y-68295986D01*
X147705024Y-68272422D01*
X147761144Y-68257539D01*
X147815405Y-68252578D01*
X147876021Y-68261105D01*
X147921445Y-68286685D01*
X147949815Y-68327147D01*
X147959272Y-68380322D01*
X147938188Y-68463418D01*
X147910903Y-68508066D01*
X147871215Y-68557676D01*
X147829047Y-68604805D01*
X147767036Y-68672397D01*
X147719907Y-68723092D01*
X147657895Y-68789600D01*
X147573559Y-68878896D01*
X147558676Y-68917344D01*
X147428149Y-68917344D01*
X147213891Y-68126074D01*
X146990649Y-68126074D01*
X146740122Y-69051289D01*
X146234106Y-69051289D01*
X146340146Y-69044468D01*
X146430063Y-69024004D01*
X146503857Y-68989897D01*
X146561528Y-68942148D01*
X146604936Y-68879052D01*
X146635942Y-68798901D01*
X146654545Y-68701698D01*
X146660747Y-68587441D01*
X146657990Y-68507515D01*
X146649722Y-68436408D01*
X146635942Y-68374121D01*
X146604936Y-68294746D01*
X146561528Y-68232734D01*
X146503857Y-68186071D01*
X146430063Y-68152739D01*
X146340146Y-68132740D01*
X146234106Y-68126074D01*
X146038149Y-68126074D01*
X146038149Y-69051289D01*
X145773566Y-69051289D01*
X145773566Y-67897044D01*
X148411131Y-67897044D01*
X148866434Y-68580000D01*
G37*
G36*
X147189086Y-68671777D02*
G01*
X147015454Y-68671777D01*
X147102270Y-68292266D01*
X147189086Y-68671777D01*
G37*
G36*
X146364331Y-68306838D02*
G01*
X146425102Y-68357998D01*
X146450596Y-68413809D01*
X146465892Y-68490290D01*
X146470991Y-68587441D01*
X146465892Y-68685282D01*
X146450596Y-68762177D01*
X146425102Y-68818125D01*
X146363710Y-68869285D01*
X146271313Y-68886338D01*
X146221704Y-68886338D01*
X146221704Y-68289785D01*
X146271313Y-68289785D01*
X146364331Y-68306838D01*
G37*
%TO.C,kibuzzard-61DAD9F7*%
G36*
X148636523Y-91440000D02*
G01*
X148175431Y-92131637D01*
X145448569Y-92131637D01*
X144987477Y-91440000D01*
X145127211Y-91230400D01*
X145713152Y-91230400D01*
X145725555Y-91318767D01*
X145762762Y-91385430D01*
X145832835Y-91441240D01*
X145884770Y-91468525D01*
X145950037Y-91495811D01*
X146040574Y-91530537D01*
X146081502Y-91551621D01*
X146112508Y-91580146D01*
X146137312Y-91652080D01*
X146100105Y-91738896D01*
X146054837Y-91761221D01*
X145993445Y-91768662D01*
X145927713Y-91762461D01*
X145859500Y-91743857D01*
X145790667Y-91712231D01*
X145718113Y-91666963D01*
X145718113Y-91855479D01*
X145782605Y-91884004D01*
X145852059Y-91905088D01*
X145922132Y-91916250D01*
X145994686Y-91919971D01*
X146093491Y-91912254D01*
X146127428Y-91902607D01*
X146484578Y-91902607D01*
X146680535Y-91902607D01*
X147186551Y-91902607D01*
X147370105Y-91902607D01*
X147425916Y-91674404D01*
X147670242Y-91674404D01*
X147727293Y-91902607D01*
X147910848Y-91902607D01*
X147660320Y-90977393D01*
X147437078Y-90977393D01*
X147186551Y-91902607D01*
X146680535Y-91902607D01*
X146786575Y-91895786D01*
X146876492Y-91875322D01*
X146950286Y-91841216D01*
X147007957Y-91793467D01*
X147051365Y-91730370D01*
X147082371Y-91650220D01*
X147100975Y-91553016D01*
X147107176Y-91438760D01*
X147104420Y-91358834D01*
X147096151Y-91287727D01*
X147082371Y-91225439D01*
X147051365Y-91146064D01*
X147007957Y-91084053D01*
X146950286Y-91037389D01*
X146876492Y-91004058D01*
X146786575Y-90984059D01*
X146680535Y-90977393D01*
X146484578Y-90977393D01*
X146484578Y-91902607D01*
X146127428Y-91902607D01*
X146174933Y-91889103D01*
X146239012Y-91850518D01*
X146285176Y-91796774D01*
X146312875Y-91728148D01*
X146322107Y-91644639D01*
X146308155Y-91547900D01*
X146268777Y-91471006D01*
X146201805Y-91411165D01*
X146105066Y-91363105D01*
X146025691Y-91333340D01*
X145956238Y-91302954D01*
X145919031Y-91277529D01*
X145892986Y-91213037D01*
X145928953Y-91138623D01*
X145971431Y-91118159D01*
X146029412Y-91111338D01*
X146110165Y-91120709D01*
X146190367Y-91148821D01*
X146270018Y-91195674D01*
X146270018Y-91017080D01*
X146205835Y-90991345D01*
X146144754Y-90973672D01*
X146082742Y-90963440D01*
X146015770Y-90960029D01*
X145929504Y-90968022D01*
X145855917Y-90992000D01*
X145795008Y-91031963D01*
X145749533Y-91085982D01*
X145722247Y-91152128D01*
X145713152Y-91230400D01*
X145127211Y-91230400D01*
X145448569Y-90748363D01*
X148175431Y-90748363D01*
X148636523Y-91440000D01*
G37*
G36*
X147635516Y-91523096D02*
G01*
X147461883Y-91523096D01*
X147548699Y-91143584D01*
X147635516Y-91523096D01*
G37*
G36*
X146810760Y-91158157D02*
G01*
X146871531Y-91209316D01*
X146897025Y-91265127D01*
X146912321Y-91341608D01*
X146917420Y-91438760D01*
X146912321Y-91536600D01*
X146897025Y-91613495D01*
X146871531Y-91669443D01*
X146810140Y-91720603D01*
X146717742Y-91737656D01*
X146668133Y-91737656D01*
X146668133Y-91141104D01*
X146717742Y-91141104D01*
X146810760Y-91158157D01*
G37*
%TO.C,C12*%
X130982651Y-74537749D02*
X131146466Y-74373934D01*
X130473534Y-74028632D02*
X130637349Y-73864817D01*
%TO.C,kibuzzard-61DADCE9*%
G36*
X125973238Y-83784000D02*
G01*
X126422754Y-83109726D01*
X129101246Y-83109726D01*
X129550762Y-83784000D01*
X129101246Y-84458274D01*
X126422754Y-84458274D01*
X126281643Y-84246607D01*
X126687337Y-84246607D01*
X126844847Y-84246607D01*
X126844847Y-83504947D01*
X126944065Y-83909264D01*
X127090413Y-83909264D01*
X127187151Y-83504947D01*
X127187151Y-84246607D01*
X127345901Y-84246607D01*
X127503411Y-84246607D01*
X127685726Y-84246607D01*
X127685726Y-83899342D01*
X127755179Y-83899342D01*
X127870658Y-83891900D01*
X127962436Y-83869576D01*
X128030511Y-83832369D01*
X128077364Y-83777937D01*
X128105476Y-83703936D01*
X128114847Y-83610367D01*
X128105476Y-83516798D01*
X128092493Y-83482623D01*
X128251272Y-83482623D01*
X128636985Y-83482623D01*
X128335608Y-84246607D01*
X128521644Y-84246607D01*
X128836663Y-83450377D01*
X128836663Y-83321393D01*
X128251272Y-83321393D01*
X128251272Y-83482623D01*
X128092493Y-83482623D01*
X128077364Y-83442798D01*
X128030511Y-83388365D01*
X127962436Y-83351158D01*
X127870658Y-83328834D01*
X127755179Y-83321393D01*
X127503411Y-83321393D01*
X127503411Y-84246607D01*
X127345901Y-84246607D01*
X127345901Y-83321393D01*
X127125140Y-83321393D01*
X127015999Y-83726949D01*
X126905618Y-83321393D01*
X126687337Y-83321393D01*
X126687337Y-84246607D01*
X126281643Y-84246607D01*
X125973238Y-83784000D01*
G37*
G36*
X127838274Y-83482778D02*
G01*
X127887884Y-83505567D01*
X127914859Y-83546960D01*
X127923851Y-83610367D01*
X127914859Y-83674549D01*
X127887884Y-83715787D01*
X127838274Y-83738111D01*
X127761380Y-83745553D01*
X127685726Y-83745553D01*
X127685726Y-83475182D01*
X127761380Y-83475182D01*
X127838274Y-83482778D01*
G37*
%TO.C,C2*%
X143673534Y-73647349D02*
X143837349Y-73483534D01*
X144182651Y-74156466D02*
X144346466Y-73992651D01*
%TO.C,C19*%
X136353733Y-62810000D02*
X136646267Y-62810000D01*
X136353733Y-61790000D02*
X136646267Y-61790000D01*
%TO.C,kibuzzard-61DAB0B4*%
G36*
X144560327Y-76200000D02*
G01*
X145021419Y-75508363D01*
X148555673Y-75508363D01*
X148555673Y-76891637D01*
X145021419Y-76891637D01*
X144868732Y-76662607D01*
X145286002Y-76662607D01*
X145443512Y-76662607D01*
X145443512Y-75920947D01*
X145542730Y-76325264D01*
X145689078Y-76325264D01*
X145785816Y-75920947D01*
X145785816Y-76662607D01*
X145944566Y-76662607D01*
X145944566Y-76201240D01*
X146084713Y-76201240D01*
X146090914Y-76310923D01*
X146109517Y-76406809D01*
X146140523Y-76488897D01*
X146183932Y-76557188D01*
X146238967Y-76610905D01*
X146304854Y-76649275D01*
X146381594Y-76672297D01*
X146469185Y-76679971D01*
X146570885Y-76670049D01*
X146590287Y-76662607D01*
X146904508Y-76662607D01*
X147479976Y-76662607D01*
X147604000Y-76662607D01*
X147787555Y-76662607D01*
X147787555Y-76348828D01*
X147869410Y-76245889D01*
X148087691Y-76662607D01*
X148291090Y-76662607D01*
X147988473Y-76102021D01*
X148281168Y-75737393D01*
X148074049Y-75737393D01*
X147787555Y-76102021D01*
X147787555Y-75737393D01*
X147604000Y-75737393D01*
X147604000Y-76662607D01*
X147479976Y-76662607D01*
X147479976Y-76501377D01*
X147088062Y-76501377D01*
X147088062Y-75737393D01*
X146904508Y-75737393D01*
X146904508Y-76662607D01*
X146590287Y-76662607D01*
X146661422Y-76635322D01*
X146661422Y-76431924D01*
X146614293Y-76471611D01*
X146570885Y-76496416D01*
X146477867Y-76516260D01*
X146391361Y-76496416D01*
X146327799Y-76436885D01*
X146298860Y-76375424D01*
X146281497Y-76296876D01*
X146275709Y-76201240D01*
X146281497Y-76105329D01*
X146298860Y-76025954D01*
X146327799Y-75963115D01*
X146391361Y-75903584D01*
X146477867Y-75883740D01*
X146523756Y-75888701D01*
X146569644Y-75903584D01*
X146611812Y-75927769D01*
X146661422Y-75968076D01*
X146661422Y-75764678D01*
X146570885Y-75731191D01*
X146469185Y-75720029D01*
X146381594Y-75727781D01*
X146304854Y-75751035D01*
X146238967Y-75789792D01*
X146183932Y-75844053D01*
X146140523Y-75912886D01*
X146109517Y-75995361D01*
X146090914Y-76091479D01*
X146084713Y-76201240D01*
X145944566Y-76201240D01*
X145944566Y-75737393D01*
X145723805Y-75737393D01*
X145614664Y-76142949D01*
X145504283Y-75737393D01*
X145286002Y-75737393D01*
X145286002Y-76662607D01*
X144868732Y-76662607D01*
X144560327Y-76200000D01*
G37*
%TO.C,C14*%
X142949749Y-67146968D02*
X142785934Y-67310783D01*
X142440632Y-66637851D02*
X142276817Y-66801666D01*
%TO.C,kibuzzard-61DADCF9*%
G36*
X127820911Y-75898778D02*
G01*
X127870521Y-75921567D01*
X127897496Y-75962960D01*
X127906487Y-76026367D01*
X127897496Y-76090549D01*
X127870521Y-76131787D01*
X127820911Y-76154111D01*
X127744017Y-76161553D01*
X127668362Y-76161553D01*
X127668362Y-75891182D01*
X127744017Y-75891182D01*
X127820911Y-75898778D01*
G37*
G36*
X129568126Y-76200000D02*
G01*
X129118610Y-76874274D01*
X126405390Y-76874274D01*
X126264279Y-76662607D01*
X126669974Y-76662607D01*
X126827483Y-76662607D01*
X126827483Y-75920947D01*
X126926702Y-76325264D01*
X127073050Y-76325264D01*
X127169788Y-75920947D01*
X127169788Y-76662607D01*
X127328538Y-76662607D01*
X127486048Y-76662607D01*
X127668362Y-76662607D01*
X127668362Y-76315342D01*
X127737815Y-76315342D01*
X127853295Y-76307900D01*
X127945072Y-76285576D01*
X128013147Y-76248369D01*
X128060001Y-76193937D01*
X128088113Y-76119936D01*
X128097483Y-76026367D01*
X128093384Y-75985439D01*
X128245071Y-75985439D01*
X128331888Y-76075977D01*
X128470794Y-75925908D01*
X128470794Y-76501377D01*
X128266155Y-76501377D01*
X128266155Y-76662607D01*
X128854026Y-76662607D01*
X128854026Y-76501377D01*
X128648147Y-76501377D01*
X128648147Y-75737393D01*
X128472034Y-75737393D01*
X128245071Y-75985439D01*
X128093384Y-75985439D01*
X128088113Y-75932798D01*
X128060001Y-75858798D01*
X128013147Y-75804365D01*
X127945072Y-75767158D01*
X127853295Y-75744834D01*
X127737815Y-75737393D01*
X127486048Y-75737393D01*
X127486048Y-76662607D01*
X127328538Y-76662607D01*
X127328538Y-75737393D01*
X127107776Y-75737393D01*
X126998636Y-76142949D01*
X126888255Y-75737393D01*
X126669974Y-75737393D01*
X126669974Y-76662607D01*
X126264279Y-76662607D01*
X125955874Y-76200000D01*
X126405390Y-75525726D01*
X129118610Y-75525726D01*
X129568126Y-76200000D01*
G37*
%TO.C,kibuzzard-61DADF43*%
G36*
X143325811Y-78823096D02*
G01*
X143152179Y-78823096D01*
X143238995Y-78443584D01*
X143325811Y-78823096D01*
G37*
G36*
X142151172Y-78740000D02*
G01*
X142612263Y-78048363D01*
X148424828Y-78048363D01*
X148424828Y-79431637D01*
X142612263Y-79431637D01*
X142459576Y-79202607D01*
X142876847Y-79202607D01*
X143060401Y-79202607D01*
X143116212Y-78974404D01*
X143360538Y-78974404D01*
X143417589Y-79202607D01*
X143601143Y-79202607D01*
X143535321Y-78959521D01*
X143722686Y-78959521D01*
X143735399Y-79071143D01*
X143773536Y-79152998D01*
X143835858Y-79203228D01*
X143921124Y-79219971D01*
X144001601Y-79206604D01*
X144061133Y-79166503D01*
X144099718Y-79099668D01*
X144117081Y-79202607D01*
X144280792Y-79202607D01*
X144424659Y-79202607D01*
X144635499Y-79202607D01*
X144771925Y-78969443D01*
X144908350Y-79202607D01*
X145120431Y-79202607D01*
X145176241Y-79202607D01*
X145359796Y-79202607D01*
X145415606Y-78974404D01*
X145659933Y-78974404D01*
X145716983Y-79202607D01*
X145900538Y-79202607D01*
X146007198Y-79202607D01*
X146203155Y-79202607D01*
X146309195Y-79195786D01*
X146399112Y-79175322D01*
X146472906Y-79141216D01*
X146530577Y-79093467D01*
X146573985Y-79030370D01*
X146604991Y-78950220D01*
X146623595Y-78853016D01*
X146629661Y-78741240D01*
X146774903Y-78741240D01*
X146781104Y-78850923D01*
X146799708Y-78946809D01*
X146830714Y-79028897D01*
X146874122Y-79097188D01*
X146929157Y-79150905D01*
X146995045Y-79189275D01*
X147071784Y-79212297D01*
X147159376Y-79219971D01*
X147261075Y-79210049D01*
X147351612Y-79175322D01*
X147351612Y-78971924D01*
X147304483Y-79011611D01*
X147261075Y-79036416D01*
X147168058Y-79056260D01*
X147081551Y-79036416D01*
X147017989Y-78976885D01*
X146989050Y-78915424D01*
X146971687Y-78836876D01*
X146965899Y-78741240D01*
X146971687Y-78645329D01*
X146989050Y-78565954D01*
X147007708Y-78525439D01*
X147551290Y-78525439D01*
X147638106Y-78615977D01*
X147777013Y-78465908D01*
X147777013Y-79041377D01*
X147572374Y-79041377D01*
X147572374Y-79202607D01*
X148160245Y-79202607D01*
X148160245Y-79041377D01*
X147954366Y-79041377D01*
X147954366Y-78277393D01*
X147778253Y-78277393D01*
X147551290Y-78525439D01*
X147007708Y-78525439D01*
X147017989Y-78503115D01*
X147081551Y-78443584D01*
X147168058Y-78423740D01*
X147213946Y-78428701D01*
X147259835Y-78443584D01*
X147302003Y-78467769D01*
X147351612Y-78508076D01*
X147351612Y-78304678D01*
X147261075Y-78271191D01*
X147159376Y-78260029D01*
X147071784Y-78267781D01*
X146995045Y-78291035D01*
X146929157Y-78329792D01*
X146874122Y-78384053D01*
X146830714Y-78452886D01*
X146799708Y-78535361D01*
X146781104Y-78631479D01*
X146774903Y-78741240D01*
X146629661Y-78741240D01*
X146629796Y-78738760D01*
X146627040Y-78658834D01*
X146618771Y-78587727D01*
X146604991Y-78525439D01*
X146573985Y-78446064D01*
X146530577Y-78384053D01*
X146472906Y-78337389D01*
X146399112Y-78304058D01*
X146309195Y-78284059D01*
X146203155Y-78277393D01*
X146007198Y-78277393D01*
X146007198Y-79202607D01*
X145900538Y-79202607D01*
X145650011Y-78277393D01*
X145426768Y-78277393D01*
X145176241Y-79202607D01*
X145120431Y-79202607D01*
X144866183Y-78840459D01*
X145099347Y-78508076D01*
X144888507Y-78508076D01*
X144771925Y-78715195D01*
X144656583Y-78508076D01*
X144444503Y-78508076D01*
X144680147Y-78840459D01*
X144424659Y-79202607D01*
X144280792Y-79202607D01*
X144280792Y-78508076D01*
X144099718Y-78508076D01*
X144099718Y-78907432D01*
X144092586Y-78975955D01*
X144071192Y-79027734D01*
X143990577Y-79071143D01*
X143942346Y-79055709D01*
X143913407Y-79009406D01*
X143903761Y-78932236D01*
X143903761Y-78508076D01*
X143722686Y-78508076D01*
X143722686Y-78959521D01*
X143535321Y-78959521D01*
X143350616Y-78277393D01*
X143127374Y-78277393D01*
X142876847Y-79202607D01*
X142459576Y-79202607D01*
X142151172Y-78740000D01*
G37*
G36*
X145625206Y-78823096D02*
G01*
X145451573Y-78823096D01*
X145538390Y-78443584D01*
X145625206Y-78823096D01*
G37*
G36*
X146333380Y-78458157D02*
G01*
X146394151Y-78509316D01*
X146419645Y-78565127D01*
X146434941Y-78641608D01*
X146440040Y-78738760D01*
X146434941Y-78836600D01*
X146419645Y-78913495D01*
X146394151Y-78969443D01*
X146332760Y-79020603D01*
X146240362Y-79037656D01*
X146190753Y-79037656D01*
X146190753Y-78441104D01*
X146240362Y-78441104D01*
X146333380Y-78458157D01*
G37*
%TO.C,R1*%
X145750175Y-72712773D02*
X145987227Y-72949825D01*
X145212773Y-73250175D02*
X145449825Y-73487227D01*
%TO.C,C1*%
X144952651Y-74926466D02*
X145116466Y-74762651D01*
X144443534Y-74417349D02*
X144607349Y-74253534D01*
%TO.C,C4*%
X141183335Y-63440000D02*
X140951665Y-63440000D01*
X141183335Y-64160000D02*
X140951665Y-64160000D01*
%TD*%
%LPC*%
D13*
%TO.C,C11*%
X137362500Y-63800000D03*
X135637500Y-63800000D03*
%TD*%
D14*
%TO.C,C18*%
X140000000Y-58800000D03*
X140000000Y-59935000D03*
%TD*%
D15*
%TO.C,C6*%
X144100000Y-58337500D03*
X144100000Y-60062500D03*
%TD*%
D16*
%TO.C,U1*%
X136401212Y-66912124D03*
X136047658Y-67265678D03*
X135694105Y-67619231D03*
X135340551Y-67972785D03*
X134986998Y-68326338D03*
X134633445Y-68679891D03*
X134279891Y-69033445D03*
X133926338Y-69386998D03*
X133572785Y-69740551D03*
X133219231Y-70094105D03*
X132865678Y-70447658D03*
X132512124Y-70801212D03*
D17*
X132512124Y-72798788D03*
X132865678Y-73152342D03*
X133219231Y-73505895D03*
X133572785Y-73859449D03*
X133926338Y-74213002D03*
X134279891Y-74566555D03*
X134633445Y-74920109D03*
X134986998Y-75273662D03*
X135340551Y-75627215D03*
X135694105Y-75980769D03*
X136047658Y-76334322D03*
X136401212Y-76687876D03*
D16*
X138398788Y-76687876D03*
X138752342Y-76334322D03*
X139105895Y-75980769D03*
X139459449Y-75627215D03*
X139813002Y-75273662D03*
X140166555Y-74920109D03*
X140520109Y-74566555D03*
X140873662Y-74213002D03*
X141227215Y-73859449D03*
X141580769Y-73505895D03*
X141934322Y-73152342D03*
X142287876Y-72798788D03*
D17*
X142287876Y-70801212D03*
X141934322Y-70447658D03*
X141580769Y-70094105D03*
X141227215Y-69740551D03*
X140873662Y-69386998D03*
X140520109Y-69033445D03*
X140166555Y-68679891D03*
X139813002Y-68326338D03*
X139459449Y-67972785D03*
X139105895Y-67619231D03*
X138752342Y-67265678D03*
X138398788Y-66912124D03*
%TD*%
D18*
%TO.C,C16*%
X143730883Y-67279117D03*
X142928317Y-68081683D03*
%TD*%
D19*
%TO.C,TP1*%
X141500000Y-75800000D03*
%TD*%
%TO.C,TP2*%
X135800000Y-64900000D03*
%TD*%
D15*
%TO.C,C5*%
X142494000Y-58337500D03*
X142494000Y-60062500D03*
%TD*%
D20*
%TO.C,C9*%
X139200000Y-65200000D03*
X139200000Y-64065000D03*
%TD*%
D13*
%TO.C,C3*%
X142425000Y-62500000D03*
X140700000Y-62500000D03*
%TD*%
D21*
%TO.C,U2*%
X138250000Y-60650000D03*
X138250000Y-59700000D03*
X138250000Y-58750000D03*
X135550000Y-58750000D03*
X135550000Y-60650000D03*
%TD*%
D22*
%TO.C,C7*%
X144201283Y-71198717D03*
X143398717Y-72001283D03*
%TD*%
D18*
%TO.C,C8*%
X132601283Y-76098717D03*
X131798717Y-76901283D03*
%TD*%
D22*
%TO.C,C12*%
X130408717Y-74602566D03*
X131211283Y-73800000D03*
%TD*%
%TO.C,C2*%
X143608717Y-74221283D03*
X144411283Y-73418717D03*
%TD*%
D23*
%TO.C,C19*%
X135637500Y-62300000D03*
X137362500Y-62300000D03*
%TD*%
D18*
%TO.C,C14*%
X143014566Y-66573034D03*
X142212000Y-67375600D03*
%TD*%
D24*
%TO.C,R1*%
X145177504Y-72677504D03*
X146022496Y-73522496D03*
%TD*%
D22*
%TO.C,C1*%
X144378717Y-74991283D03*
X145181283Y-74188717D03*
%TD*%
D25*
%TO.C,C4*%
X141635000Y-63800000D03*
X140500000Y-63800000D03*
%TD*%
D26*
%TO.C,J2*%
X149860000Y-58420000D03*
D27*
X149860000Y-60960000D03*
X149860000Y-63500000D03*
X149860000Y-66040000D03*
X149860000Y-68580000D03*
X149860000Y-71120000D03*
X149860000Y-73660000D03*
X149860000Y-76200000D03*
X149860000Y-78740000D03*
X149860000Y-81280000D03*
X149860000Y-83820000D03*
X149860000Y-86360000D03*
X149860000Y-88900000D03*
X149860000Y-91440000D03*
%TD*%
D26*
%TO.C,J1*%
X124460000Y-58420000D03*
D27*
X124460000Y-60960000D03*
X124460000Y-63500000D03*
X124460000Y-66040000D03*
X124460000Y-68580000D03*
X124460000Y-71120000D03*
X124460000Y-73660000D03*
X124460000Y-76200000D03*
X124460000Y-78740000D03*
X124460000Y-81280000D03*
X124460000Y-83820000D03*
X124460000Y-86360000D03*
X124460000Y-88900000D03*
X124460000Y-91440000D03*
%TD*%
M02*
